<svg width="13" height="13" viewBox="0 0 13 13" fill="none" xmlns="http://www.w3.org/2000/svg">
<path d="M9.89771 1.91957H8.75566V1.53888C8.75566 1.43792 8.71555 1.34109 8.64416 1.2697C8.57277 1.19831 8.47594 1.1582 8.37498 1.1582C8.27401 1.1582 8.17719 1.19831 8.1058 1.2697C8.0344 1.34109 7.9943 1.43792 7.9943 1.53888V1.91957H4.18748V1.53888C4.18748 1.43792 4.14737 1.34109 4.07598 1.2697C4.00459 1.19831 3.90776 1.1582 3.8068 1.1582C3.70583 1.1582 3.60901 1.19831 3.53761 1.2697C3.46622 1.34109 3.42611 1.43792 3.42611 1.53888V1.91957H2.28407C2.08214 1.91957 1.88849 1.99978 1.7457 2.14256C1.60292 2.28535 1.52271 2.479 1.52271 2.68093V10.2946C1.52271 10.4965 1.60292 10.6901 1.7457 10.8329C1.88849 10.9757 2.08214 11.0559 2.28407 11.0559H9.89771C10.0996 11.0559 10.2933 10.9757 10.4361 10.8329C10.5789 10.6901 10.6591 10.4965 10.6591 10.2946V2.68093C10.6591 2.479 10.5789 2.28535 10.4361 2.14256C10.2933 1.99978 10.0996 1.91957 9.89771 1.91957ZM3.42611 2.68093V3.06161C3.42611 3.16258 3.46622 3.2594 3.53761 3.33079C3.60901 3.40219 3.70583 3.44229 3.8068 3.44229C3.90776 3.44229 4.00459 3.40219 4.07598 3.33079C4.14737 3.2594 4.18748 3.16258 4.18748 3.06161V2.68093H7.9943V3.06161C7.9943 3.16258 8.0344 3.2594 8.1058 3.33079C8.17719 3.40219 8.27401 3.44229 8.37498 3.44229C8.47594 3.44229 8.57277 3.40219 8.64416 3.33079C8.71555 3.2594 8.75566 3.16258 8.75566 3.06161V2.68093H9.89771V4.20366H2.28407V2.68093H3.42611ZM9.89771 10.2946H2.28407V4.96502H9.89771V10.2946Z" fill="#3C3F43"/>
</svg>
