<svg width="19" height="20" viewBox="0 0 19 20" fill="none" xmlns="http://www.w3.org/2000/svg">
<path d="M16.9992 2.1875H14.5629V1.25C14.5629 1.10082 14.5037 0.957742 14.3983 0.852252C14.2928 0.746763 14.1498 0.6875 14.0007 0.6875C13.8516 0.6875 13.7086 0.746763 13.6032 0.852252C13.4978 0.957742 13.4385 1.10082 13.4385 1.25V2.1875H5.56765V1.25C5.56765 1.10082 5.50841 0.957742 5.40298 0.852252C5.29754 0.746763 5.15455 0.6875 5.00544 0.6875C4.85633 0.6875 4.71333 0.746763 4.6079 0.852252C4.50247 0.957742 4.44323 1.10082 4.44323 1.25V2.1875H2.00701C1.65909 2.1875 1.32543 2.32578 1.07941 2.57192C0.833399 2.81806 0.69519 3.1519 0.69519 3.5V18.5C0.69519 18.8481 0.833399 19.1819 1.07941 19.4281C1.32543 19.6742 1.65909 19.8125 2.00701 19.8125H16.9992C17.3471 19.8125 17.6808 19.6742 17.9268 19.4281C18.1728 19.1819 18.311 18.8481 18.311 18.5V3.5C18.311 3.1519 18.1728 2.81806 17.9268 2.57192C17.6808 2.32578 17.3471 2.1875 16.9992 2.1875ZM2.00701 3.3125H4.44323V4.25C4.44323 4.39918 4.50247 4.54226 4.6079 4.64775C4.71333 4.75324 4.85633 4.8125 5.00544 4.8125C5.15455 4.8125 5.29754 4.75324 5.40298 4.64775C5.50841 4.54226 5.56765 4.39918 5.56765 4.25V3.3125H13.4385V4.25C13.4385 4.39918 13.4978 4.54226 13.6032 4.64775C13.7086 4.75324 13.8516 4.8125 14.0007 4.8125C14.1498 4.8125 14.2928 4.75324 14.3983 4.64775C14.5037 4.54226 14.5629 4.39918 14.5629 4.25V3.3125H16.9992C17.0489 3.3125 17.0965 3.33225 17.1317 3.36742C17.1668 3.40258 17.1866 3.45027 17.1866 3.5V6.6875H1.8196V3.5C1.8196 3.45027 1.83935 3.40258 1.87449 3.36742C1.90964 3.33225 1.9573 3.3125 2.00701 3.3125ZM16.9992 18.6875H2.00701C1.9573 18.6875 1.90964 18.6677 1.87449 18.6326C1.83935 18.5974 1.8196 18.5497 1.8196 18.5V7.8125H17.1866V18.5C17.1866 18.5497 17.1668 18.5974 17.1317 18.6326C17.0965 18.6677 17.0489 18.6875 16.9992 18.6875ZM13.2736 10.6025C13.3789 10.708 13.438 10.8509 13.438 11C13.438 11.1491 13.3789 11.292 13.2736 11.3975L8.77597 15.8975C8.67056 16.0028 8.52766 16.062 8.37868 16.062C8.22969 16.062 8.0868 16.0028 7.98138 15.8975L5.73256 13.6475C5.63325 13.5409 5.57919 13.3998 5.58176 13.2541C5.58433 13.1084 5.64333 12.9693 5.74634 12.8663C5.84934 12.7632 5.98831 12.7042 6.13396 12.7016C6.27961 12.699 6.42057 12.7531 6.52714 12.8525L8.37868 14.7041L12.479 10.6025C12.5844 10.4972 12.7273 10.438 12.8763 10.438C13.0253 10.438 13.1682 10.4972 13.2736 10.6025Z" fill="#3C3F43"/>
</svg>
