<svg width="24" height="21" viewBox="0 0 24 21" fill="none" xmlns="http://www.w3.org/2000/svg">
<path d="M20.7309 3.01241H17.6982L16.2092 0.778943C16.13 0.656827 16.0213 0.556681 15.893 0.487784C15.7648 0.418886 15.6213 0.383465 15.4757 0.384802H8.46875C8.3232 0.383465 8.17966 0.418886 8.05143 0.487784C7.9232 0.556681 7.81444 0.656827 7.73521 0.778943L6.24624 3.01241H3.21354C2.51755 3.01529 1.85088 3.29305 1.35873 3.7852C0.866581 4.27735 0.58882 4.94402 0.585938 5.64001V17.9022C0.58882 18.5982 0.866581 19.2648 1.35873 19.757C1.85088 20.2491 2.51755 20.5269 3.21354 20.5298H20.7309C21.4269 20.5269 22.0936 20.2491 22.5857 19.757C23.0779 19.2648 23.3556 18.5982 23.3585 17.9022V5.64001C23.3556 4.94402 23.0779 4.27735 22.5857 3.7852C22.0936 3.29305 21.4269 3.01529 20.7309 3.01241V3.01241ZM15.9136 11.3332C15.9136 12.1127 15.6825 12.8747 15.2494 13.5229C14.8163 14.1711 14.2007 14.6762 13.4805 14.9745C12.7603 15.2729 11.9679 15.3509 11.2033 15.1988C10.4387 15.0468 9.73645 14.6714 9.18523 14.1202C8.63402 13.5689 8.25863 12.8667 8.10655 12.1021C7.95447 11.3375 8.03253 10.545 8.33084 9.82485C8.62916 9.10465 9.13434 8.48909 9.7825 8.056C10.4307 7.62291 11.1927 7.39175 11.9722 7.39175C13.0176 7.39175 14.0201 7.80701 14.7592 8.54616C15.4984 9.28532 15.9136 10.2878 15.9136 11.3332Z" fill="white"/>
</svg>
