<svg width="7" height="12" viewBox="0 0 7 12" fill="none" xmlns="http://www.w3.org/2000/svg">
<path d="M6.77328 6.35403L1.14828 11.354C1.09602 11.4005 1.03398 11.4373 0.965692 11.4625C0.897408 11.4876 0.824222 11.5006 0.750313 11.5006C0.676403 11.5006 0.603217 11.4876 0.534934 11.4625C0.46665 11.4373 0.404606 11.4005 0.352344 11.354C0.300082 11.3076 0.258625 11.2524 0.230341 11.1917C0.202057 11.131 0.1875 11.066 0.1875 11.0003C0.1875 10.9346 0.202057 10.8695 0.230341 10.8088C0.258625 10.7481 0.300082 10.693 0.352344 10.6465L5.58008 6.00028L0.352344 1.35403C0.246796 1.26021 0.1875 1.13296 0.1875 1.00028C0.1875 0.867596 0.246796 0.740348 0.352344 0.646528C0.457892 0.552708 0.601046 0.5 0.750313 0.5C0.89958 0.5 1.04273 0.552708 1.14828 0.646528L6.77328 5.64653C6.82558 5.69296 6.86707 5.74811 6.89538 5.80881C6.92369 5.86951 6.93826 5.93457 6.93826 6.00028C6.93826 6.06599 6.92369 6.13105 6.89538 6.19175C6.86707 6.25245 6.82558 6.30759 6.77328 6.35403Z" fill="#3C3F43"/>
</svg>
