<svg width="24" height="24" viewBox="0 0 24 24" fill="none" xmlns="http://www.w3.org/2000/svg">
<path d="M1.3251 11.9562C1.41702 12.0252 1.52163 12.0753 1.63294 12.1039C1.74425 12.1324 1.86009 12.1387 1.97384 12.1224C2.08759 12.1062 2.19703 12.0677 2.2959 12.0091C2.39478 11.9506 2.48115 11.8732 2.5501 11.7812C3.07987 11.0749 3.76683 10.5015 4.55657 10.1067C5.34631 9.7118 6.21714 9.50623 7.1001 9.50623C7.98305 9.50623 8.85388 9.7118 9.64362 10.1067C10.4334 10.5015 11.1203 11.0749 11.6501 11.7812C11.7895 11.9667 11.9969 12.0892 12.2266 12.1218C12.4563 12.1545 12.6896 12.0945 12.8751 11.9551C12.9412 11.9059 12.9998 11.8474 13.049 11.7812C13.5788 11.0749 14.2657 10.5015 15.0555 10.1067C15.8452 9.7118 16.716 9.50623 17.599 9.50623C18.482 9.50623 19.3528 9.7118 20.1425 10.1067C20.9323 10.5015 21.6192 11.0749 22.149 11.7812C22.2884 11.9669 22.4958 12.0896 22.7256 12.1223C22.9555 12.155 23.1889 12.0951 23.3745 11.9557C23.5602 11.8163 23.6829 11.6089 23.7156 11.379C23.7483 11.1492 23.6884 10.9158 23.549 10.7301C22.7745 9.6918 21.7417 8.87429 20.5532 8.35888C21.2048 7.76403 21.6612 6.98611 21.8627 6.12719C22.0642 5.26828 22.0014 4.36851 21.6824 3.54597C21.3633 2.72343 20.8031 2.01655 20.0752 1.5181C19.3472 1.01966 18.4856 0.75293 17.6034 0.75293C16.7211 0.75293 15.8595 1.01966 15.1316 1.5181C14.4036 2.01655 13.8434 2.72343 13.5244 3.54597C13.2054 4.36851 13.1425 5.26828 13.344 6.12719C13.5455 6.98611 14.002 7.76403 14.6535 8.35888C13.7954 8.72994 13.0159 9.26113 12.3567 9.92404C11.6974 9.26113 10.9179 8.72994 10.0598 8.35888C10.7113 7.76403 11.1678 6.98611 11.3693 6.12719C11.5708 5.26828 11.5079 4.36851 11.1889 3.54597C10.8699 2.72343 10.3097 2.01655 9.58174 1.5181C8.8538 1.01966 7.99218 0.75293 7.10994 0.75293C6.22771 0.75293 5.36608 1.01966 4.63815 1.5181C3.91021 2.01655 3.34998 2.72343 3.03097 3.54597C2.71196 4.36851 2.64908 5.26828 2.85059 6.12719C3.05209 6.98611 3.50856 7.76403 4.1601 8.35888C2.96643 8.87261 1.92852 9.69065 1.1501 10.7312C1.08115 10.8232 1.03099 10.9278 1.00247 11.0391C0.973956 11.1504 0.967642 11.2662 0.983892 11.38C1.00014 11.4937 1.03864 11.6032 1.09718 11.702C1.15573 11.8009 1.23317 11.8873 1.3251 11.9562ZM17.6001 2.50622C18.1193 2.50622 18.6268 2.66018 19.0585 2.94862C19.4901 3.23706 19.8266 3.64702 20.0253 4.12668C20.224 4.60634 20.2759 5.13414 20.1747 5.64334C20.0734 6.15254 19.8234 6.62027 19.4563 6.98738C19.0891 7.35449 18.6214 7.6045 18.1122 7.70579C17.603 7.80707 17.0752 7.75509 16.5956 7.55641C16.1159 7.35773 15.7059 7.02128 15.4175 6.5896C15.1291 6.15792 14.9751 5.6504 14.9751 5.13123C14.9751 4.43503 15.2517 3.76735 15.7439 3.27507C16.2362 2.78279 16.9039 2.50622 17.6001 2.50622ZM7.1001 2.50622C7.61927 2.50622 8.12679 2.66018 8.55847 2.94862C8.99015 3.23706 9.3266 3.64702 9.52528 4.12668C9.72396 4.60634 9.77595 5.13414 9.67466 5.64334C9.57337 6.15254 9.32337 6.62027 8.95625 6.98738C8.58914 7.35449 8.12141 7.6045 7.61221 7.70579C7.10301 7.80707 6.57521 7.75509 6.09555 7.55641C5.6159 7.35773 5.20593 7.02128 4.91749 6.5896C4.62905 6.15792 4.4751 5.6504 4.4751 5.13123C4.4751 4.43503 4.75166 3.76735 5.24394 3.27507C5.73623 2.78279 6.4039 2.50622 7.1001 2.50622ZM20.5532 19.7339C21.2048 19.139 21.6612 18.3611 21.8627 17.5022C22.0642 16.6433 22.0014 15.7435 21.6824 14.921C21.3633 14.0984 20.8031 13.3915 20.0752 12.8931C19.3472 12.3947 18.4856 12.1279 17.6034 12.1279C16.7211 12.1279 15.8595 12.3947 15.1316 12.8931C14.4036 13.3915 13.8434 14.0984 13.5244 14.921C13.2054 15.7435 13.1425 16.6433 13.344 17.5022C13.5455 18.3611 14.002 19.139 14.6535 19.7339C13.7954 20.1049 13.0159 20.6361 12.3567 21.299C11.6974 20.6361 10.9179 20.1049 10.0598 19.7339C10.7113 19.139 11.1678 18.3611 11.3693 17.5022C11.5708 16.6433 11.5079 15.7435 11.1889 14.921C10.8699 14.0984 10.3097 13.3915 9.58174 12.8931C8.8538 12.3947 7.99218 12.1279 7.10994 12.1279C6.22771 12.1279 5.36608 12.3947 4.63815 12.8931C3.91021 13.3915 3.34998 14.0984 3.03097 14.921C2.71196 15.7435 2.64908 16.6433 2.85059 17.5022C3.05209 18.3611 3.50856 19.139 4.1601 19.7339C2.96643 20.2476 1.92852 21.0656 1.1501 22.1062C1.08115 22.1982 1.03099 22.3028 1.00247 22.4141C0.973956 22.5254 0.967642 22.6412 0.983892 22.755C1.00014 22.8687 1.03864 22.9782 1.09718 23.077C1.15573 23.1759 1.23317 23.2623 1.3251 23.3312C1.41702 23.4002 1.52163 23.4503 1.63294 23.4788C1.74425 23.5074 1.86009 23.5137 1.97384 23.4974C2.08759 23.4812 2.19703 23.4427 2.2959 23.3841C2.39478 23.3256 2.48115 23.2482 2.5501 23.1562C3.07987 22.4499 3.76683 21.8765 4.55657 21.4817C5.34631 21.0868 6.21714 20.8812 7.1001 20.8812C7.98305 20.8812 8.85388 21.0868 9.64362 21.4817C10.4334 21.8765 11.1203 22.4499 11.6501 23.1562C11.7895 23.3417 11.9969 23.4642 12.2266 23.4968C12.4563 23.5295 12.6896 23.4695 12.8751 23.3301C12.9412 23.2809 12.9998 23.2224 13.049 23.1562C13.5788 22.4499 14.2657 21.8765 15.0555 21.4817C15.8452 21.0868 16.716 20.8812 17.599 20.8812C18.482 20.8812 19.3528 21.0868 20.1425 21.4817C20.9323 21.8765 21.6192 22.4499 22.149 23.1562C22.2884 23.3419 22.4958 23.4646 22.7256 23.4973C22.9555 23.53 23.1889 23.4701 23.3745 23.3307C23.5602 23.1913 23.6829 22.9839 23.7156 22.754C23.7483 22.5242 23.6884 22.2908 23.549 22.1051C22.7745 21.0668 21.7417 20.2493 20.5532 19.7339ZM7.1001 13.8812C7.61927 13.8812 8.12679 14.0352 8.55847 14.3236C8.99015 14.6121 9.3266 15.022 9.52528 15.5017C9.72396 15.9813 9.77595 16.5091 9.67466 17.0183C9.57337 17.5275 9.32337 17.9953 8.95625 18.3624C8.58914 18.7295 8.12141 18.9795 7.61221 19.0808C7.10301 19.1821 6.57521 19.1301 6.09555 18.9314C5.6159 18.7327 5.20593 18.3963 4.91749 17.9646C4.62905 17.5329 4.4751 17.0254 4.4751 16.5062C4.4751 15.81 4.75166 15.1424 5.24394 14.6501C5.73623 14.1578 6.4039 13.8812 7.1001 13.8812ZM17.6001 13.8812C18.1193 13.8812 18.6268 14.0352 19.0585 14.3236C19.4901 14.6121 19.8266 15.022 20.0253 15.5017C20.224 15.9813 20.2759 16.5091 20.1747 17.0183C20.0734 17.5275 19.8234 17.9953 19.4563 18.3624C19.0891 18.7295 18.6214 18.9795 18.1122 19.0808C17.603 19.1821 17.0752 19.1301 16.5956 18.9314C16.1159 18.7327 15.7059 18.3963 15.4175 17.9646C15.1291 17.5329 14.9751 17.0254 14.9751 16.5062C14.9751 15.81 15.2517 15.1424 15.7439 14.6501C16.2362 14.1578 16.9039 13.8812 17.6001 13.8812Z" fill=""/>
</svg>
