<svg width="16" height="16" viewBox="0 0 16 16" fill="none" xmlns="http://www.w3.org/2000/svg">
<path d="M0.671208 0.573541C0.112201 1.13255 0.112201 2.03886 0.671208 2.59786L5.80299 7.72962L0.671208 12.8615C0.112201 13.4205 0.112201 14.3268 0.671208 14.8858C1.2302 15.4448 2.13652 15.4448 2.69551 14.8858L7.82729 9.75391L12.9592 14.8858C13.5181 15.4448 14.4245 15.4448 14.9835 14.8858C15.5424 14.3268 15.5424 13.4205 14.9835 12.8615L9.85158 7.72962L14.9835 2.59788C15.5424 2.03888 15.5424 1.13256 14.9835 0.57357C14.4243 0.0145632 13.5181 0.0145632 12.9592 0.57357L7.82729 5.70533L2.69551 0.573541C2.13652 0.0145488 1.2302 0.0145488 0.671208 0.573541Z" fill="#C4C4C4"/>
</svg>
