<svg width="24" height="24" viewBox="0 0 24 24" fill="none" xmlns="http://www.w3.org/2000/svg">
<path fill-rule="evenodd" clip-rule="evenodd" d="M20.3252 18.2636V16.2381C20.3252 15.7366 20.5244 15.2556 20.8791 14.9009L22.3114 13.4686C23.0499 12.7301 23.0499 11.5326 22.3114 10.7941L20.8791 9.36184C20.5244 9.00717 20.3252 8.52616 20.3252 8.0246V5.99764C20.3252 4.9532 19.4784 4.10651 18.434 4.10651H16.4071C15.9055 4.10651 15.4245 3.90725 15.0698 3.5526L13.6375 2.1203C12.899 1.38178 11.7016 1.38178 10.9631 2.1203L9.53078 3.5526C9.1761 3.90725 8.69509 4.10651 8.19355 4.10651H6.16658C5.66476 4.10651 5.18351 4.30596 4.82882 4.66094C4.47412 5.01593 4.27506 5.49733 4.27545 5.99915V8.0246C4.27545 8.52616 4.0762 9.00717 3.72155 9.36184L2.28924 10.7941C1.55072 11.5326 1.55072 12.7301 2.28924 13.4686L3.72155 14.9009C4.0762 15.2556 4.27545 15.7366 4.27545 16.2381V18.2636C4.27545 19.308 5.12215 20.1547 6.16658 20.1547H8.19355C8.69509 20.1547 9.1761 20.3539 9.53078 20.7086L10.9631 22.1409C11.7016 22.8794 12.899 22.8794 13.6375 22.1409L15.0698 20.7086C15.4245 20.3539 15.9055 20.1547 16.4071 20.1547H18.4325C18.9344 20.1552 19.4157 19.9561 19.7706 19.6012C20.1256 19.2466 20.3252 18.7654 20.3252 18.2636Z" stroke="" stroke-width="2" stroke-linecap="round" stroke-linejoin="round"/>
<path fill-rule="evenodd" clip-rule="evenodd" d="M8.19786 10.0795C7.78301 9.66475 7.6589 9.04091 7.88339 8.49891C8.10788 7.95691 8.63673 7.60352 9.22339 7.60352C9.81004 7.60352 10.3389 7.95691 10.5635 8.49891C10.7879 9.04091 10.6638 9.66475 10.2489 10.0795C9.68251 10.6459 8.76426 10.6459 8.19786 10.0795Z" stroke="" stroke-width="2" stroke-linecap="round" stroke-linejoin="round"/>
<path fill-rule="evenodd" clip-rule="evenodd" d="M14.3517 16.2339C13.9368 15.819 13.8127 15.1953 14.0372 14.6533C14.2617 14.1111 14.7906 13.7578 15.3773 13.7578C15.9639 13.7578 16.4928 14.1111 16.7172 14.6533C16.9418 15.1953 16.8176 15.819 16.4028 16.2339C15.8364 16.8002 14.9181 16.8002 14.3517 16.2339Z" stroke="" stroke-width="2" stroke-linecap="round"/>
<path d="M16.4027 8.02832L8.19678 16.2358" stroke="" stroke-width="2" stroke-linecap="round"/>
</svg>
