<svg width="86" height="81" viewBox="0 0 86 81" fill="none" xmlns="http://www.w3.org/2000/svg">
<g clip-path="url(#clip0_931_49594)">
<path d="M85.9015 40.4996L81.9651 45.3402L84.4634 50.9834L79.3431 54.6859L80.2131 60.7535L74.2592 63.0609L73.4541 69.1376L67.0774 69.9048L64.656 75.5785L58.2879 74.7495L54.4034 79.6288L48.4815 77.248L43.4019 80.9992L38.3223 77.248L32.4004 79.6288L28.5159 74.7495L22.1478 75.5785L19.7265 69.9048L13.3497 69.1376L12.5446 63.0609L6.59074 60.7535L7.46069 54.6851L2.34044 50.9834L4.8396 45.3402L0.902344 40.4996L4.8396 35.659L2.34044 30.0158L7.46069 26.3141L6.59074 20.2457L12.5446 17.9383L13.3506 11.8616L19.7273 11.0944L22.1487 5.42071L28.5159 6.24972L32.4004 1.37042L38.3223 3.75198L43.4019 0L48.4815 3.75198L54.4034 1.37042L58.2888 6.24972L64.656 5.42071L67.0774 11.0944L73.4541 11.8624L74.2592 17.9391L80.2131 20.2465L79.3431 26.3141L84.4634 30.0158L81.9651 35.659L85.9015 40.4996Z" fill="#06B0BA"/>
<path d="M35.4704 56.4803L25.9805 47.4362L29.5243 44.0591L35.2827 49.5466L57.1906 26.3887L60.9134 29.5861L35.4704 56.4803Z" fill="white"/>
</g>
<defs>
<clipPath id="clip0_931_49594">
<rect width="85" height="81" fill="white" transform="translate(0.902344)"/>
</clipPath>
</defs>
</svg>
