<svg width="7" height="5" viewBox="0 0 7 5" fill="none" xmlns="http://www.w3.org/2000/svg">
<mask id="path-1-inside-1_1667_4969" fill="white">
<path d="M6.72471 2.25434V4.23811C6.72471 4.30388 6.70022 4.36695 6.65662 4.41345C6.61302 4.45996 6.55389 4.48608 6.49224 4.48608H4.63245C4.5708 4.48608 4.51166 4.45996 4.46807 4.41345C4.42447 4.36695 4.39998 4.30388 4.39998 4.23811C4.39998 4.17235 4.42447 4.10927 4.46807 4.06277C4.51166 4.01627 4.5708 3.99014 4.63245 3.99014H5.9311L3.70256 1.61303L2.70467 2.67775C2.68308 2.70081 2.65744 2.7191 2.62922 2.73158C2.60099 2.74406 2.57074 2.75048 2.54019 2.75048C2.50964 2.75048 2.47939 2.74406 2.45117 2.73158C2.42295 2.7191 2.39731 2.70081 2.37572 2.67775L0.28346 0.44601C0.239838 0.399481 0.215332 0.336373 0.215332 0.27057C0.215332 0.204768 0.239838 0.14166 0.28346 0.0951303C0.327081 0.0486008 0.386244 0.0224609 0.447934 0.0224609C0.509624 0.0224609 0.568788 0.0486008 0.612409 0.0951303L2.54019 2.15174L3.53808 1.08702C3.55967 1.06396 3.58531 1.04567 3.61353 1.03319C3.64176 1.02071 3.67201 1.01429 3.70256 1.01429C3.73311 1.01429 3.76336 1.02071 3.79158 1.03319C3.8198 1.04567 3.84544 1.06396 3.86703 1.08702L6.25976 3.63957V2.25434C6.25976 2.18857 6.28426 2.1255 6.32785 2.079C6.37145 2.03249 6.43058 2.00637 6.49224 2.00637C6.55389 2.00637 6.61302 2.03249 6.65662 2.079C6.70022 2.1255 6.72471 2.18857 6.72471 2.25434Z"/>
</mask>
<path d="M6.72471 2.25434V4.23811C6.72471 4.30388 6.70022 4.36695 6.65662 4.41345C6.61302 4.45996 6.55389 4.48608 6.49224 4.48608H4.63245C4.5708 4.48608 4.51166 4.45996 4.46807 4.41345C4.42447 4.36695 4.39998 4.30388 4.39998 4.23811C4.39998 4.17235 4.42447 4.10927 4.46807 4.06277C4.51166 4.01627 4.5708 3.99014 4.63245 3.99014H5.9311L3.70256 1.61303L2.70467 2.67775C2.68308 2.70081 2.65744 2.7191 2.62922 2.73158C2.60099 2.74406 2.57074 2.75048 2.54019 2.75048C2.50964 2.75048 2.47939 2.74406 2.45117 2.73158C2.42295 2.7191 2.39731 2.70081 2.37572 2.67775L0.28346 0.44601C0.239838 0.399481 0.215332 0.336373 0.215332 0.27057C0.215332 0.204768 0.239838 0.14166 0.28346 0.0951303C0.327081 0.0486008 0.386244 0.0224609 0.447934 0.0224609C0.509624 0.0224609 0.568788 0.0486008 0.612409 0.0951303L2.54019 2.15174L3.53808 1.08702C3.55967 1.06396 3.58531 1.04567 3.61353 1.03319C3.64176 1.02071 3.67201 1.01429 3.70256 1.01429C3.73311 1.01429 3.76336 1.02071 3.79158 1.03319C3.8198 1.04567 3.84544 1.06396 3.86703 1.08702L6.25976 3.63957V2.25434C6.25976 2.18857 6.28426 2.1255 6.32785 2.079C6.37145 2.03249 6.43058 2.00637 6.49224 2.00637C6.55389 2.00637 6.61302 2.03249 6.65662 2.079C6.70022 2.1255 6.72471 2.18857 6.72471 2.25434Z" fill="#FF5252"/>
<path d="M5.9311 3.99014V4.48608H7.07585L6.29291 3.65095L5.9311 3.99014ZM3.70256 1.61303L4.06437 1.27383L3.70251 0.887844L3.3407 1.27388L3.70256 1.61303ZM2.70467 2.67775L2.34281 2.33861L2.34267 2.33876L2.70467 2.67775ZM2.37572 2.67775L2.73771 2.33876L2.73753 2.33856L2.37572 2.67775ZM0.28346 0.44601L0.645268 0.106814L0.645268 0.106814L0.28346 0.44601ZM0.612409 0.0951303L0.974243 -0.244038L0.974218 -0.244065L0.612409 0.0951303ZM2.54019 2.15174L2.17836 2.49091L2.54022 2.87695L2.90205 2.49089L2.54019 2.15174ZM3.53808 1.08702L3.89994 1.42616L3.90008 1.42601L3.53808 1.08702ZM3.86703 1.08702L3.50504 1.42601L3.5052 1.42619L3.86703 1.08702ZM6.25976 3.63957L5.89793 3.97874L6.75571 4.89381V3.63957H6.25976ZM6.22877 2.25434V4.23811H7.22065V2.25434H6.22877ZM6.22877 4.23811C6.22877 4.1823 6.24925 4.12286 6.29481 4.07426L7.01843 4.75265C7.15118 4.61105 7.22065 4.42545 7.22065 4.23811H6.22877ZM6.29481 4.07426C6.34139 4.02458 6.41165 3.99014 6.49224 3.99014V4.98203C6.69613 4.98203 6.88466 4.89534 7.01843 4.75265L6.29481 4.07426ZM6.49224 3.99014H4.63245V4.98203H6.49224V3.99014ZM4.63245 3.99014C4.71303 3.99014 4.7833 4.02458 4.82988 4.07426L4.10626 4.75265C4.24003 4.89534 4.42856 4.98203 4.63245 4.98203V3.99014ZM4.82988 4.07426C4.87543 4.12286 4.89592 4.1823 4.89592 4.23811H3.90403C3.90403 4.42545 3.97351 4.61105 4.10626 4.75265L4.82988 4.07426ZM4.89592 4.23811C4.89592 4.29392 4.87543 4.35337 4.82988 4.40197L4.10626 3.72357C3.97351 3.86518 3.90403 4.05077 3.90403 4.23811H4.89592ZM4.82988 4.40197C4.7833 4.45165 4.71303 4.48608 4.63245 4.48608V3.4942C4.42856 3.4942 4.24003 3.58089 4.10626 3.72357L4.82988 4.40197ZM4.63245 4.48608H5.9311V3.4942H4.63245V4.48608ZM6.29291 3.65095L4.06437 1.27383L3.34075 1.95222L5.5693 4.32934L6.29291 3.65095ZM3.3407 1.27388L2.34281 2.33861L3.06653 3.0169L4.06442 1.95217L3.3407 1.27388ZM2.34267 2.33876C2.36554 2.31433 2.39445 2.29312 2.42865 2.278L2.82978 3.18516C2.92042 3.14507 3.00061 3.08728 3.06666 3.01675L2.34267 2.33876ZM2.42865 2.278C2.46296 2.26283 2.50096 2.25454 2.54019 2.25454V3.24642C2.64053 3.24642 2.73903 3.22528 2.82978 3.18516L2.42865 2.278ZM2.54019 2.25454C2.57942 2.25454 2.61743 2.26283 2.65173 2.278L2.25061 3.18516C2.34135 3.22528 2.43986 3.24642 2.54019 3.24642V2.25454ZM2.65173 2.278C2.68593 2.29312 2.71484 2.31433 2.73771 2.33876L2.01372 3.01675C2.07977 3.08728 2.15996 3.14507 2.25061 3.18516L2.65173 2.278ZM2.73753 2.33856L0.645268 0.106814L-0.078349 0.785206L2.01391 3.01695L2.73753 2.33856ZM0.645268 0.106814C0.690802 0.155384 0.711275 0.214798 0.711275 0.27057L-0.280611 0.27057C-0.280611 0.457947 -0.211126 0.643577 -0.078349 0.785206L0.645268 0.106814ZM0.711275 0.27057C0.711275 0.326342 0.690802 0.385756 0.645268 0.434326L-0.078349 -0.244065C-0.211126 -0.102437 -0.280611 0.0831931 -0.280611 0.27057L0.711275 0.27057ZM0.645268 0.434326C0.598718 0.48398 0.528483 0.518404 0.447934 0.518404L0.447934 -0.473482C0.244006 -0.473482 0.0554441 -0.386778 -0.078349 -0.244065L0.645268 0.434326ZM0.447934 0.518404C0.367386 0.518404 0.297151 0.48398 0.2506 0.434326L0.974218 -0.244065C0.840425 -0.386778 0.651863 -0.473482 0.447934 -0.473482L0.447934 0.518404ZM0.250575 0.434299L2.17836 2.49091L2.90203 1.81257L0.974243 -0.244038L0.250575 0.434299ZM2.90205 2.49089L3.89994 1.42616L3.17623 0.747873L2.17833 1.8126L2.90205 2.49089ZM3.90008 1.42601C3.87721 1.45043 3.8483 1.47165 3.8141 1.48677L3.41297 0.579612C3.32233 0.619693 3.24214 0.677486 3.17609 0.748021L3.90008 1.42601ZM3.8141 1.48677C3.7798 1.50194 3.74179 1.51023 3.70256 1.51023V0.518346C3.60222 0.518346 3.50371 0.539489 3.41297 0.579612L3.8141 1.48677ZM3.70256 1.51023C3.66332 1.51023 3.62532 1.50194 3.59102 1.48677L3.99214 0.579612C3.9014 0.539489 3.8029 0.518346 3.70256 0.518346V1.51023ZM3.59102 1.48677C3.55682 1.47165 3.52791 1.45043 3.50504 1.42601L4.22903 0.748021C4.16298 0.677486 4.08279 0.619693 3.99214 0.579612L3.59102 1.48677ZM3.5052 1.42619L5.89793 3.97874L6.62159 3.3004L4.22886 0.747842L3.5052 1.42619ZM6.75571 3.63957V2.25434H5.76382V3.63957H6.75571ZM6.75571 2.25434C6.75571 2.31015 6.73522 2.3696 6.68966 2.41819L5.96604 1.7398C5.83329 1.88141 5.76382 2.067 5.76382 2.25434H6.75571ZM6.68966 2.41819C6.64309 2.46787 6.57282 2.50231 6.49224 2.50231V1.51043C6.28834 1.51043 6.09981 1.59712 5.96604 1.7398L6.68966 2.41819ZM6.49224 2.50231C6.41165 2.50231 6.34139 2.46787 6.29481 2.41819L7.01843 1.7398C6.88466 1.59712 6.69613 1.51043 6.49224 1.51043V2.50231ZM6.29481 2.41819C6.24925 2.3696 6.22877 2.31015 6.22877 2.25434H7.22065C7.22065 2.067 7.15118 1.88141 7.01843 1.7398L6.29481 2.41819Z" fill="#FF5252" mask="url(#path-1-inside-1_1667_4969)"/>
</svg>
