<svg width="19" height="16" viewBox="0 0 19 16" fill="none" xmlns="http://www.w3.org/2000/svg">
<path d="M6.44513 5.19259L4.93115 7.09549L6.76955 10.2885L10.194 9.03065L11.7801 4.93457L6.44513 5.19259Z" fill="#E69329"/>
<path d="M6.12075 14.255C7.67359 14.255 8.93242 13.1287 8.93242 11.7393C8.93242 10.35 7.67359 9.22363 6.12075 9.22363C4.56791 9.22363 3.30908 10.35 3.30908 11.7393C3.30908 13.1287 4.56791 14.255 6.12075 14.255Z" fill="#06B0BA"/>
<path d="M6.12119 8.83691C4.31883 8.83691 2.87695 10.127 2.87695 11.7396C2.87695 13.3523 4.31883 14.6424 6.12119 14.6424C7.92354 14.6424 9.36542 13.3523 9.36542 11.7396C9.36542 10.127 7.92354 8.83691 6.12119 8.83691ZM6.12119 13.9973C4.71535 13.9973 3.59789 12.9975 3.59789 11.7396C3.59789 10.4818 4.71535 9.48197 6.12119 9.48197C7.52702 9.48197 8.64448 10.4818 8.64448 11.7396C8.64448 12.9975 7.52702 13.9973 6.12119 13.9973Z" fill="#00676D"/>
<path d="M5.76074 10.7725H6.48168V13.3527H5.76074V10.7725Z" fill="#00676D"/>
<path d="M5.36364 11.7382C5.72411 12.351 6.51714 12.609 7.20204 12.2865L13.1498 9.54501C13.5103 9.38375 13.7626 9.15798 13.9428 8.93221C14.5556 7.90013 15.9615 5.48118 16.8987 3.38477L10.3381 6.19074L8.60787 8.51293L6.15667 9.67402C5.21945 10.0933 4.93107 11.0286 5.36364 11.7382Z" fill="#FFB74D"/>
<path d="M11.5998 1.0957L5.65203 3.12762C5.3997 3.19212 5.11132 3.45014 4.85899 3.67591L2.84036 6.09486C2.47989 6.57865 2.4078 7.19144 2.66013 7.73974C2.80431 8.06226 3.27293 8.83633 3.77758 9.70715C4.35434 9.15885 5.18342 8.83633 6.12064 8.83633C6.26483 8.83633 6.44506 8.83633 6.58925 8.86858L5.83226 7.51397L7.49043 6.19161H10.3742C10.3742 6.19161 15.9615 5.48206 16.9347 3.38564L11.5998 1.0957Z" fill="#FFB74D"/>
<path d="M7.2747 11.7393C6.80609 11.9328 6.26538 11.7393 6.08514 11.32C5.86886 10.9007 6.08515 10.4169 6.55376 10.2556C6.98632 10.0621 7.70726 11.5458 7.2747 11.7393Z" fill="#FFCDD2"/>
</svg>
