<svg width="18" height="17" viewBox="0 0 18 17" fill="none" xmlns="http://www.w3.org/2000/svg">
<path d="M8.79512 0.932617C6.56844 0.932617 4.43296 1.75263 2.85846 3.21226C1.28396 4.6719 0.399414 6.65159 0.399414 8.71582C0.399471 9.73793 0.61669 10.75 1.03867 11.6943C1.46064 12.6386 2.07911 13.4966 2.85877 14.2193C3.63842 14.942 4.56399 15.5152 5.58263 15.9063C6.60126 16.2974 7.69302 16.4987 8.79556 16.4986C9.8981 16.4986 10.9898 16.2972 12.0084 15.906C13.027 15.5148 13.9525 14.9415 14.7321 14.2187C15.5117 13.4959 16.13 12.6379 16.5519 11.6935C16.9738 10.7492 17.1909 9.73711 17.1908 8.71501C17.1908 4.41722 13.4311 0.932617 8.79512 0.932617ZM8.79512 14.8767C7.91592 14.8861 7.04345 14.7336 6.22826 14.4282C5.41306 14.1227 4.67134 13.6704 4.04606 13.0973C3.42077 12.5243 2.92435 11.8419 2.58554 11.0897C2.24673 10.3375 2.07228 9.53053 2.07228 8.71542C2.07228 7.9003 2.24673 7.09329 2.58554 6.34112C2.92435 5.58895 3.42077 4.90657 4.04606 4.33352C4.67134 3.76046 5.41306 3.30811 6.22826 3.00267C7.04345 2.69723 7.91592 2.54477 8.79512 2.55412C9.67432 2.54477 10.5468 2.69723 11.362 3.00267C12.1772 3.30811 12.9189 3.76046 13.5442 4.33352C14.1695 4.90657 14.6659 5.58895 15.0047 6.34112C15.3435 7.09329 15.518 7.9003 15.518 8.71542C15.518 9.53053 15.3435 10.3375 15.0047 11.0897C14.6659 11.8419 14.1695 12.5243 13.5442 13.0973C12.9189 13.6704 12.1772 14.1227 11.362 14.4282C10.5468 14.7336 9.67432 14.8861 8.79512 14.8767ZM6.60961 8.51313C7.33374 8.51313 7.92057 7.87831 7.92057 7.09432C7.92057 6.31032 7.33287 5.67551 6.60874 5.67551C5.88461 5.67551 5.29691 6.31032 5.29691 7.09432C5.29691 7.87831 5.88461 8.51313 6.60961 8.51313ZM10.9815 8.51313C11.7065 8.51313 12.2933 7.87831 12.2933 7.09432C12.2933 6.31032 11.7056 5.67551 10.9815 5.67551C10.2574 5.67551 9.66967 6.31113 9.66967 7.09432C9.66967 7.8775 10.2574 8.51313 10.9815 8.51313ZM12.5916 9.79898C12.4372 9.72679 12.2585 9.71352 12.0937 9.76202C11.9289 9.81051 11.7912 9.91692 11.71 10.0584C11.6803 10.1119 10.95 11.3499 8.79599 11.3499C6.65247 11.3499 5.91784 10.1233 5.88111 10.0592C5.80248 9.91527 5.66538 9.80617 5.49998 9.75592C5.33457 9.70567 5.15441 9.71839 4.99912 9.79128C4.84384 9.86417 4.72614 9.99127 4.67194 10.1446C4.61773 10.2979 4.63145 10.465 4.71008 10.6089C4.75381 10.6892 5.80153 12.5661 8.79599 12.5661C11.7913 12.5661 12.8373 10.6884 12.8802 10.6081C12.9572 10.4653 12.9701 10.3 12.916 10.1483C12.8619 9.99669 12.7453 9.87108 12.5916 9.79898Z" fill="black"/>
</svg>
