<svg width="276" height="278" viewBox="0 0 276 278" fill="none" xmlns="http://www.w3.org/2000/svg">
<path d="M180.138 186.836L179.497 178.179L125.371 180.836V189.225C125.371 189.225 113.196 200.808 108.394 277.891H205.821C205.821 277.891 216.507 209.647 180.138 186.836Z" fill="#06B0BA"/>
<path d="M125.38 189.2L180.138 186.837" stroke="black" stroke-width="1.55" stroke-miterlimit="10"/>
<path d="M136.568 224.737L147.783 229.308L153.788 277.866" stroke="black" stroke-width="1.55" stroke-miterlimit="10"/>
<path d="M66.2001 170.067L81.153 120.722L114.035 133.049L98.2518 180.343C96.8391 184.532 93.8362 187.998 89.8913 189.991C85.9465 191.984 81.3765 192.345 77.1679 190.995C72.9594 189.646 69.4502 186.695 67.3981 182.779C65.3461 178.863 64.9158 174.297 66.2001 170.067Z" fill="#F26E5A"/>
<path d="M89.2702 94.2924C89.9425 92.0124 91.0632 89.8897 92.5666 88.0488C94.0699 86.208 95.9257 84.686 98.0249 83.5724C100.124 82.4587 102.425 81.7757 104.791 81.5635C107.158 81.3512 109.543 81.6141 111.807 82.3365C114.07 83.0589 116.167 84.2264 117.974 85.7705C119.78 87.3145 121.261 89.204 122.328 91.3281C123.394 93.4522 124.026 95.768 124.187 98.1398C124.347 100.512 124.032 102.891 123.26 105.14L114.045 132.981L81.1621 120.653L89.2702 94.2924Z" fill="#00676D"/>
<path d="M91.5975 166.345L54.0336 95.0888C54.0336 95.0888 54.899 82.2157 33.5168 81.4452C33.2312 81.4452 32.937 81.4019 32.6514 81.4019H25.5125C24.8651 81.3887 24.2344 81.6088 23.7357 82.022C23.2369 82.4352 22.9032 83.0139 22.7954 83.6528C22.7367 84.002 22.7501 84.3596 22.8347 84.7036C22.9193 85.0475 23.0733 85.3705 23.2873 85.6527C23.5013 85.9348 23.7707 86.1702 24.0789 86.3444C24.3872 86.5186 24.7278 86.6278 25.0798 86.6654L32.288 87.687L22.4839 90.2841L20.6494 90.9593L7.29739 82.1378C6.8424 81.8112 6.27857 81.6739 5.72447 81.7547C5.17037 81.8355 4.66915 82.1281 4.32622 82.5709C3.9833 83.0138 3.82538 83.5724 3.88566 84.1294C3.94595 84.6863 4.21974 85.1982 4.64948 85.5573C5.51481 86.2499 6.80415 87.384 8.24924 88.6392L5.29847 86.9078C4.81767 86.5944 4.23213 86.4849 3.67064 86.6034C3.10915 86.722 2.61772 87.0588 2.30445 87.5398C1.99119 88.0208 1.88175 88.6066 2.00021 89.1684C2.11867 89.7301 2.45534 90.2217 2.93614 90.5351L5.53212 92.3878L4.51104 91.9895C3.96734 91.7534 3.35924 91.7105 2.78781 91.868C2.21637 92.0255 1.71602 92.3739 1.3699 92.8552C1.15343 93.1669 1.00937 93.523 0.948261 93.8976C0.887156 94.2722 0.910549 94.6557 1.01674 95.02C1.12292 95.3844 1.30921 95.7203 1.56196 96.0034C1.81471 96.2864 2.12754 96.5092 2.47752 96.6557L17.0669 102.768C19.585 103.824 21.9993 104.499 24.9587 103.78L37.9386 100.707L67.0914 182.188L91.5975 166.345Z" fill="#F26E5A"/>
<path d="M76.1855 137.102L83.1341 150.286" stroke="#DB5749" stroke-width="1.5" stroke-miterlimit="10"/>
<path d="M118.509 81.8696L104.543 82.9171C104.543 82.9171 84.329 110.334 125.371 180.811L179.498 178.154L183.573 102.231L176.893 80.6836H152.612L118.509 81.8696Z" fill="#00676D"/>
<path d="M102.665 128.73C102.665 128.73 98.6325 120.255 101.22 101.486" stroke="#FCE7E4" stroke-width="1.55" stroke-miterlimit="10"/>
<path d="M228.293 160.129L205.795 113.692L175.231 131.007L198.223 175.261C200.25 179.214 203.756 182.205 207.978 183.582C212.199 184.96 216.794 184.613 220.761 182.617C224.728 180.621 227.745 177.137 229.156 172.925C230.567 168.713 230.257 164.113 228.293 160.129Z" fill="#F26E5A"/>
<path d="M193.689 88.9161C192.651 86.7966 191.203 84.9039 189.43 83.3476C187.656 81.7914 185.592 80.6024 183.356 79.8496C181.12 79.0967 178.757 78.7949 176.404 78.9616C174.051 79.1283 171.754 79.7601 169.647 80.8207C167.539 81.8812 165.663 83.3493 164.126 85.14C162.589 86.9307 161.423 89.0086 160.694 91.2532C159.965 93.4979 159.689 95.8649 159.88 98.2173C160.072 100.57 160.728 102.861 161.81 104.958L175.257 131.015L205.82 113.701L193.689 88.9161Z" fill="#00676D"/>
<path d="M175.266 131.017L164.155 109.495" stroke="#FCE7E4" stroke-width="1.55" stroke-miterlimit="10"/>
<path d="M275.211 80.6838C274.86 80.2105 274.361 79.8682 273.794 79.7114C273.226 79.5545 272.622 79.592 272.078 79.8181L265.545 82.3632L271.68 77.169C272.184 76.7618 272.518 76.1807 272.616 75.54C272.713 74.8993 272.568 74.2452 272.208 73.7062C272.004 73.4252 271.746 73.1881 271.448 73.0089C271.151 72.8297 270.82 72.7119 270.477 72.6627C270.133 72.6134 269.783 72.6337 269.447 72.7222C269.111 72.8108 268.797 72.9658 268.522 73.1781L262.819 77.775L267.7 71.3774C268.096 70.8741 268.292 70.2421 268.25 69.6029C268.209 68.9637 267.933 68.3624 267.475 67.9146C267.22 67.6757 266.918 67.4922 266.588 67.3756C266.259 67.259 265.909 67.2119 265.56 67.2371C265.212 67.2623 264.872 67.3593 264.563 67.5221C264.253 67.6849 263.981 67.9099 263.763 68.183L254.158 78.1559L244.353 75.5588L251.562 74.5372C251.91 74.4937 252.247 74.381 252.551 74.2056C252.856 74.0302 253.122 73.7957 253.335 73.5159C253.548 73.2361 253.703 72.9166 253.791 72.5761C253.878 72.2357 253.897 71.8811 253.846 71.5332C253.737 70.8952 253.402 70.3175 252.904 69.9046C252.406 69.4917 251.776 69.271 251.129 69.2824H243.981C239.764 69.2482 235.682 70.7709 232.516 73.559L232.36 73.6715C227.981 77.1344 229.574 84.2159 229.574 84.2159L202.653 160.467L229.331 172.31L244.7 90.423H254.521C255.128 90.4749 255.739 90.4749 256.347 90.423H256.451C257.513 90.3275 258.555 90.0707 259.54 89.6611L274.129 84.4669C274.468 84.3103 274.769 84.0824 275.012 83.7988C275.255 83.5151 275.434 83.1824 275.537 82.8233C275.639 82.4642 275.663 82.0872 275.607 81.718C275.551 81.3487 275.416 80.996 275.211 80.6838Z" fill="#F26E5A"/>
<path d="M213.098 128.729L207.283 149.039" stroke="#DB5749" stroke-width="1.5" stroke-miterlimit="10"/>
<path d="M117.427 18.9672C115.74 20.1272 104.447 23.062 104.231 25.105C104.231 25.105 107.943 39.6229 104.144 42.3326C93.8644 49.6565 90.5762 64.0185 90.5762 64.0185C90.5762 64.0185 117.696 84.3627 189.82 63.0057C189.82 63.0057 190.686 54.3486 177.576 48.0895C173.763 46.3682 170.564 43.5269 168.404 39.9432C167.155 37.9458 166.365 35.6955 166.093 33.3552C164.847 26.2304 145.204 -0.095705 117.427 18.9672Z" fill="black"/>
<path d="M118.492 40.73C118.613 42.4387 118.224 44.145 117.376 45.6327C116.527 47.1205 115.256 48.3229 113.724 49.0878C112.192 49.8527 110.468 50.1456 108.769 49.9296C107.07 49.7136 105.474 48.9983 104.182 47.8742C102.89 46.7501 101.96 45.2678 101.511 43.615C101.061 41.9621 101.112 40.2129 101.656 38.5888C102.201 36.9647 103.215 35.5387 104.569 34.4914C105.924 33.444 107.559 32.8223 109.268 32.7049C111.554 32.5479 113.809 33.3046 115.539 34.8091C117.268 36.3136 118.33 38.443 118.492 40.73Z" fill="#DB5749"/>
<path d="M122.395 61.9149L123.589 80.7181C123.995 87.3234 126.695 91.8251 133.194 91.3749C138.741 90.9853 145.308 86.5443 145.637 80.9864L142.332 51.4658L122.395 61.9149Z" fill="#F26E5A"/>
<path d="M118.509 81.8696L152.612 80.6836C152.612 80.6836 151.79 97.4697 131.498 95.8941C117.428 94.8033 118.509 81.8696 118.509 81.8696Z" fill="#F26E5A"/>
<path d="M123.381 77.411L145.195 56.0713L122.238 59.9843L123.381 77.411Z" fill="#DB5749"/>
<path d="M128.114 64.9538C117.012 64.9538 107.839 56.2362 107.502 47.1636L106.853 25.746C106.653 20.2751 108.587 14.9408 112.246 10.87C115.905 6.79915 121.002 4.31064 126.461 3.93015C138.074 3.12504 150.18 11.7215 150.993 23.3739L151.331 40.6015C151.59 53.9247 141.405 64.0275 128.114 64.9538Z" fill="#F26E5A"/>
<path d="M119.158 39.6221L118.518 44.9375L121.261 45.0414" stroke="black" stroke-width="1.24" stroke-linecap="round" stroke-linejoin="round"/>
<path d="M130.114 26.6449C130.114 26.6449 123.979 26.1428 123.918 28.636C123.918 28.636 123.918 30.3675 129.274 30.6618C134.631 30.9561 136.024 30.6098 136.517 29.0169C137.01 27.424 133.004 26.6622 130.114 26.6449Z" fill="black"/>
<path d="M112.34 30.2896C112.34 30.2896 116.986 29.9173 117.419 32.1682C117.419 32.1682 117.679 33.6832 113.612 33.8996C109.545 34.116 108.281 33.6312 108.203 32.3413C108.108 30.8263 110.124 30.2723 112.34 30.2896Z" fill="black"/>
<path d="M115.03 37.6145C115.042 38.0029 114.938 38.3861 114.733 38.7156C114.527 39.0452 114.228 39.3062 113.874 39.4659C113.52 39.6255 113.126 39.6765 112.743 39.6124C112.36 39.5483 112.004 39.3721 111.721 39.1059C111.438 38.8397 111.241 38.4956 111.153 38.117C111.066 37.7384 111.092 37.3423 111.23 36.9789C111.367 36.6154 111.609 36.3009 111.925 36.075C112.241 35.8492 112.617 35.7221 113.005 35.7099C113.263 35.7019 113.52 35.7447 113.762 35.8361C114.003 35.9274 114.224 36.0655 114.412 36.2424C114.6 36.4193 114.752 36.6315 114.858 36.8669C114.964 37.1024 115.022 37.3564 115.03 37.6145Z" fill="black"/>
<path d="M131.523 37.0512C131.537 37.4399 131.435 37.8239 131.23 38.1545C131.025 38.4851 130.727 38.7475 130.373 38.9085C130.019 39.0694 129.625 39.1217 129.242 39.0586C128.858 38.9956 128.502 38.82 128.218 38.5543C127.934 38.2885 127.735 37.9444 127.647 37.5656C127.559 37.1868 127.585 36.7904 127.722 36.4264C127.859 36.0624 128.101 35.7474 128.417 35.5211C128.733 35.2948 129.11 35.1675 129.498 35.1553C130.018 35.1389 130.523 35.3293 130.902 35.6846C131.282 36.04 131.505 36.5314 131.523 37.0512Z" fill="black"/>
<path d="M125.786 48.7387C125.786 48.7387 122.887 47.4142 119.383 50.4701" stroke="black" stroke-width="1.24" stroke-linecap="round" stroke-linejoin="round"/>
<path d="M133.332 0.250465C130.558 0.104319 127.778 0.396472 125.094 1.11617C118.44 2.84759 106.49 7.81674 104.447 20.5946C103.764 23.9708 104.231 25.0963 104.231 25.0963C104.231 25.0963 126.548 25.962 139.709 19.7462C141.613 27.7799 143.361 32.7318 151.305 40.5924L158.357 29.9875L166.292 37.1123C166.37 37.3893 166.353 2.00785 133.332 0.250465Z" fill="black"/>
<path d="M162.909 40.8179C163.03 42.5266 162.641 44.2329 161.793 45.7206C160.944 47.2084 159.673 48.4108 158.141 49.1757C156.609 49.9406 154.885 50.2335 153.186 50.0175C151.487 49.8015 149.891 49.0861 148.599 47.9621C147.307 46.838 146.377 45.3557 145.928 43.7029C145.478 42.05 145.529 40.3008 146.073 38.6767C146.618 37.0526 147.632 35.6266 148.986 34.5792C150.341 33.5319 151.976 32.9102 153.685 32.7928C155.971 32.6358 158.226 33.3925 159.956 34.897C161.685 36.4015 162.747 38.5309 162.909 40.8179Z" fill="#F26E5A"/>
<path d="M150.985 43.8906C150.985 43.8906 150.553 37.6315 156.593 38.2029" stroke="black" stroke-width="1.24" stroke-linecap="round" stroke-linejoin="round"/>
</svg>
