<svg width="27" height="21" viewBox="0 0 27 21" fill="none" xmlns="http://www.w3.org/2000/svg">
<path d="M25.5927 12.5594C25.3066 12.3389 24.9786 12.1789 24.6287 12.0892C24.2787 11.9995 23.9142 11.982 23.5573 12.0377C25.6113 9.96393 26.6504 7.90221 26.6504 5.88096C26.6504 2.98581 24.3218 0.630962 21.4595 0.630962C20.7 0.626193 19.9486 0.787723 19.2582 1.10421C18.5678 1.42071 17.955 1.88448 17.4629 2.46299C16.9708 1.88448 16.358 1.42071 15.6676 1.10421C14.9771 0.787723 14.2258 0.626193 13.4663 0.630962C10.604 0.630962 8.27539 2.98581 8.27539 5.88096C8.27539 7.08409 8.62977 8.25331 9.3757 9.49034C8.76478 9.64511 8.20724 9.96263 7.76242 10.4091L5.28836 12.881H2.15039C1.68626 12.881 1.24114 13.0653 0.912954 13.3935C0.584765 13.7217 0.400391 14.1668 0.400391 14.631L0.400391 19.006C0.400391 19.4701 0.584765 19.9152 0.912954 20.2434C1.24114 20.5716 1.68626 20.756 2.15039 20.756H13.5254C13.5969 20.756 13.6682 20.7472 13.7376 20.7297L20.7376 18.9797C20.7822 18.9691 20.8258 18.9544 20.8677 18.936L25.1191 17.1269L25.1673 17.105C25.5759 16.9009 25.9257 16.596 26.184 16.2193C26.4422 15.8425 26.6003 15.4062 26.6433 14.9515C26.6863 14.4967 26.6128 14.0385 26.4298 13.62C26.2467 13.2015 25.9602 12.8365 25.5971 12.5594H25.5927ZM13.4663 2.38096C14.144 2.37104 14.8093 2.56348 15.377 2.93367C15.9448 3.30385 16.3892 3.83497 16.6535 4.45909C16.7194 4.61957 16.8316 4.75684 16.9757 4.85344C17.1198 4.95004 17.2894 5.00162 17.4629 5.00162C17.6364 5.00162 17.806 4.95004 17.9501 4.85344C18.0942 4.75684 18.2063 4.61957 18.2723 4.45909C18.5366 3.83497 18.981 3.30385 19.5487 2.93367C20.1165 2.56348 20.7818 2.37104 21.4595 2.38096C23.3243 2.38096 24.9004 3.98331 24.9004 5.88096C24.9004 8.01487 23.1734 10.4288 19.9063 12.87L18.6934 13.1489C18.7998 12.6992 18.8031 12.2311 18.703 11.7799C18.6028 11.3287 18.4019 10.906 18.1151 10.5435C17.8284 10.181 17.4633 9.88815 17.0473 9.68682C16.6313 9.48548 16.1751 9.38091 15.7129 9.38096H11.4123C10.4684 8.10784 10.0254 6.98784 10.0254 5.88096C10.0254 3.98331 11.6015 2.38096 13.4663 2.38096ZM2.15039 14.631H4.77539V19.006H2.15039V14.631ZM24.4005 15.5289L20.2443 17.2986L13.416 19.006H6.52539V14.118L9.00055 11.6439C9.16246 11.4807 9.3552 11.3513 9.56757 11.2633C9.77993 11.1752 10.0077 11.1302 10.2376 11.131H15.7129C16.061 11.131 16.3948 11.2692 16.641 11.5154C16.8871 11.7615 17.0254 12.0954 17.0254 12.4435C17.0254 12.7916 16.8871 13.1254 16.641 13.3715C16.3948 13.6177 16.061 13.756 15.7129 13.756H12.6504C12.4183 13.756 12.1958 13.8481 12.0317 14.0122C11.8676 14.1763 11.7754 14.3989 11.7754 14.631C11.7754 14.863 11.8676 15.0856 12.0317 15.2497C12.1958 15.4138 12.4183 15.506 12.6504 15.506H16.1504C16.2163 15.5058 16.2819 15.4984 16.3462 15.4841L23.6743 13.7986L23.7082 13.7899C23.9319 13.7278 24.1707 13.7506 24.3786 13.8539C24.5865 13.9573 24.7488 14.1339 24.8343 14.3497C24.9198 14.5656 24.9225 14.8054 24.8418 15.0231C24.7611 15.2408 24.6028 15.421 24.3973 15.5289H24.4005Z" fill=""/>
</svg>
