<svg width="24" height="24" viewBox="0 0 24 24" fill="none" xmlns="http://www.w3.org/2000/svg">
<path d="M21.475 13.3735C21.2183 13.1757 20.9194 13.04 20.6017 12.9769C20.2839 12.9138 19.9558 12.925 19.6431 13.0098L19.2383 13.1035C21.2763 11.2079 22.3071 9.32915 22.3071 7.50008C22.3071 5.12258 20.3965 3.18758 18.0474 3.18758C17.3849 3.18343 16.7306 3.33377 16.1363 3.62669C15.5419 3.9196 15.024 4.34703 14.6236 4.87508C14.2231 4.34703 13.7052 3.9196 13.1109 3.62669C12.5166 3.33377 11.8622 3.18343 11.1997 3.18758C8.85064 3.18758 6.94008 5.12258 6.94008 7.50008C6.94008 8.56696 7.28021 9.60852 7.99796 10.7213C7.40962 10.8121 6.86582 11.0891 6.44628 11.5116L4.27147 13.6876H1.50542C1.1575 13.6876 0.823838 13.8259 0.577825 14.072C0.331812 14.3181 0.193604 14.652 0.193604 15.0001V18.7501C0.193604 19.0982 0.331812 19.432 0.577825 19.6782C0.823838 19.9243 1.1575 20.0626 1.50542 20.0626H11.2503C11.2964 20.0626 11.3424 20.0569 11.3871 20.0457L17.384 18.5457C17.4124 18.5382 17.4402 18.5288 17.4674 18.5176L21.1049 16.9688L21.1358 16.9548C21.4574 16.7941 21.7328 16.5541 21.9361 16.2575C22.1394 15.9608 22.2639 15.6173 22.2979 15.2592C22.3318 14.9012 22.2741 14.5403 22.1301 14.2108C21.9861 13.8812 21.7607 13.5937 21.475 13.3754V13.3735ZM11.1997 4.31258C11.818 4.30433 12.4247 4.48085 12.9422 4.81954C13.4597 5.15824 13.8643 5.64371 14.1045 6.21383C14.1468 6.317 14.2189 6.40524 14.3115 6.46734C14.4041 6.52945 14.513 6.5626 14.6245 6.5626C14.736 6.5626 14.8449 6.52945 14.9375 6.46734C15.0301 6.40524 15.1022 6.317 15.1445 6.21383C15.3847 5.64371 15.7894 5.15824 16.3068 4.81954C16.8243 4.48085 17.431 4.30433 18.0493 4.31258C19.7471 4.31258 21.1826 5.77227 21.1826 7.50008C21.1826 9.39758 19.6666 11.5313 16.7974 13.6641L15.4041 13.9848C15.5431 13.6159 15.5905 13.2188 15.5424 12.8275C15.4943 12.4363 15.3521 12.0625 15.128 11.7383C14.9038 11.4142 14.6044 11.1492 14.2554 10.9662C13.9065 10.7832 13.5183 10.6876 13.1243 10.6876H9.34539C8.47303 9.53165 8.06449 8.51352 8.06449 7.50008C8.06449 5.77227 9.49999 4.31258 11.1997 4.31258ZM1.31802 18.7501V15.0001C1.31802 14.9504 1.33776 14.9027 1.37291 14.8675C1.40805 14.8323 1.45572 14.8126 1.50542 14.8126H3.94165V18.9376H1.50542C1.45572 18.9376 1.40805 18.9178 1.37291 18.8827C1.33776 18.8475 1.31802 18.7998 1.31802 18.7501ZM20.6467 15.9376L17.0673 17.4629L11.181 18.9376H5.06606V14.4835L7.24086 12.3066C7.39714 12.1495 7.58304 12.0249 7.78779 11.94C7.99254 11.8552 8.21207 11.8119 8.43367 11.8126H13.1243C13.4723 11.8126 13.8059 11.9509 14.0519 12.197C14.298 12.4431 14.4362 12.777 14.4362 13.1251C14.4362 13.4732 14.298 13.807 14.0519 14.0532C13.8059 14.2993 13.4723 14.4376 13.1243 14.4376H10.5007C10.3516 14.4376 10.2086 14.4968 10.1032 14.6023C9.99775 14.7078 9.93851 14.8509 9.93851 15.0001C9.93851 15.1493 9.99775 15.2923 10.1032 15.3978C10.2086 15.5033 10.3516 15.5626 10.5007 15.5626H13.4992C13.5414 15.5626 13.5835 15.5579 13.6247 15.5485L19.9027 14.1038L19.9252 14.0982C20.1615 14.0338 20.4132 14.0589 20.6321 14.1689C20.851 14.2788 21.0215 14.4658 21.111 14.6939C21.2005 14.922 21.2026 15.1752 21.1169 15.4047C21.0311 15.6343 20.8637 15.824 20.6467 15.9376Z" fill="#3C3F43"/>
</svg>
