<svg width="25" height="21" viewBox="0 0 25 21" fill="none" xmlns="http://www.w3.org/2000/svg">
<path d="M3.07403 13.9968C2.13372 12.7752 1.66357 12.1644 1.66357 10.3507C1.66357 8.53695 2.13372 7.92617 3.07403 6.70456C4.95155 4.26535 8.10035 1.5 12.7269 1.5C17.3535 1.5 20.5022 4.26535 22.3798 6.70456C23.3201 7.92617 23.7903 8.53695 23.7903 10.3507C23.7903 12.1644 23.3201 12.7752 22.3798 13.9968C20.5022 16.436 17.3535 19.2013 12.7269 19.2013C8.10035 19.2013 4.95155 16.436 3.07403 13.9968Z" stroke="#969696" stroke-width="1.6595"/>
<path d="M16.0457 10.3503C16.0457 12.1833 14.5598 13.6693 12.7267 13.6693C10.8936 13.6693 9.40771 12.1833 9.40771 10.3503C9.40771 8.51717 10.8936 7.03125 12.7267 7.03125C14.5598 7.03125 16.0457 8.51717 16.0457 10.3503Z" stroke="#969696" stroke-width="1.6595"/>
</svg>
