<svg width="24" height="13" viewBox="0 0 24 13" fill="none" xmlns="http://www.w3.org/2000/svg">
<path d="M1.64099 1.0063C1.46423 0.593872 0.986598 0.402814 0.574171 0.579573C0.161743 0.756332 -0.0293154 1.23396 0.147444 1.64639L1.64099 1.0063ZM8.5221 8.62518C8.76682 8.24917 8.66031 7.74588 8.28421 7.50117C7.9081 7.25645 7.40483 7.36294 7.16011 7.73906L8.5221 8.62518ZM5.62964 10.0912C5.38491 10.4672 5.49142 10.9705 5.86752 11.2152C6.24363 11.4599 6.7469 11.3534 6.99163 10.9773L5.62964 10.0912ZM23.3067 1.64639C23.4834 1.23396 23.2924 0.756332 22.8799 0.579573C22.4675 0.402814 21.9899 0.593872 21.8131 1.0063L23.3067 1.64639ZM20.3605 7.9985C20.6778 8.3158 21.1921 8.3158 21.5094 7.9985C21.8267 7.68121 21.8267 7.16676 21.5094 6.84946L20.3605 7.9985ZM10.9146 11.6175C10.9146 12.0662 11.2783 12.43 11.727 12.43C12.1757 12.43 12.5395 12.0662 12.5395 11.6175H10.9146ZM16.4625 10.9773C16.7072 11.3534 17.2105 11.4599 17.5865 11.2152C17.9626 10.9705 18.0691 10.4672 17.8244 10.0912L16.4625 10.9773ZM4.71856 6.37358C5.03585 6.05628 5.03585 5.54183 4.71856 5.22454C4.40128 4.90725 3.88685 4.90725 3.56957 5.22454L4.71856 6.37358ZM1.94464 6.84946C1.62736 7.16676 1.62736 7.68121 1.94464 7.9985C2.26193 8.3158 2.77636 8.3158 3.09364 7.9985L1.94464 6.84946ZM11.727 8.09686C8.23466 8.09686 5.7271 6.35776 4.06239 4.56499C3.23026 3.66887 2.62016 2.77019 2.21863 2.09563C2.01833 1.75912 1.8712 1.48052 1.77536 1.28883C1.72747 1.19306 1.69248 1.11917 1.67014 1.07081C1.65898 1.04664 1.65099 1.02888 1.64613 1.01797C1.64371 1.01252 1.64184 1.00826 1.64099 1.0063C1.64097 1.00626 1.64102 1.00639 1.64099 1.0063C1.6411 1.00655 1.64099 1.0063 0.894216 1.32634C0.147444 1.64639 0.147281 1.64602 0.147444 1.64639C0.147509 1.64655 0.147986 1.64765 0.148126 1.64797C0.148397 1.64861 0.148733 1.64938 0.149112 1.65025C0.14986 1.652 0.150824 1.65421 0.151983 1.65688C0.154312 1.6622 0.157453 1.66933 0.161407 1.67823C0.169315 1.69602 0.180495 1.72082 0.194989 1.75219C0.223956 1.81493 0.266193 1.90395 0.321983 2.01552C0.433485 2.23853 0.599498 2.55235 0.822351 2.92674C1.26714 3.67399 1.94343 4.67109 2.87164 5.67063C4.7276 7.6694 7.63645 9.72179 11.727 9.72179V8.09686ZM15.3154 7.4261C14.2642 7.83991 13.0722 8.09686 11.727 8.09686V9.72179C13.285 9.72179 14.6786 9.42302 15.9106 8.93814L15.3154 7.4261ZM7.16011 7.73906L5.62964 10.0912L6.99163 10.9773L8.5221 8.62518L7.16011 7.73906ZM22.5599 1.32634C21.8131 1.0063 21.813 1.00645 21.8131 1.0063C21.8132 1.00613 21.8136 1.00514 21.8136 1.00526C21.8135 1.00548 21.8132 1.00626 21.8125 1.0076C21.8113 1.01028 21.8092 1.01517 21.806 1.0222C21.7997 1.03627 21.7896 1.05887 21.7754 1.08938C21.7469 1.15039 21.7026 1.24288 21.6419 1.36174C21.5206 1.59962 21.3347 1.94199 21.0816 2.3481C20.5741 3.16268 19.8043 4.22084 18.754 5.20666L19.8661 6.39145C21.0458 5.28412 21.9009 4.10591 22.4608 3.20742C22.7414 2.75701 22.9499 2.37366 23.0895 2.09997C23.1593 1.96304 23.212 1.85329 23.2481 1.77598C23.2661 1.73733 23.2799 1.70677 23.2897 1.68495C23.2946 1.67405 23.2985 1.66533 23.3013 1.65887C23.3027 1.65564 23.3038 1.65299 23.3047 1.6509C23.3052 1.64986 23.3055 1.64896 23.3058 1.64821C23.306 1.64783 23.3066 1.64669 23.3067 1.64639C23.3067 1.64647 23.3068 1.64624 23.3067 1.64639C23.3068 1.64621 23.3067 1.64639 22.5599 1.32634ZM18.754 5.20666C17.8234 6.08001 16.6819 6.88825 15.3154 7.4261L15.9106 8.93814C17.5069 8.30984 18.8189 7.37431 19.8661 6.39145L18.754 5.20666ZM18.7356 6.37358L20.3605 7.9985L21.5094 6.84946L19.8845 5.22454L18.7356 6.37358ZM10.9146 8.90933V11.6175H12.5395V8.90933H10.9146ZM14.932 8.62518L16.4625 10.9773L17.8244 10.0912L16.2939 7.73906L14.932 8.62518ZM3.56957 5.22454L1.94464 6.84946L3.09364 7.9985L4.71856 6.37358L3.56957 5.22454Z" fill="#969696"/>
</svg>
