<svg width="27" height="27" viewBox="0 0 27 27" fill="none" xmlns="http://www.w3.org/2000/svg">
<path d="M13.5 0.586914C11.0092 0.586914 8.57432 1.34935 6.50329 2.77781C4.43226 4.20627 2.81809 6.23659 1.8649 8.61203C0.911707 10.9875 0.662308 13.6013 1.14824 16.1231C1.63417 18.6448 2.83361 20.9612 4.59488 22.7793C6.35615 24.5974 8.60014 25.8355 11.0431 26.3371C13.486 26.8387 16.0182 26.5813 18.3194 25.5973C20.6206 24.6134 22.5875 22.9472 23.9713 20.8093C25.3551 18.6715 26.0938 16.1581 26.0938 13.5869C26.0902 10.1402 24.7623 6.83573 22.4012 4.39855C20.0402 1.96136 16.839 0.590554 13.5 0.586914ZM14.4688 24.5407V16.5869H17.375C17.6319 16.5869 17.8783 16.4816 18.06 16.294C18.2417 16.1065 18.3438 15.8521 18.3438 15.5869C18.3438 15.3217 18.2417 15.0673 18.06 14.8798C17.8783 14.6923 17.6319 14.5869 17.375 14.5869H14.4688V11.5869C14.4688 11.0565 14.6729 10.5478 15.0362 10.1727C15.3996 9.79763 15.8924 9.58691 16.4063 9.58691H18.3438C18.6007 9.58691 18.8471 9.48156 19.0288 9.29402C19.2104 9.10648 19.3125 8.85213 19.3125 8.58691C19.3125 8.3217 19.2104 8.06734 19.0288 7.87981C18.8471 7.69227 18.6007 7.58691 18.3438 7.58691H16.4063C15.3785 7.58691 14.3929 8.00834 13.6662 8.75849C12.9395 9.50863 12.5313 10.526 12.5313 11.5869V14.5869H9.62501C9.36808 14.5869 9.12167 14.6923 8.94 14.8798C8.75832 15.0673 8.65626 15.3217 8.65626 15.5869C8.65626 15.8521 8.75832 16.1065 8.94 16.294C9.12167 16.4816 9.36808 16.5869 9.62501 16.5869H12.5313V24.5407C9.80034 24.2833 7.27066 22.9491 5.46839 20.8156C3.66612 18.6821 2.73001 15.9135 2.85479 13.0857C2.97957 10.2579 4.15562 7.58861 6.13832 5.63305C8.12103 3.67749 10.7577 2.58621 13.5 2.58621C16.2423 2.58621 18.879 3.67749 20.8617 5.63305C22.8444 7.58861 24.0204 10.2579 24.1452 13.0857C24.27 15.9135 23.3339 18.6821 21.5316 20.8156C19.7294 22.9491 17.1997 24.2833 14.4688 24.5407Z" fill="#585163"/>
</svg>
