<svg width="23" height="10" viewBox="0 0 23 10" fill="none" xmlns="http://www.w3.org/2000/svg">
<path d="M18.9025 4.64844C18.9025 4.81893 18.8197 4.98245 18.6724 5.10301C18.525 5.22357 18.3252 5.29129 18.1168 5.29129H5.54534C5.33696 5.29129 5.13711 5.22357 4.98976 5.10301C4.84241 4.98245 4.75963 4.81893 4.75963 4.64844C4.75963 4.47794 4.84241 4.31443 4.98976 4.19387C5.13711 4.07331 5.33696 4.00558 5.54534 4.00558H18.1168C18.3252 4.00558 18.525 4.07331 18.6724 4.19387C18.8197 4.31443 18.9025 4.47794 18.9025 4.64844ZM22.0453 0.148438H1.61677C1.40838 0.148438 1.20854 0.216167 1.06119 0.336726C0.913835 0.457285 0.831055 0.620798 0.831055 0.791295C0.831055 0.961791 0.913835 1.1253 1.06119 1.24586C1.20854 1.36642 1.40838 1.43415 1.61677 1.43415H22.0453C22.2537 1.43415 22.4536 1.36642 22.6009 1.24586C22.7483 1.1253 22.8311 0.961791 22.8311 0.791295C22.8311 0.620798 22.7483 0.457285 22.6009 0.336726C22.4536 0.216167 22.2537 0.148438 22.0453 0.148438ZM14.1882 7.86272H9.47391C9.26553 7.86272 9.06568 7.93045 8.91833 8.05101C8.77098 8.17157 8.6882 8.33508 8.6882 8.50558C8.6882 8.67608 8.77098 8.83959 8.91833 8.96015C9.06568 9.08071 9.26553 9.14844 9.47391 9.14844H14.1882C14.3966 9.14844 14.5964 9.08071 14.7438 8.96015C14.8911 8.83959 14.9739 8.67608 14.9739 8.50558C14.9739 8.33508 14.8911 8.17157 14.7438 8.05101C14.5964 7.93045 14.3966 7.86272 14.1882 7.86272Z" fill="#06B0BA"/>
</svg>
