<svg width="7" height="5" viewBox="0 0 7 5" fill="none" xmlns="http://www.w3.org/2000/svg">
<mask id="path-1-inside-1_1667_8221" fill="white">
<path d="M6.768 0.543746V2.46403C6.768 2.52769 6.74271 2.58874 6.69769 2.63376C6.65268 2.67878 6.59162 2.70406 6.52796 2.70406C6.4643 2.70406 6.40325 2.67878 6.35823 2.63376C6.31322 2.58874 6.28793 2.52769 6.28793 2.46403V1.12313L3.81736 3.594C3.79507 3.61631 3.7686 3.63402 3.73946 3.6461C3.71032 3.65818 3.67908 3.66439 3.64754 3.66439C3.61599 3.66439 3.58476 3.65818 3.55562 3.6461C3.52648 3.63402 3.50001 3.61631 3.47771 3.594L2.44736 2.56334L0.456869 4.55414C0.411828 4.59918 0.350741 4.62448 0.287044 4.62448C0.223347 4.62448 0.162259 4.59918 0.117219 4.55414C0.0721784 4.5091 0.046875 4.44801 0.046875 4.38431C0.046875 4.32062 0.0721784 4.25953 0.117219 4.21449L2.27754 2.05417C2.29983 2.03185 2.3263 2.01415 2.35544 2.00207C2.38458 1.98999 2.41582 1.98377 2.44736 1.98377C2.47891 1.98377 2.51014 1.98999 2.53928 2.00207C2.56842 2.01415 2.59489 2.03185 2.61719 2.05417L3.64754 3.08482L5.94858 0.783782H4.60768C4.54402 0.783782 4.48296 0.758492 4.43795 0.713477C4.39293 0.668462 4.36764 0.607408 4.36764 0.543746C4.36764 0.480085 4.39293 0.419031 4.43795 0.374016C4.48296 0.329 4.54402 0.303711 4.60768 0.303711H6.52796C6.59162 0.303711 6.65268 0.329 6.69769 0.374016C6.74271 0.419031 6.768 0.480085 6.768 0.543746Z"/>
</mask>
<path d="M6.768 0.543746V2.46403C6.768 2.52769 6.74271 2.58874 6.69769 2.63376C6.65268 2.67878 6.59162 2.70406 6.52796 2.70406C6.4643 2.70406 6.40325 2.67878 6.35823 2.63376C6.31322 2.58874 6.28793 2.52769 6.28793 2.46403V1.12313L3.81736 3.594C3.79507 3.61631 3.7686 3.63402 3.73946 3.6461C3.71032 3.65818 3.67908 3.66439 3.64754 3.66439C3.61599 3.66439 3.58476 3.65818 3.55562 3.6461C3.52648 3.63402 3.50001 3.61631 3.47771 3.594L2.44736 2.56334L0.456869 4.55414C0.411828 4.59918 0.350741 4.62448 0.287044 4.62448C0.223347 4.62448 0.162259 4.59918 0.117219 4.55414C0.0721784 4.5091 0.046875 4.44801 0.046875 4.38431C0.046875 4.32062 0.0721784 4.25953 0.117219 4.21449L2.27754 2.05417C2.29983 2.03185 2.3263 2.01415 2.35544 2.00207C2.38458 1.98999 2.41582 1.98377 2.44736 1.98377C2.47891 1.98377 2.51014 1.98999 2.53928 2.00207C2.56842 2.01415 2.59489 2.03185 2.61719 2.05417L3.64754 3.08482L5.94858 0.783782H4.60768C4.54402 0.783782 4.48296 0.758492 4.43795 0.713477C4.39293 0.668462 4.36764 0.607408 4.36764 0.543746C4.36764 0.480085 4.39293 0.419031 4.43795 0.374016C4.48296 0.329 4.54402 0.303711 4.60768 0.303711H6.52796C6.59162 0.303711 6.65268 0.329 6.69769 0.374016C6.74271 0.419031 6.768 0.480085 6.768 0.543746Z" fill="#06B0BA"/>
<path d="M6.28793 1.12313H7.05604V-0.731417L5.74476 0.580027L6.28793 1.12313ZM3.81736 3.594L3.27419 3.05089L3.27392 3.05116L3.81736 3.594ZM3.47771 3.594L4.02115 3.05116L4.02093 3.05094L3.47771 3.594ZM2.44736 2.56334L2.99058 2.02029L2.4474 1.47695L1.90418 2.02025L2.44736 2.56334ZM0.456869 4.55414L1.00001 5.09728L1.00005 5.09723L0.456869 4.55414ZM0.046875 4.38431L0.814988 4.38431L0.046875 4.38431ZM0.117219 4.21449L0.660357 4.75763L0.660357 4.75763L0.117219 4.21449ZM2.27754 2.05417L2.82067 2.59731L2.82098 2.597L2.27754 2.05417ZM2.61719 2.05417L2.07375 2.597L2.07397 2.59723L2.61719 2.05417ZM3.64754 3.08482L3.10432 3.62788L3.64746 4.17118L4.19068 3.62796L3.64754 3.08482ZM5.94858 0.783782L6.49172 1.32692L7.80297 0.0156685L5.94858 0.0156685V0.783782ZM4.60768 0.303711V1.07182V0.303711ZM5.99989 0.543746V2.46403H7.53611V0.543746H5.99989ZM5.99989 2.46403C5.99989 2.32398 6.05552 2.18966 6.15456 2.09062L7.24083 3.1769C7.4299 2.98783 7.53611 2.73141 7.53611 2.46403H5.99989ZM6.15456 2.09062C6.25359 1.99159 6.38791 1.93595 6.52796 1.93595V3.47218C6.79534 3.47218 7.05177 3.36596 7.24083 3.1769L6.15456 2.09062ZM6.52796 1.93595C6.66802 1.93595 6.80234 1.99159 6.90137 2.09062L5.81509 3.1769C6.00416 3.36596 6.26059 3.47218 6.52796 3.47218V1.93595ZM6.90137 2.09062C7.0004 2.18966 7.05604 2.32398 7.05604 2.46403H5.51981C5.51981 2.73141 5.62603 2.98783 5.81509 3.1769L6.90137 2.09062ZM7.05604 2.46403V1.12313H5.51981V2.46403H7.05604ZM5.74476 0.580027L3.27419 3.05089L4.36053 4.1371L6.8311 1.66624L5.74476 0.580027ZM3.27392 3.05116C3.32297 3.00206 3.38121 2.96311 3.44532 2.93654L4.0336 4.35566C4.15599 4.30493 4.26717 4.23057 4.3608 4.13683L3.27392 3.05116ZM3.44532 2.93654C3.50943 2.90996 3.57815 2.89628 3.64754 2.89628V4.43251C3.78002 4.43251 3.91121 4.4064 4.0336 4.35566L3.44532 2.93654ZM3.64754 2.89628C3.71693 2.89628 3.78565 2.90996 3.84976 2.93654L3.26148 4.35566C3.38387 4.4064 3.51506 4.43251 3.64754 4.43251V2.89628ZM3.84976 2.93654C3.91387 2.96311 3.97211 3.00206 4.02115 3.05116L2.93427 4.13683C3.0279 4.23057 3.13909 4.30493 3.26148 4.35566L3.84976 2.93654ZM4.02093 3.05094L2.99058 2.02029L1.90414 3.1064L2.9345 4.13705L4.02093 3.05094ZM1.90418 2.02025L-0.0863102 4.01104L1.00005 5.09723L2.99054 3.10644L1.90418 2.02025ZM-0.0862692 4.011C0.012739 3.91199 0.147023 3.85637 0.287044 3.85637V5.39259C0.554458 5.39259 0.810918 5.28636 1.00001 5.09728L-0.0862692 4.011ZM0.287044 3.85637C0.427064 3.85637 0.561349 3.91199 0.660357 4.011L-0.425919 5.09728C-0.23683 5.28636 0.01963 5.39259 0.287044 5.39259V3.85637ZM0.660357 4.011C0.759366 4.11001 0.814988 4.24429 0.814988 4.38431H-0.721238C-0.721238 4.65172 -0.615009 4.90819 -0.425919 5.09728L0.660357 4.011ZM0.814988 4.38431C0.814988 4.52433 0.759366 4.65862 0.660357 4.75763L-0.425919 3.67135C-0.615009 3.86044 -0.721238 4.1169 -0.721238 4.38431L0.814988 4.38431ZM0.660357 4.75763L2.82067 2.59731L1.7344 1.51103L-0.425919 3.67135L0.660357 4.75763ZM2.82098 2.597C2.77193 2.64611 2.71369 2.68506 2.64958 2.71163L2.0613 1.2925C1.93892 1.34324 1.82773 1.4176 1.7341 1.51133L2.82098 2.597ZM2.64958 2.71163C2.58548 2.7382 2.51676 2.75188 2.44736 2.75188V1.21566C2.31487 1.21566 2.18369 1.24177 2.0613 1.2925L2.64958 2.71163ZM2.44736 2.75188C2.37796 2.75188 2.30925 2.7382 2.24514 2.71163L2.83342 1.2925C2.71104 1.24177 2.57985 1.21566 2.44736 1.21566V2.75188ZM2.24514 2.71163C2.18103 2.68506 2.12279 2.64611 2.07375 2.597L3.16063 1.51133C3.06699 1.4176 2.95581 1.34324 2.83342 1.2925L2.24514 2.71163ZM2.07397 2.59723L3.10432 3.62788L4.19076 2.54176L3.1604 1.51111L2.07397 2.59723ZM4.19068 3.62796L6.49172 1.32692L5.40544 0.240644L3.1044 2.54168L4.19068 3.62796ZM5.94858 0.0156685H4.60768V1.55189H5.94858V0.0156685ZM4.60768 0.0156685C4.74773 0.0156685 4.88205 0.071305 4.98109 0.170339L3.89481 1.25661C4.08388 1.44568 4.3403 1.55189 4.60768 1.55189V0.0156685ZM4.98109 0.170339C5.08012 0.269374 5.13576 0.403693 5.13576 0.543746H3.59953C3.59953 0.811123 3.70575 1.06755 3.89481 1.25661L4.98109 0.170339ZM5.13576 0.543746C5.13576 0.6838 5.08012 0.818119 4.98109 0.917154L3.89481 -0.169122C3.70575 0.0199432 3.59953 0.27637 3.59953 0.543746H5.13576ZM4.98109 0.917154C4.88205 1.01619 4.74773 1.07182 4.60768 1.07182L4.60768 -0.464402C4.3403 -0.464402 4.08388 -0.358187 3.89481 -0.169122L4.98109 0.917154ZM4.60768 1.07182H6.52796V-0.464402H4.60768V1.07182ZM6.52796 1.07182C6.38791 1.07182 6.25359 1.01619 6.15456 0.917154L7.24083 -0.169122C7.05177 -0.358187 6.79534 -0.464402 6.52796 -0.464402V1.07182ZM6.15456 0.917154C6.05552 0.818119 5.99989 0.6838 5.99989 0.543746H7.53611C7.53611 0.27637 7.4299 0.0199432 7.24083 -0.169122L6.15456 0.917154Z" fill="#06B0BA" mask="url(#path-1-inside-1_1667_8221)"/>
</svg>
