<svg width="30" height="27" viewBox="0 0 30 27" fill="none" xmlns="http://www.w3.org/2000/svg">
<path d="M15.2754 7.58691C13.9498 7.58691 12.6539 7.93881 11.5516 8.5981C10.4494 9.25739 9.59027 10.1945 9.08296 11.2908C8.57564 12.3872 8.44291 13.5936 8.70153 14.7575C8.96016 15.9213 9.59853 16.9904 10.5359 17.8296C11.4733 18.6687 12.6676 19.2401 13.9678 19.4716C15.268 19.7031 16.6157 19.5843 17.8404 19.1302C19.0652 18.6761 20.112 17.907 20.8485 16.9203C21.585 15.9336 21.9781 14.7736 21.9781 13.5869C21.9763 11.9961 21.2695 10.471 20.0129 9.3461C18.7563 8.22124 17.0525 7.58857 15.2754 7.58691ZM15.2754 17.5869C14.3917 17.5869 13.5277 17.3523 12.7929 16.9128C12.0581 16.4733 11.4853 15.8486 11.1471 15.1176C10.8089 14.3867 10.7204 13.5825 10.8928 12.8066C11.0653 12.0306 11.4908 11.3179 12.1158 10.7585C12.7407 10.1991 13.5369 9.81811 14.4037 9.66377C15.2705 9.50943 16.1689 9.58865 16.9854 9.8914C17.802 10.1941 18.4998 10.7068 18.9908 11.3646C19.4818 12.0224 19.7439 12.7958 19.7439 13.5869C19.7439 14.6478 19.2731 15.6652 18.4351 16.4153C17.5971 17.1655 16.4605 17.5869 15.2754 17.5869ZM21.9781 0.586914H8.57274C6.49948 0.588899 4.51177 1.32703 3.04575 2.63936C1.57973 3.95168 0.755147 5.73101 0.75293 7.58691V19.5869C0.755147 21.4428 1.57973 23.2221 3.04575 24.5345C4.51177 25.8468 6.49948 26.5849 8.57274 26.5869H21.9781C24.0514 26.5849 26.0391 25.8468 27.5051 24.5345C28.9711 23.2221 29.7957 21.4428 29.7979 19.5869V7.58691C29.7957 5.73101 28.9711 3.95168 27.5051 2.63936C26.0391 1.32703 24.0514 0.588899 21.9781 0.586914ZM27.5637 19.5869C27.5637 20.913 26.9752 22.1848 25.9277 23.1224C24.8802 24.0601 23.4595 24.5869 21.9781 24.5869H8.57274C7.09135 24.5869 5.67064 24.0601 4.62314 23.1224C3.57564 22.1848 2.98716 20.913 2.98716 19.5869V7.58691C2.98716 6.26083 3.57564 4.98906 4.62314 4.05138C5.67064 3.1137 7.09135 2.58691 8.57274 2.58691H21.9781C23.4595 2.58691 24.8802 3.1137 25.9277 4.05138C26.9752 4.98906 27.5637 6.26083 27.5637 7.58691V19.5869ZM24.2124 7.08691C24.2124 7.38359 24.1141 7.6736 23.93 7.92027C23.7458 8.16694 23.4841 8.3592 23.1779 8.47273C22.8718 8.58626 22.5348 8.61597 22.2098 8.55809C21.8847 8.50021 21.5862 8.35735 21.3518 8.14757C21.1175 7.9378 20.9579 7.67052 20.8932 7.37955C20.8286 7.08858 20.8617 6.78698 20.9886 6.51289C21.1154 6.2388 21.3302 6.00453 21.6057 5.83971C21.8813 5.67489 22.2053 5.58691 22.5367 5.58691C22.9811 5.58691 23.4073 5.74495 23.7216 6.02625C24.0358 6.30756 24.2124 6.68909 24.2124 7.08691Z" fill="#585163"/>
</svg>
