<svg width="33" height="32" viewBox="0 0 33 32" fill="none" xmlns="http://www.w3.org/2000/svg">
<path opacity="0.2" d="M28.1459 16.6698L16.9759 27.9998L5.80592 16.6698C4.63366 15.4976 3.9751 13.9077 3.9751 12.2498C3.9751 10.592 4.63366 9.0021 5.80592 7.82985C6.97818 6.65759 8.5681 5.99902 10.2259 5.99902C11.8837 5.99902 13.4737 6.65759 14.6459 7.82985L16.9759 9.99985L19.3059 7.82985C19.8864 7.2494 20.5755 6.78897 21.3338 6.47484C22.0922 6.16071 22.9051 5.99902 23.7259 5.99902C24.5468 5.99902 25.3596 6.16071 26.118 6.47484C26.8764 6.78897 27.5655 7.2494 28.1459 7.82985C28.7264 8.41029 29.1868 9.09938 29.5009 9.85776C29.8151 10.6161 29.9767 11.429 29.9767 12.2498C29.9767 13.0707 29.8151 13.8835 29.5009 14.6419C29.1868 15.4003 28.7264 16.0894 28.1459 16.6698Z" fill=""/>
<path d="M28.8509 7.12502C27.4923 5.76984 25.6524 5.00775 23.7335 5.00541C21.8146 5.00307 19.9728 5.76066 18.6109 7.11252L16.9759 8.63127L15.3397 7.10752C13.9781 5.74978 12.1329 4.98852 10.2101 4.99122C8.28728 4.99391 6.44427 5.76034 5.08653 7.1219C3.72878 8.48345 2.96753 10.3286 2.97022 12.2514C2.97292 14.1743 3.73935 16.0173 5.1009 17.375L16.2697 28.7075C16.3627 28.802 16.4736 28.877 16.5959 28.9283C16.7183 28.9795 16.8495 29.0058 16.9822 29.0058C17.1148 29.0058 17.246 28.9795 17.3684 28.9283C17.4907 28.877 17.6016 28.802 17.6947 28.7075L28.8509 17.375C30.2096 16.0155 30.9729 14.1721 30.9729 12.25C30.9729 10.3279 30.2096 8.48454 28.8509 7.12502ZM27.4321 15.97L16.9759 26.575L6.5134 15.96C5.52878 14.9754 4.97563 13.64 4.97563 12.2475C4.97563 10.8551 5.52878 9.51964 6.5134 8.53502C7.49802 7.55041 8.83344 6.99725 10.2259 6.99725C11.6184 6.99725 12.9538 7.55041 13.9384 8.53502L13.9634 8.56002L16.2947 10.7288C16.4797 10.901 16.7231 10.9967 16.9759 10.9967C17.2287 10.9967 17.4721 10.901 17.6572 10.7288L19.9884 8.56002L20.0134 8.53502C20.9987 7.55107 22.3345 6.99882 23.7269 6.99975C25.1194 7.00069 26.4544 7.55474 27.4384 8.54002C28.4224 9.5253 28.9746 10.8611 28.9737 12.2536C28.9727 13.646 28.4187 14.9811 27.4334 15.965L27.4321 15.97Z" fill="#06B0BA"/>
</svg>
