<svg width="26" height="25" viewBox="0 0 26 25" fill="none" xmlns="http://www.w3.org/2000/svg">
<path d="M23.2414 0.961914H2.10597C1.59638 0.961914 1.10767 1.15287 0.747335 1.49278C0.387003 1.83269 0.18457 2.29371 0.18457 2.77441V22.7119C0.18457 23.1926 0.387003 23.6536 0.747335 23.9935C1.10767 24.3335 1.59638 24.5244 2.10597 24.5244H23.2414C23.7509 24.5244 24.2397 24.3335 24.6 23.9935C24.9603 23.6536 25.1628 23.1926 25.1628 22.7119V2.77441C25.1628 2.29371 24.9603 1.83269 24.6 1.49278C24.2397 1.15287 23.7509 0.961914 23.2414 0.961914ZM23.2414 22.7119H2.10597V2.77441H23.2414V22.7119ZM8.83087 10.9307V18.1807C8.83087 18.421 8.72965 18.6515 8.54948 18.8215C8.36932 18.9914 8.12496 19.0869 7.87017 19.0869C7.61537 19.0869 7.37102 18.9914 7.19085 18.8215C7.01068 18.6515 6.90947 18.421 6.90947 18.1807V10.9307C6.90947 10.6903 7.01068 10.4598 7.19085 10.2898C7.37102 10.1199 7.61537 10.0244 7.87017 10.0244C8.12496 10.0244 8.36932 10.1199 8.54948 10.2898C8.72965 10.4598 8.83087 10.6903 8.83087 10.9307ZM19.3986 14.1025V18.1807C19.3986 18.421 19.2973 18.6515 19.1172 18.8215C18.937 18.9914 18.6927 19.0869 18.4379 19.0869C18.1831 19.0869 17.9387 18.9914 17.7585 18.8215C17.5784 18.6515 17.4772 18.421 17.4772 18.1807V14.1025C17.4772 13.5017 17.2241 12.9254 16.7737 12.5005C16.3233 12.0756 15.7124 11.8369 15.0754 11.8369C14.4384 11.8369 13.8275 12.0756 13.3771 12.5005C12.9267 12.9254 12.6737 13.5017 12.6737 14.1025V18.1807C12.6737 18.421 12.5724 18.6515 12.3923 18.8215C12.2121 18.9914 11.9678 19.0869 11.713 19.0869C11.4582 19.0869 11.2138 18.9914 11.0336 18.8215C10.8535 18.6515 10.7523 18.421 10.7523 18.1807V10.9307C10.7535 10.7087 10.841 10.4948 10.9982 10.3297C11.1555 10.1645 11.3715 10.0596 11.6053 10.0347C11.8392 10.0098 12.0746 10.0668 12.2668 10.1948C12.4591 10.3228 12.5949 10.5129 12.6484 10.729C13.2983 10.3131 14.0561 10.0721 14.8402 10.0318C15.6244 9.9915 16.4054 10.1534 17.0993 10.5003C17.7933 10.8471 18.374 11.3657 18.779 12.0003C19.1841 12.635 19.3983 13.3617 19.3986 14.1025ZM9.31121 7.75879C9.31121 8.02765 9.2267 8.29047 9.06835 8.51402C8.91001 8.73757 8.68495 8.9118 8.42163 9.01469C8.15831 9.11758 7.86857 9.1445 7.58903 9.09204C7.30949 9.03959 7.05272 8.91012 6.85119 8.72001C6.64966 8.5299 6.51241 8.28768 6.45681 8.02399C6.4012 7.7603 6.42974 7.48697 6.53881 7.23858C6.64788 6.99019 6.83258 6.77788 7.06956 6.62851C7.30654 6.47914 7.58515 6.39941 7.87017 6.39941C8.25236 6.39941 8.61889 6.54263 8.88914 6.79757C9.15939 7.0525 9.31121 7.39826 9.31121 7.75879Z" fill="#585163"/>
</svg>
