<svg width="10" height="11" viewBox="0 0 10 11" fill="none" xmlns="http://www.w3.org/2000/svg">
<path d="M5 2.57812C4.62916 2.57812 4.26665 2.68809 3.95831 2.89412C3.64996 3.10015 3.40964 3.39298 3.26773 3.73559C3.12581 4.0782 3.08868 4.4552 3.16103 4.81892C3.23337 5.18263 3.41195 5.51673 3.67417 5.77895C3.9364 6.04117 4.27049 6.21975 4.63421 6.2921C4.99792 6.36444 5.37492 6.32731 5.71753 6.1854C6.06014 6.04348 6.35298 5.80316 6.55901 5.49482C6.76503 5.18648 6.875 4.82396 6.875 4.45312C6.875 3.95584 6.67746 3.47893 6.32583 3.1273C5.97419 2.77567 5.49728 2.57812 5 2.57812ZM5 5.57812C4.7775 5.57812 4.55999 5.51214 4.37498 5.38853C4.18998 5.26491 4.04578 5.08921 3.96064 4.88364C3.87549 4.67808 3.85321 4.45188 3.89662 4.23365C3.94002 4.01542 4.04717 3.81496 4.2045 3.65763C4.36184 3.5003 4.56229 3.39315 4.78052 3.34974C4.99875 3.30633 5.22495 3.32861 5.43052 3.41376C5.63609 3.49891 5.81179 3.6431 5.9354 3.82811C6.05902 4.01311 6.125 4.23062 6.125 4.45312C6.125 4.75149 6.00647 5.03764 5.7955 5.24862C5.58452 5.4596 5.29837 5.57812 5 5.57812ZM5 0.328125C3.90636 0.329366 2.85787 0.764361 2.08455 1.53768C1.31124 2.311 0.876241 3.35949 0.875 4.45312C0.875 5.925 1.55516 7.485 2.84375 8.96484C3.42276 9.63355 4.07443 10.2357 4.78672 10.7602C4.84977 10.8043 4.92489 10.828 5.00187 10.828C5.07886 10.828 5.15398 10.8043 5.21703 10.7602C5.92801 10.2355 6.57841 9.63333 7.15625 8.96484C8.44297 7.485 9.125 5.925 9.125 4.45312C9.12376 3.35949 8.68876 2.311 7.91545 1.53768C7.14213 0.764361 6.09364 0.329366 5 0.328125ZM5 9.98437C4.22516 9.375 1.625 7.13672 1.625 4.45312C1.625 3.55802 1.98058 2.69957 2.61351 2.06664C3.24645 1.4337 4.10489 1.07812 5 1.07812C5.89511 1.07812 6.75355 1.4337 7.38649 2.06664C8.01942 2.69957 8.375 3.55802 8.375 4.45312C8.375 7.13578 5.77484 9.375 5 9.98437Z" fill="#3C3F43"/>
</svg>
