<svg width="19" height="22" viewBox="0 0 19 22" fill="none" xmlns="http://www.w3.org/2000/svg">
<path d="M9.49494 5.06909C8.72307 5.06909 7.96854 5.285 7.32676 5.68952C6.68498 6.09404 6.18477 6.669 5.88939 7.3417C5.59401 8.01439 5.51672 8.7546 5.66731 9.46873C5.81789 10.1829 6.18958 10.8388 6.73537 11.3537C7.28116 11.8685 7.97654 12.2192 8.73357 12.3612C9.49061 12.5033 10.2753 12.4304 10.9884 12.1517C11.7015 11.8731 12.311 11.4012 12.7398 10.7958C13.1687 10.1904 13.3976 9.47864 13.3976 8.75052C13.3976 7.77414 12.9864 6.83776 12.2545 6.14735C11.5226 5.45695 10.53 5.06909 9.49494 5.06909ZM9.49494 10.9594C9.03182 10.9594 8.5791 10.8298 8.19403 10.5871C7.80896 10.3444 7.50884 9.99943 7.33161 9.59581C7.15438 9.1922 7.10801 8.74807 7.19836 8.31959C7.28871 7.89112 7.51172 7.49753 7.8392 7.18862C8.16667 6.8797 8.5839 6.66933 9.03812 6.5841C9.49234 6.49887 9.96315 6.54262 10.391 6.7098C10.8189 6.87698 11.1846 7.1601 11.4419 7.52334C11.6992 7.88659 11.8365 8.31365 11.8365 8.75052C11.8365 9.33634 11.5898 9.89818 11.1507 10.3124C10.7115 10.7267 10.116 10.9594 9.49494 10.9594ZM9.49494 0.651367C7.21864 0.653803 5.03632 1.50789 3.42674 3.02624C1.81716 4.5446 0.911762 6.60324 0.90918 8.75052C0.90918 11.6404 2.32485 14.7034 5.00693 17.609C6.21207 18.9219 7.56846 20.1042 9.05101 21.1339C9.18225 21.2207 9.3386 21.2672 9.49884 21.2672C9.65907 21.2672 9.81543 21.2207 9.94666 21.1339C11.4265 20.1038 12.7802 18.9215 13.9829 17.609C16.6611 14.7034 18.0807 11.6404 18.0807 8.75052C18.0781 6.60324 17.1727 4.5446 15.5631 3.02624C13.9535 1.50789 11.7712 0.653803 9.49494 0.651367ZM9.49494 19.6107C7.88218 18.4143 2.47023 14.0196 2.47023 8.75052C2.47023 6.99304 3.21033 5.30754 4.52772 4.06482C5.8451 2.8221 7.63187 2.12394 9.49494 2.12394C11.358 2.12394 13.1448 2.8221 14.4622 4.06482C15.7795 5.30754 16.5196 6.99304 16.5196 8.75052C16.5196 14.0177 11.1077 18.4143 9.49494 19.6107Z" fill="#3C3F43"/>
</svg>
