<svg width="66" height="27" viewBox="0 0 66 27" fill="none" xmlns="http://www.w3.org/2000/svg">
<path fill-rule="evenodd" clip-rule="evenodd" d="M24.9023 1.75391L14.5086 25.7539L10.9023 25.7539V18.2539L8.90234 13.2539L6.40234 7.2539L5.15234 4.2539L3.90234 2.75391L8.40234 4.2539L12.9023 13.7539L18.1523 1.75391L24.9023 1.75391Z" fill="#06B0BA"/>
<path d="M18.6523 3.25391L10.9023 21.8539L3.15234 3.25391L18.6523 3.25391Z" stroke="#00676D" stroke-width="3"/>
<path d="M28.266 23.0096C26.9421 23.0096 25.7972 22.7283 24.8313 22.1658C23.8711 21.5977 23.1296 20.8079 22.6069 19.7965C22.0842 18.7795 21.8228 17.6005 21.8228 16.2596C21.8228 14.9073 22.0842 13.7255 22.6069 12.7141C23.1296 11.6971 23.8711 10.9073 24.8313 10.3448C25.7972 9.77663 26.9421 9.49254 28.266 9.49254C29.5898 9.49254 30.7319 9.77663 31.6921 10.3448C32.658 10.9073 33.4023 11.6971 33.9251 12.7141C34.4478 13.7255 34.7092 14.9073 34.7092 16.2596C34.7092 17.6005 34.4478 18.7795 33.9251 19.7965C33.4023 20.8079 32.658 21.5977 31.6921 22.1658C30.7319 22.7283 29.5898 23.0096 28.266 23.0096ZM28.283 20.1971C28.8853 20.1971 29.3881 20.0266 29.7915 19.6857C30.195 19.3391 30.4989 18.8675 30.7035 18.271C30.9137 17.6744 31.0188 16.9954 31.0188 16.234C31.0188 15.4727 30.9137 14.7937 30.7035 14.1971C30.4989 13.6005 30.195 13.1289 29.7915 12.7823C29.3881 12.4357 28.8853 12.2624 28.283 12.2624C27.6751 12.2624 27.1637 12.4357 26.7489 12.7823C26.3398 13.1289 26.0302 13.6005 25.82 14.1971C25.6154 14.7937 25.5131 15.4727 25.5131 16.234C25.5131 16.9954 25.6154 17.6744 25.82 18.271C26.0302 18.8675 26.3398 19.3391 26.7489 19.6857C27.1637 20.0266 27.6751 20.1971 28.283 20.1971ZM40.7006 5.29936V22.7539H37.07V5.29936H40.7006ZM50.5721 9.663V12.3903H42.6886V9.663H50.5721ZM44.4783 6.52663H48.109V18.7312C48.109 19.0664 48.1602 19.3278 48.2624 19.5153C48.3647 19.6971 48.5067 19.8249 48.6886 19.8988C48.8761 19.9727 49.092 20.0096 49.3363 20.0096C49.5067 20.0096 49.6772 19.9954 49.8477 19.967C50.0181 19.9329 50.1488 19.9073 50.2397 19.8903L50.8107 22.592C50.6289 22.6488 50.3732 22.7141 50.0437 22.788C49.7141 22.8675 49.3136 22.9158 48.842 22.9329C47.967 22.967 47.1999 22.8505 46.5408 22.5835C45.8874 22.3164 45.3789 21.9016 45.0153 21.3391C44.6516 20.7766 44.4727 20.0664 44.4783 19.2085V6.52663ZM52.869 22.7539V20.5891L59.2781 12.6545V12.5607H53.0906V9.663H63.6502V12.0238L57.6332 19.7624V19.8562H63.8718V22.7539H52.869Z" fill="#00676D"/>
</svg>
