<svg width="131" height="30" viewBox="0 0 131 30" fill="none" xmlns="http://www.w3.org/2000/svg">
<path fill-rule="evenodd" clip-rule="evenodd" d="M57 3L47.6063 27L42.3937 27L33 3L57 3ZM45.1429 21.1637L50.0719 7.56013L39.9153 7.56013L44.8444 21.1637H45.1429Z" fill="#00676D"/>
<path d="M60.3636 24.2557C59.0398 24.2557 57.8949 23.9744 56.929 23.4119C55.9688 22.8437 55.2273 22.054 54.7045 21.0426C54.1818 20.0256 53.9205 18.8466 53.9205 17.5057C53.9205 16.1534 54.1818 14.9716 54.7045 13.9602C55.2273 12.9432 55.9688 12.1534 56.929 11.5909C57.8949 11.0227 59.0398 10.7386 60.3636 10.7386C61.6875 10.7386 62.8295 11.0227 63.7898 11.5909C64.7557 12.1534 65.5 12.9432 66.0227 13.9602C66.5455 14.9716 66.8068 16.1534 66.8068 17.5057C66.8068 18.8466 66.5455 20.0256 66.0227 21.0426C65.5 22.054 64.7557 22.8437 63.7898 23.4119C62.8295 23.9744 61.6875 24.2557 60.3636 24.2557ZM60.3807 21.4432C60.983 21.4432 61.4858 21.2727 61.8892 20.9318C62.2926 20.5852 62.5966 20.1136 62.8011 19.517C63.0114 18.9205 63.1165 18.2415 63.1165 17.4801C63.1165 16.7188 63.0114 16.0398 62.8011 15.4432C62.5966 14.8466 62.2926 14.375 61.8892 14.0284C61.4858 13.6818 60.983 13.5085 60.3807 13.5085C59.7727 13.5085 59.2614 13.6818 58.8466 14.0284C58.4375 14.375 58.1278 14.8466 57.9176 15.4432C57.7131 16.0398 57.6108 16.7188 57.6108 17.4801C57.6108 18.2415 57.7131 18.9205 57.9176 19.517C58.1278 20.1136 58.4375 20.5852 58.8466 20.9318C59.2614 21.2727 59.7727 21.4432 60.3807 21.4432ZM72.7983 6.54545V24H69.1676V6.54545H72.7983ZM82.6697 10.9091V13.6364H74.7862V10.9091H82.6697ZM76.576 7.77273H80.2067V19.9773C80.2067 20.3125 80.2578 20.5739 80.3601 20.7614C80.4624 20.9432 80.6044 21.071 80.7862 21.1449C80.9737 21.2187 81.1896 21.2557 81.4339 21.2557C81.6044 21.2557 81.7749 21.2415 81.9453 21.2131C82.1158 21.179 82.2464 21.1534 82.3374 21.1364L82.9084 23.8381C82.7266 23.8949 82.4709 23.9602 82.1413 24.0341C81.8118 24.1136 81.4112 24.1619 80.9396 24.179C80.0646 24.2131 79.2976 24.0966 78.6385 23.8295C77.9851 23.5625 77.4766 23.1477 77.1129 22.5852C76.7493 22.0227 76.5703 21.3125 76.576 20.4545V7.77273ZM84.9666 24V21.8352L91.3757 13.9006V13.8068H85.1882V10.9091H95.7479V13.2699L89.7308 21.0085V21.1023H95.9695V24H84.9666Z" fill="#00676D"/>
</svg>
