<svg width="17" height="16" viewBox="0 0 17 16" fill="none" xmlns="http://www.w3.org/2000/svg">
<path d="M15.9463 9.24929L15.9434 9.27039L15.9415 9.2916C15.8383 10.4097 15.4493 11.1165 14.8746 11.5666C14.2744 12.0366 13.3268 12.3407 11.8961 12.3407H11.4716C10.9229 12.3407 10.3763 12.5805 10.0163 13.0235L8.74274 14.5907L8.74129 14.5925C8.63168 14.728 8.53902 14.7429 8.49997 14.7429C8.46092 14.7429 8.36826 14.728 8.25865 14.5925L8.25719 14.5907L6.98363 13.0235L6.98367 13.0234L6.9776 13.0161C6.78532 12.7841 6.53604 12.6264 6.3265 12.5287C6.11445 12.4298 5.83272 12.3407 5.52836 12.3407H5.10385C3.41912 12.3407 2.47243 12.1307 1.92 11.6854C1.42688 11.288 1.02026 10.5015 1.02026 8.64888V4.73087C1.02026 3.45563 1.33716 2.62428 1.82901 2.09034C2.32035 1.55693 3.12009 1.17509 4.38655 1.07515L4.40455 1.07373L4.42249 1.07166C4.62564 1.04823 4.84964 1.03906 5.10385 1.03906H11.8961C13.453 1.03906 14.4365 1.40101 15.0292 1.9481C15.6069 2.48127 15.9797 3.34507 15.9797 4.73087V8.64888C15.9797 8.87801 15.9699 9.07445 15.9463 9.24929Z" stroke="#06B0BA" stroke-width="2"/>
<mask id="path-2-inside-1_899_67437" fill="white">
<path d="M8.49977 7.87502C7.90544 7.87502 7.43848 7.43424 7.43848 6.89552C7.43848 6.35679 7.91606 5.91602 8.49977 5.91602C9.08344 5.91602 9.56102 6.35679 9.56102 6.89552C9.56102 7.43424 9.09406 7.87502 8.49977 7.87502Z"/>
</mask>
<path d="M8.49977 7.87502C7.90544 7.87502 7.43848 7.43424 7.43848 6.89552C7.43848 6.35679 7.91606 5.91602 8.49977 5.91602C9.08344 5.91602 9.56102 6.35679 9.56102 6.89552C9.56102 7.43424 9.09406 7.87502 8.49977 7.87502Z" fill="#06B0BA"/>
<path d="M8.49977 5.87502C8.86947 5.87502 9.43848 6.19418 9.43848 6.89552H5.43848C5.43848 8.6743 6.94142 9.87502 8.49977 9.87502V5.87502ZM9.43848 6.89552C9.43848 7.60935 8.86658 7.91602 8.49977 7.91602V3.91602C6.96553 3.91602 5.43848 5.10423 5.43848 6.89552H9.43848ZM8.49977 7.91602C8.13288 7.91602 7.56102 7.60932 7.56102 6.89552H11.561C11.561 5.10426 10.034 3.91602 8.49977 3.91602V7.91602ZM7.56102 6.89552C7.56102 6.19422 8.12999 5.87502 8.49977 5.87502V9.87502C10.0581 9.87502 11.561 8.67427 11.561 6.89552H7.56102Z" fill="#06B0BA" mask="url(#path-2-inside-1_899_67437)"/>
<mask id="path-4-inside-2_899_67437" fill="white">
<path d="M12.2155 7.87502C11.6211 7.87502 11.1542 7.43424 11.1542 6.89552C11.1542 6.35679 11.6318 5.91602 12.2155 5.91602C12.7992 5.91602 13.2768 6.35679 13.2768 6.89552C13.2768 7.43424 12.7992 7.87502 12.2155 7.87502Z"/>
</mask>
<path d="M12.2155 7.87502C11.6211 7.87502 11.1542 7.43424 11.1542 6.89552C11.1542 6.35679 11.6318 5.91602 12.2155 5.91602C12.7992 5.91602 13.2768 6.35679 13.2768 6.89552C13.2768 7.43424 12.7992 7.87502 12.2155 7.87502Z" fill="#06B0BA"/>
<path d="M12.2155 5.87502C12.5852 5.87502 13.1542 6.19418 13.1542 6.89552H9.15417C9.15417 8.6743 10.6571 9.87502 12.2155 9.87502V5.87502ZM13.1542 6.89552C13.1542 7.60935 12.5823 7.91602 12.2155 7.91602V3.91602C10.6812 3.91602 9.15417 5.10423 9.15417 6.89552H13.1542ZM12.2155 7.91602C11.8486 7.91602 11.2768 7.60935 11.2768 6.89552H15.2768C15.2768 5.10423 13.7497 3.91602 12.2155 3.91602V7.91602ZM11.2768 6.89552C11.2768 6.18168 11.8486 5.87502 12.2155 5.87502V9.87502C13.7497 9.87502 15.2768 8.68681 15.2768 6.89552H11.2768Z" fill="#06B0BA" mask="url(#path-4-inside-2_899_67437)"/>
<mask id="path-6-inside-3_899_67437" fill="white">
<path d="M4.7859 7.87502C4.19158 7.87502 3.72461 7.43424 3.72461 6.89552C3.72461 6.35679 4.20219 5.91602 4.7859 5.91602C5.36961 5.91602 5.84719 6.35679 5.84719 6.89552C5.84719 7.43424 5.36961 7.87502 4.7859 7.87502Z"/>
</mask>
<path d="M4.7859 7.87502C4.19158 7.87502 3.72461 7.43424 3.72461 6.89552C3.72461 6.35679 4.20219 5.91602 4.7859 5.91602C5.36961 5.91602 5.84719 6.35679 5.84719 6.89552C5.84719 7.43424 5.36961 7.87502 4.7859 7.87502Z" fill="#06B0BA"/>
<path d="M4.7859 5.87502C5.1556 5.87502 5.72461 6.19418 5.72461 6.89552H1.72461C1.72461 8.6743 3.22755 9.87502 4.7859 9.87502V5.87502ZM5.72461 6.89552C5.72461 7.60935 5.15272 7.91602 4.7859 7.91602V3.91602C3.25166 3.91602 1.72461 5.10423 1.72461 6.89552H5.72461ZM4.7859 7.91602C4.41908 7.91602 3.84719 7.60935 3.84719 6.89552H7.84719C7.84719 5.10423 6.32013 3.91602 4.7859 3.91602V7.91602ZM3.84719 6.89552C3.84719 6.18168 4.41908 5.87502 4.7859 5.87502V9.87502C6.32013 9.87502 7.84719 8.68681 7.84719 6.89552H3.84719Z" fill="#06B0BA" mask="url(#path-6-inside-3_899_67437)"/>
</svg>
