<svg width="19" height="18" viewBox="0 0 19 18" fill="none" xmlns="http://www.w3.org/2000/svg">
<path d="M9.33963 3.5905C9.82022 3.57397 10.1965 3.17091 10.1799 2.69023C10.1635 2.20956 9.76043 1.83329 9.27972 1.84983L9.33963 3.5905ZM4.03631 8.49216L3.16588 8.51886C3.16619 8.52908 3.16668 8.5393 3.16735 8.54952L4.03631 8.49216ZM2.54986 12.4597L3.11836 13.1194C3.13393 13.106 3.14903 13.0921 3.16361 13.0776L2.54986 12.4597ZM2.04041 12.8812L2.55196 13.586C2.56634 13.5756 2.58039 13.5647 2.5941 13.5534L2.04041 12.8812ZM7.04544 15.6772C7.52641 15.6772 7.91632 15.2873 7.91632 14.8064C7.91632 14.3255 7.52641 13.9355 7.04544 13.9355V15.6772ZM9.33963 1.84983C8.85892 1.83329 8.45589 2.20956 8.43929 2.69023C8.4228 3.17091 8.79901 3.57397 9.27972 3.5905L9.33963 1.84983ZM14.583 8.49216L15.452 8.5494C15.4526 8.53918 15.4531 8.52908 15.4535 8.51886L14.583 8.49216ZM16.0694 12.4586L15.4557 13.0764C15.4703 13.0908 15.4854 13.1049 15.501 13.1182L16.0694 12.4586ZM16.5789 12.8801L16.0252 13.5523C16.0387 13.5633 16.0524 13.574 16.0664 13.5842L16.5789 12.8801ZM11.5739 13.9355C11.0929 13.9355 10.703 14.3255 10.703 14.8064C10.703 15.2873 11.0929 15.6772 11.5739 15.6772V13.9355ZM8.43882 2.72017C8.43882 3.20112 8.82873 3.59101 9.30967 3.59101C9.79062 3.59101 10.1805 3.20112 10.1805 2.72017H8.43882ZM10.1805 0.872803C10.1805 0.39185 9.79062 0.00195312 9.30967 0.00195312C8.82873 0.00195312 8.43882 0.39185 8.43882 0.872803H10.1805ZM7.04544 13.9355C6.56449 13.9355 6.17459 14.3255 6.17459 14.8064C6.17459 15.2873 6.56449 15.6772 7.04544 15.6772V13.9355ZM11.5739 15.6772C12.0548 15.6772 12.4447 15.2873 12.4447 14.8064C12.4447 14.3255 12.0548 13.9355 11.5739 13.9355V15.6772ZM7.91632 14.8064C7.91632 14.3255 7.52641 13.9355 7.04544 13.9355C6.56449 13.9355 6.17459 14.3255 6.17459 14.8064H7.91632ZM12.4447 14.8064C12.4447 14.3255 12.0548 13.9355 11.5739 13.9355C11.0929 13.9355 10.703 14.3255 10.703 14.8064H12.4447ZM9.27972 1.84983C5.77096 1.97051 3.05708 4.97394 3.16588 8.51886L4.90675 8.46545C4.82611 5.83796 6.83063 3.6768 9.33963 3.5905L9.27972 1.84983ZM3.16735 8.54952C3.2489 9.78426 2.79534 10.9884 1.93611 11.8419L3.16361 13.0776C4.38555 11.8636 5.01953 10.1649 4.90526 8.4348L3.16735 8.54952ZM1.98136 11.8001C1.79942 11.9569 1.6465 12.0775 1.48672 12.2091L2.5941 13.5534C2.72187 13.4481 2.91764 13.2924 3.11836 13.1194L1.98136 11.8001ZM1.52887 12.1764C1.27428 12.3613 1.04293 12.6253 0.87048 12.9041C0.700165 13.1793 0.537211 13.5498 0.516334 13.9597C0.493495 14.408 0.647925 14.9066 1.1067 15.2574C1.51714 15.5714 2.05798 15.6772 2.63023 15.6772V13.9355C2.44059 13.9355 2.31514 13.917 2.23818 13.8973C2.16187 13.878 2.14829 13.8614 2.16474 13.8739C2.18603 13.8903 2.2176 13.9249 2.23842 13.9747C2.25733 14.0201 2.2557 14.0498 2.25578 14.0484C2.25594 14.045 2.25825 14.0207 2.27483 13.9749C2.29103 13.9302 2.31655 13.8771 2.35157 13.8206C2.3864 13.7643 2.426 13.7119 2.46524 13.6683C2.50559 13.6232 2.53695 13.5968 2.55196 13.586L1.52887 12.1764ZM2.63023 15.6772H7.04544V13.9355H2.63023V15.6772ZM9.27972 3.5905C11.7887 3.6768 13.7932 5.83796 13.7126 8.46545L15.4535 8.51886C15.5623 4.97394 12.8483 1.97051 9.33963 1.84983L9.27972 3.5905ZM13.7141 8.43491C13.6002 10.1647 14.2342 11.8628 15.4557 13.0764L16.6832 11.8407C15.8242 10.9874 15.3707 9.7838 15.452 8.5494L13.7141 8.43491ZM15.501 13.1182C15.7017 13.2912 15.8975 13.4469 16.0252 13.5523L17.1326 12.2079C16.9728 12.0763 16.8199 11.9557 16.6379 11.7989L15.501 13.1182ZM16.0664 13.5842C16.082 13.5955 16.1138 13.6223 16.1544 13.6677C16.194 13.7118 16.234 13.7644 16.2692 13.8211C16.3045 13.878 16.3302 13.9313 16.3466 13.9762C16.3633 14.0222 16.3658 14.0467 16.3659 14.0499C16.366 14.0513 16.3643 14.0212 16.3833 13.9755C16.4042 13.9251 16.4361 13.8903 16.4576 13.8738C16.4741 13.8611 16.4605 13.8777 16.3839 13.8972C16.3065 13.917 16.1806 13.9355 15.9903 13.9355V15.6772C16.563 15.6772 17.1046 15.5715 17.5153 15.2575C17.975 14.9061 18.1289 14.4066 18.1051 13.958C18.0834 13.5478 17.9196 13.1776 17.749 12.9026C17.5762 12.6242 17.3449 12.3606 17.0914 12.176L16.0664 13.5842ZM15.9903 13.9355H11.5739V15.6772H15.9903V13.9355ZM10.1805 2.72017V0.872803H8.43882V2.72017H10.1805ZM7.04544 15.6772H11.5739V13.9355H7.04544V15.6772ZM6.17459 14.8064C6.17459 16.549 7.55752 17.9995 9.30967 17.9995V16.2578C8.56074 16.2578 7.91632 15.6289 7.91632 14.8064H6.17459ZM9.30967 17.9995C11.0617 17.9995 12.4447 16.549 12.4447 14.8064H10.703C10.703 15.6289 10.0585 16.2578 9.30967 16.2578V17.9995Z" fill="#3C3F43"/>
</svg>
