<svg width="327" height="86" viewBox="0 0 327 86" fill="none" xmlns="http://www.w3.org/2000/svg">
<rect y="0.436523" width="327" height="85" rx="16" fill="white" fill-opacity="0.92"/>
<rect x="41" y="19.4365" width="52" height="8" rx="4" fill="#8E8E93" fill-opacity="0.2"/>
<path d="M17.6719 56.9294C17.6188 56.4588 17.4001 56.0942 17.0156 55.8357C16.6312 55.5738 16.1473 55.4429 15.5639 55.4429C15.1463 55.4429 14.785 55.5092 14.4801 55.6418C14.1752 55.771 13.9382 55.95 13.7692 56.1787C13.6035 56.4041 13.5206 56.661 13.5206 56.9493C13.5206 57.1913 13.5769 57.4001 13.6896 57.5757C13.8056 57.7514 13.9564 57.8989 14.142 58.0182C14.331 58.1342 14.5331 58.232 14.7486 58.3115C14.964 58.3878 15.1712 58.4507 15.37 58.5004L16.3643 58.759C16.6892 58.8385 17.0223 58.9462 17.3636 59.0821C17.705 59.218 18.0215 59.397 18.3132 59.6191C18.6049 59.8411 18.8402 60.1162 19.0192 60.4443C19.2015 60.7725 19.2926 61.1652 19.2926 61.6226C19.2926 62.1993 19.1435 62.7114 18.8452 63.1588C18.5502 63.6063 18.121 63.9593 17.5575 64.2178C16.9974 64.4763 16.3196 64.6056 15.5241 64.6056C14.7618 64.6056 14.1023 64.4846 13.5455 64.2426C12.9886 64.0007 12.5528 63.6576 12.2379 63.2135C11.9231 62.7661 11.7491 62.2358 11.7159 61.6226H13.2571C13.2869 61.9905 13.4063 62.2971 13.6151 62.5423C13.8272 62.7843 14.0973 62.9649 14.4254 63.0843C14.7569 63.2003 15.1198 63.2583 15.5142 63.2583C15.9484 63.2583 16.3345 63.1903 16.6726 63.0544C17.014 62.9152 17.2824 62.723 17.478 62.4777C17.6735 62.2291 17.7713 61.9391 17.7713 61.6077C17.7713 61.3061 17.6851 61.0592 17.5128 60.8669C17.3438 60.6747 17.1134 60.5156 16.8217 60.3896C16.5334 60.2637 16.2069 60.1527 15.8423 60.0566L14.6392 59.7284C13.8239 59.5064 13.1776 59.1799 12.7003 58.749C12.2263 58.3182 11.9893 57.7481 11.9893 57.0388C11.9893 56.4521 12.1484 55.9401 12.4666 55.5026C12.7848 55.0651 13.2157 54.7253 13.7592 54.4834C14.3028 54.2381 14.916 54.1155 15.5987 54.1155C16.2881 54.1155 16.8963 54.2365 17.4233 54.4784C17.9536 54.7204 18.3712 55.0535 18.6761 55.4777C18.9811 55.8986 19.1402 56.3825 19.1534 56.9294H17.6719ZM24.3002 64.5906C23.5479 64.5906 22.8999 64.4299 22.3564 64.1084C21.8161 63.7836 21.3985 63.3279 21.1035 62.7412C20.8118 62.1512 20.666 61.4602 20.666 60.6681C20.666 59.8859 20.8118 59.1965 21.1035 58.5999C21.3985 58.0033 21.8095 57.5376 22.3365 57.2029C22.8668 56.8681 23.4866 56.7007 24.1958 56.7007C24.6267 56.7007 25.0443 56.772 25.4487 56.9145C25.853 57.057 26.216 57.2807 26.5375 57.5857C26.859 57.8906 27.1125 58.2867 27.2981 58.7739C27.4837 59.2578 27.5765 59.8461 27.5765 60.5388V61.0658H21.5062V59.9521H26.1199C26.1199 59.561 26.0403 59.2147 25.8812 58.9131C25.7221 58.6082 25.4984 58.3679 25.21 58.1922C24.925 58.0165 24.5903 57.9287 24.2058 57.9287C23.7882 57.9287 23.4236 58.0315 23.112 58.2369C22.8038 58.4391 22.5652 58.7043 22.3961 59.0324C22.2304 59.3572 22.1475 59.7102 22.1475 60.0914V60.9614C22.1475 61.4718 22.237 61.906 22.416 62.2639C22.5983 62.6219 22.8519 62.8953 23.1767 63.0843C23.5015 63.2699 23.881 63.3627 24.3152 63.3627C24.5969 63.3627 24.8538 63.3229 25.0858 63.2433C25.3178 63.1605 25.5183 63.0378 25.6873 62.8754C25.8564 62.713 25.9856 62.5125 26.0751 62.2739L27.4821 62.5274C27.3694 62.9417 27.1672 63.3047 26.8755 63.6162C26.5872 63.9244 26.2243 64.1647 25.7868 64.3371C25.3526 64.5061 24.8571 64.5906 24.3002 64.5906ZM31.4482 64.6056C30.9643 64.6056 30.5268 64.5161 30.1357 64.3371C29.7446 64.1548 29.4347 63.8913 29.206 63.5466C28.9806 63.2019 28.8679 62.7793 28.8679 62.2789C28.8679 61.848 28.9508 61.4933 29.1165 61.2149C29.2822 60.9365 29.5059 60.7161 29.7876 60.5537C30.0694 60.3913 30.3842 60.2687 30.7322 60.1858C31.0803 60.103 31.4349 60.04 31.7962 59.9969C32.2536 59.9439 32.6248 59.9008 32.9098 59.8676C33.1948 59.8312 33.402 59.7732 33.5312 59.6936C33.6605 59.6141 33.7251 59.4848 33.7251 59.3058V59.271C33.7251 58.8369 33.6025 58.5004 33.3572 58.2618C33.1153 58.0232 32.754 57.9039 32.2734 57.9039C31.773 57.9039 31.3786 58.0149 31.0902 58.2369C30.8052 58.4557 30.608 58.6993 30.4986 58.9678L29.1016 58.6496C29.2673 58.1856 29.5092 57.811 29.8274 57.526C30.1489 57.2377 30.5185 57.0289 30.9361 56.8996C31.3537 56.767 31.7929 56.7007 32.2536 56.7007C32.5585 56.7007 32.8816 56.7372 33.223 56.8101C33.5677 56.8797 33.8892 57.009 34.1875 57.1979C34.4891 57.3868 34.736 57.6569 34.9283 58.0083C35.1205 58.3563 35.2166 58.8087 35.2166 59.3655V64.4365H33.7649V63.3925H33.7053C33.6091 63.5847 33.465 63.7736 33.2727 63.9593C33.0805 64.1449 32.8336 64.299 32.532 64.4216C32.2304 64.5442 31.8691 64.6056 31.4482 64.6056ZM31.7713 63.4124C32.1823 63.4124 32.5336 63.3312 32.8253 63.1688C33.1203 63.0064 33.344 62.7942 33.4964 62.5324C33.6522 62.2673 33.7301 61.9839 33.7301 61.6823V60.6979C33.6771 60.7509 33.5743 60.8006 33.4219 60.847C33.2727 60.8901 33.102 60.9282 32.9098 60.9614C32.7176 60.9912 32.5303 61.0194 32.348 61.0459C32.1657 61.0691 32.0133 61.089 31.8906 61.1056C31.6023 61.142 31.3388 61.2033 31.1001 61.2895C30.8648 61.3757 30.6759 61.5 30.5334 61.6624C30.3942 61.8215 30.3246 62.0336 30.3246 62.2987C30.3246 62.6666 30.4605 62.945 30.7322 63.134C31.004 63.3196 31.3504 63.4124 31.7713 63.4124ZM38.6831 59.9024V64.4365H37.1966V56.8002H38.6234V58.0431H38.7179C38.8935 57.6387 39.1686 57.3139 39.5431 57.0686C39.921 56.8234 40.3966 56.7007 40.97 56.7007C41.4904 56.7007 41.9461 56.8101 42.3372 57.0289C42.7283 57.2443 43.0315 57.5658 43.247 57.9933C43.4624 58.4209 43.5701 58.9495 43.5701 59.5793V64.4365H42.0836V59.7583C42.0836 59.2048 41.9395 58.7722 41.6511 58.4607C41.3627 58.1458 40.9667 57.9884 40.4629 57.9884C40.1182 57.9884 39.8116 58.0629 39.5431 58.2121C39.278 58.3612 39.0675 58.58 38.9118 58.8683C38.7593 59.1534 38.6831 59.4981 38.6831 59.9024ZM52.56 64.5906C51.8076 64.5906 51.1597 64.4299 50.6161 64.1084C50.0759 63.7836 49.6583 63.3279 49.3633 62.7412C49.0716 62.1512 48.9258 61.4602 48.9258 60.6681C48.9258 59.8859 49.0716 59.1965 49.3633 58.5999C49.6583 58.0033 50.0692 57.5376 50.5962 57.2029C51.1265 56.8681 51.7463 56.7007 52.4556 56.7007C52.8865 56.7007 53.3041 56.772 53.7085 56.9145C54.1128 57.057 54.4757 57.2807 54.7972 57.5857C55.1187 57.8906 55.3723 58.2867 55.5579 58.7739C55.7435 59.2578 55.8363 59.8461 55.8363 60.5388V61.0658H49.766V59.9521H54.3796C54.3796 59.561 54.3001 59.2147 54.141 58.9131C53.9819 58.6082 53.7582 58.3679 53.4698 58.1922C53.1848 58.0165 52.85 57.9287 52.4656 57.9287C52.0479 57.9287 51.6834 58.0315 51.3718 58.2369C51.0636 58.4391 50.8249 58.7043 50.6559 59.0324C50.4902 59.3572 50.4073 59.7102 50.4073 60.0914V60.9614C50.4073 61.4718 50.4968 61.906 50.6758 62.2639C50.8581 62.6219 51.1116 62.8953 51.4364 63.0843C51.7612 63.2699 52.1407 63.3627 52.5749 63.3627C52.8567 63.3627 53.1135 63.3229 53.3455 63.2433C53.5775 63.1605 53.7781 63.0378 53.9471 62.8754C54.1161 62.713 54.2454 62.5125 54.3349 62.2739L55.7418 62.5274C55.6291 62.9417 55.427 63.3047 55.1353 63.6162C54.8469 63.9244 54.484 64.1647 54.0465 64.3371C53.6123 64.5061 53.1168 64.5906 52.56 64.5906ZM59.7079 64.6056C59.224 64.6056 58.7865 64.5161 58.3954 64.3371C58.0043 64.1548 57.6944 63.8913 57.4657 63.5466C57.2404 63.2019 57.1277 62.7793 57.1277 62.2789C57.1277 61.848 57.2105 61.4933 57.3762 61.2149C57.542 60.9365 57.7657 60.7161 58.0474 60.5537C58.3291 60.3913 58.644 60.2687 58.992 60.1858C59.34 60.103 59.6947 60.04 60.0559 59.9969C60.5133 59.9439 60.8845 59.9008 61.1696 59.8676C61.4546 59.8312 61.6618 59.7732 61.791 59.6936C61.9203 59.6141 61.9849 59.4848 61.9849 59.3058V59.271C61.9849 58.8369 61.8623 58.5004 61.617 58.2618C61.3751 58.0232 61.0138 57.9039 60.5332 57.9039C60.0327 57.9039 59.6383 58.0149 59.35 58.2369C59.0649 58.4557 58.8677 58.6993 58.7583 58.9678L57.3613 58.6496C57.527 58.1856 57.769 57.811 58.0872 57.526C58.4087 57.2377 58.7782 57.0289 59.1958 56.8996C59.6135 56.767 60.0526 56.7007 60.5133 56.7007C60.8182 56.7007 61.1414 56.7372 61.4828 56.8101C61.8275 56.8797 62.149 57.009 62.4473 57.1979C62.7489 57.3868 62.9958 57.6569 63.188 58.0083C63.3803 58.3563 63.4764 58.8087 63.4764 59.3655V64.4365H62.0247V63.3925H61.965C61.8689 63.5847 61.7247 63.7736 61.5325 63.9593C61.3403 64.1449 61.0933 64.299 60.7917 64.4216C60.4901 64.5442 60.1288 64.6056 59.7079 64.6056ZM60.0311 63.4124C60.4421 63.4124 60.7934 63.3312 61.085 63.1688C61.38 63.0064 61.6038 62.7942 61.7562 62.5324C61.912 62.2673 61.9899 61.9839 61.9899 61.6823V60.6979C61.9368 60.7509 61.8341 60.8006 61.6816 60.847C61.5325 60.8901 61.3618 60.9282 61.1696 60.9614C60.9773 60.9912 60.7901 61.0194 60.6078 61.0459C60.4255 61.0691 60.273 61.089 60.1504 61.1056C59.862 61.142 59.5985 61.2033 59.3599 61.2895C59.1246 61.3757 58.9357 61.5 58.7931 61.6624C58.6539 61.8215 58.5843 62.0336 58.5843 62.2987C58.5843 62.6666 58.7202 62.945 58.992 63.134C59.2638 63.3196 59.6101 63.4124 60.0311 63.4124ZM65.4563 64.4365V56.8002H66.8931V58.0132H66.9727C67.1119 57.6022 67.3571 57.2791 67.7085 57.0438C68.0631 56.8051 68.4641 56.6858 68.9116 56.6858C69.0044 56.6858 69.1138 56.6891 69.2397 56.6958C69.369 56.7024 69.4701 56.7107 69.543 56.7206V58.1425C69.4833 58.1259 69.3772 58.1077 69.2248 58.0878C69.0723 58.0646 68.9199 58.053 68.7674 58.053C68.4161 58.053 68.1029 58.1276 67.8278 58.2767C67.556 58.4226 67.3406 58.6264 67.1815 58.8882C67.0224 59.1468 66.9428 59.4417 66.9428 59.7732V64.4365H65.4563ZM72.3159 59.9024V64.4365H70.8294V56.8002H72.2562V58.0431H72.3507C72.5263 57.6387 72.8014 57.3139 73.176 57.0686C73.5538 56.8234 74.0294 56.7007 74.6028 56.7007C75.1232 56.7007 75.5789 56.8101 75.97 57.0289C76.3611 57.2443 76.6644 57.5658 76.8798 57.9933C77.0952 58.4209 77.2029 58.9495 77.2029 59.5793V64.4365H75.7164V59.7583C75.7164 59.2048 75.5723 58.7722 75.2839 58.4607C74.9956 58.1458 74.5995 57.9884 74.0957 57.9884C73.751 57.9884 73.4444 58.0629 73.176 58.2121C72.9108 58.3612 72.7003 58.58 72.5446 58.8683C72.3921 59.1534 72.3159 59.4981 72.3159 59.9024ZM82.4877 64.5906C81.7354 64.5906 81.0874 64.4299 80.5439 64.1084C80.0036 63.7836 79.586 63.3279 79.291 62.7412C78.9993 62.1512 78.8535 61.4602 78.8535 60.6681C78.8535 59.8859 78.9993 59.1965 79.291 58.5999C79.586 58.0033 79.997 57.5376 80.524 57.2029C81.0543 56.8681 81.6741 56.7007 82.3833 56.7007C82.8142 56.7007 83.2318 56.772 83.6362 56.9145C84.0405 57.057 84.4035 57.2807 84.725 57.5857C85.0465 57.8906 85.3 58.2867 85.4856 58.7739C85.6712 59.2578 85.764 59.8461 85.764 60.5388V61.0658H79.6937V59.9521H84.3074C84.3074 59.561 84.2278 59.2147 84.0687 58.9131C83.9096 58.6082 83.6859 58.3679 83.3975 58.1922C83.1125 58.0165 82.7778 57.9287 82.3933 57.9287C81.9757 57.9287 81.6111 58.0315 81.2995 58.2369C80.9913 58.4391 80.7527 58.7043 80.5836 59.0324C80.4179 59.3572 80.335 59.7102 80.335 60.0914V60.9614C80.335 61.4718 80.4245 61.906 80.6035 62.2639C80.7858 62.6219 81.0394 62.8953 81.3642 63.0843C81.689 63.2699 82.0685 63.3627 82.5027 63.3627C82.7844 63.3627 83.0413 63.3229 83.2733 63.2433C83.5053 63.1605 83.7058 63.0378 83.8748 62.8754C84.0439 62.713 84.1731 62.5125 84.2626 62.2739L85.6696 62.5274C85.5569 62.9417 85.3547 63.3047 85.063 63.6162C84.7747 63.9244 84.4118 64.1647 83.9743 64.3371C83.5401 64.5061 83.0446 64.5906 82.4877 64.5906ZM90.272 64.5857C89.6555 64.5857 89.1054 64.4282 88.6214 64.1134C88.1409 63.7952 87.763 63.3428 87.4879 62.7561C87.2161 62.1662 87.0803 61.4585 87.0803 60.6333C87.0803 59.808 87.2178 59.102 87.4929 58.5154C87.7713 57.9287 88.1525 57.4796 88.6364 57.1681C89.1203 56.8565 89.6688 56.7007 90.282 56.7007C90.7559 56.7007 91.1371 56.7803 91.4254 56.9394C91.7171 57.0951 91.9425 57.2774 92.1016 57.4862C92.264 57.695 92.3899 57.879 92.4794 58.0381H92.5689V54.2547H94.0554V64.4365H92.6037V63.2483H92.4794C92.3899 63.4107 92.2607 63.5963 92.0916 63.8051C91.9259 64.0139 91.6972 64.1962 91.4055 64.352C91.1139 64.5078 90.736 64.5857 90.272 64.5857ZM90.6001 63.3179C91.0277 63.3179 91.389 63.2052 91.6839 62.9798C91.9822 62.7512 92.2076 62.4346 92.3601 62.0303C92.5159 61.6259 92.5938 61.1553 92.5938 60.6183C92.5938 60.088 92.5175 59.624 92.3651 59.2263C92.2126 58.8286 91.9889 58.5187 91.6939 58.2966C91.3989 58.0745 91.0343 57.9635 90.6001 57.9635C90.1527 57.9635 89.7798 58.0795 89.4815 58.3115C89.1832 58.5435 88.9579 58.8601 88.8054 59.2611C88.6563 59.6621 88.5817 60.1146 88.5817 60.6183C88.5817 61.1288 88.6579 61.5878 88.8104 61.9955C88.9628 62.4031 89.1882 62.7263 89.4865 62.9649C89.7881 63.2003 90.1593 63.3179 90.6001 63.3179ZM103.223 64.5757C102.6 64.5757 102.04 64.4564 101.543 64.2178C101.049 63.9758 100.654 63.6444 100.359 63.2235C100.064 62.8025 99.907 62.3219 99.8871 61.7817H101.379C101.415 62.2192 101.609 62.5788 101.96 62.8605C102.312 63.1423 102.732 63.2831 103.223 63.2831C103.614 63.2831 103.96 63.1936 104.262 63.0146C104.567 62.8324 104.806 62.5821 104.978 62.2639C105.154 61.9458 105.241 61.5828 105.241 61.1752C105.241 60.7609 105.152 60.3913 104.973 60.0665C104.794 59.7417 104.547 59.4865 104.232 59.3009C103.921 59.1153 103.563 59.0208 103.158 59.0175C102.85 59.0175 102.54 59.0705 102.229 59.1766C101.917 59.2826 101.665 59.4218 101.473 59.5942L100.066 59.3854L100.638 54.2547H106.236V55.5722H101.915L101.592 58.4209H101.652C101.851 58.2287 102.114 58.0679 102.442 57.9387C102.774 57.8094 103.129 57.7448 103.506 57.7448C104.126 57.7448 104.678 57.8923 105.162 58.1872C105.649 58.4822 106.032 58.8849 106.31 59.3953C106.592 59.9024 106.731 60.4858 106.728 61.1453C106.731 61.8049 106.582 62.3932 106.281 62.9102C105.982 63.4273 105.568 63.835 105.038 64.1333C104.511 64.4282 103.906 64.5757 103.223 64.5757ZM113.278 54.2547L116.112 62.5473H116.226L119.06 54.2547H120.721L117.056 64.4365H115.282L111.618 54.2547H113.278ZM124.523 64.5906C123.807 64.5906 123.182 64.4266 122.648 64.0985C122.115 63.7703 121.7 63.3113 121.405 62.7213C121.11 62.1314 120.963 61.442 120.963 60.6531C120.963 59.861 121.11 59.1683 121.405 58.575C121.7 57.9817 122.115 57.521 122.648 57.1929C123.182 56.8648 123.807 56.7007 124.523 56.7007C125.238 56.7007 125.863 56.8648 126.397 57.1929C126.93 57.521 127.345 57.9817 127.64 58.575C127.935 59.1683 128.082 59.861 128.082 60.6531C128.082 61.442 127.935 62.1314 127.64 62.7213C127.345 63.3113 126.93 63.7703 126.397 64.0985C125.863 64.4266 125.238 64.5906 124.523 64.5906ZM124.528 63.3428C124.992 63.3428 125.376 63.2201 125.681 62.9749C125.986 62.7296 126.211 62.4031 126.357 61.9955C126.506 61.5878 126.581 61.1387 126.581 60.6482C126.581 60.161 126.506 59.7135 126.357 59.3058C126.211 58.8949 125.986 58.5651 125.681 58.3165C125.376 58.0679 124.992 57.9436 124.528 57.9436C124.06 57.9436 123.672 58.0679 123.364 58.3165C123.059 58.5651 122.832 58.8949 122.683 59.3058C122.537 59.7135 122.464 60.161 122.464 60.6482C122.464 61.1387 122.537 61.5878 122.683 61.9955C122.832 62.4031 123.059 62.7296 123.364 62.9749C123.672 63.2201 124.06 63.3428 124.528 63.3428ZM131.228 54.2547V64.4365H129.741V54.2547H131.228ZM136.792 56.8002V57.9933H132.621V56.8002H136.792ZM133.74 54.9706H135.226V62.1943C135.226 62.4827 135.269 62.6998 135.356 62.8456C135.442 62.9881 135.553 63.0859 135.689 63.1389C135.828 63.1887 135.979 63.2135 136.141 63.2135C136.26 63.2135 136.365 63.2052 136.454 63.1887C136.544 63.1721 136.613 63.1588 136.663 63.1489L136.932 64.3769C136.845 64.41 136.723 64.4432 136.564 64.4763C136.405 64.5128 136.206 64.5326 135.967 64.536C135.576 64.5426 135.211 64.473 134.873 64.3271C134.535 64.1813 134.262 63.9559 134.053 63.651C133.844 63.3461 133.74 62.9633 133.74 62.5026V54.9706ZM138.278 64.4365V63.4173L142.414 58.1624V58.0928H138.412V56.8002H144.268V57.884L140.291 63.0743V63.1439H144.408V64.4365H138.278ZM147.141 64.531C146.869 64.531 146.635 64.4349 146.44 64.2426C146.244 64.0471 146.146 63.8118 146.146 63.5367C146.146 63.2649 146.244 63.0329 146.44 62.8406C146.635 62.6451 146.869 62.5473 147.141 62.5473C147.413 62.5473 147.646 62.6451 147.842 62.8406C148.037 63.0329 148.135 63.2649 148.135 63.5367C148.135 63.719 148.089 63.8863 147.996 64.0388C147.906 64.1879 147.787 64.3073 147.638 64.3968C147.489 64.4862 147.323 64.531 147.141 64.531Z" fill="#27272E"/>
<rect x="11.6667" y="18.1032" width="26.6667" height="26.6667" rx="13.3333" fill="white"/>
<rect x="11.6667" y="18.1032" width="26.6667" height="26.6667" rx="13.3333" stroke="#06B0BA" stroke-width="1.33333"/>
<path fill-rule="evenodd" clip-rule="evenodd" d="M31 25.4365L26.3031 37.4365L23.6969 37.4365L19 25.4365L31 25.4365ZM25.0714 34.5184L27.536 27.7166L22.4577 27.7166L24.9222 34.5184H25.0714Z" fill="#00676D"/>
</svg>
