<svg width="86" height="82" viewBox="0 0 86 82" fill="none" xmlns="http://www.w3.org/2000/svg">
<g clip-path="url(#clip0_1018_85935)">
<path d="M85.6945 41.3355L81.7581 46.1761L84.2564 51.8193L79.1361 55.5218L80.0061 61.5894L74.0522 63.8968L73.2471 69.9735L66.8703 70.7407L64.449 76.4144L58.0809 75.5854L54.1964 80.4647L48.2745 78.084L43.1949 81.8351L38.1153 78.084L32.1934 80.4647L28.3089 75.5854L21.9408 76.4144L19.5194 70.7407L13.1427 69.9735L12.3376 63.8968L6.38371 61.5894L7.25366 55.521L2.13341 51.8193L4.63257 46.1761L0.695312 41.3355L4.63257 36.495L2.13341 30.8517L7.25366 27.15L6.38371 21.0816L12.3376 18.7742L13.1436 12.6976L19.5203 11.9304L21.9416 6.25665L28.3089 7.08566L32.1934 2.20636L38.1153 4.58791L43.1949 0.835938L48.2745 4.58791L54.1964 2.20636L58.0818 7.08566L64.449 6.25665L66.8703 11.9304L73.2471 12.6984L74.0522 18.775L80.0061 21.0824L79.1361 27.15L84.2564 30.8517L81.7581 36.495L85.6945 41.3355Z" fill="#06B0BA"/>
<path d="M35.2633 57.3162L25.7734 48.2721L29.3172 44.8951L35.0757 50.3825L56.9835 27.2246L60.7063 30.422L35.2633 57.3162Z" fill="white"/>
</g>
<defs>
<clipPath id="clip0_1018_85935">
<rect width="85" height="81" fill="white" transform="translate(0.695312 0.835938)"/>
</clipPath>
</defs>
</svg>
