<svg width="11" height="11" viewBox="0 0 11 11" fill="none" xmlns="http://www.w3.org/2000/svg">
<path d="M6.54629 1.2001C6.54629 0.622523 6.07805 0.154297 5.50049 0.154297C4.92293 0.154297 4.45469 0.622523 4.45469 1.2001V4.3375H1.31729C0.73971 4.3375 0.271484 4.80574 0.271484 5.3833C0.271484 5.96086 0.73971 6.4291 1.31729 6.4291H4.45469V9.5665C4.45469 10.1441 4.92293 10.6123 5.50049 10.6123C6.07805 10.6123 6.54629 10.1441 6.54629 9.5665V6.4291H9.68369C10.2613 6.4291 10.7295 5.96086 10.7295 5.3833C10.7295 4.80574 10.2613 4.3375 9.68369 4.3375H6.54629V1.2001Z" fill="#06B0BA"/>
</svg>
