<svg width="38" height="38" viewBox="0 0 38 38" fill="none" xmlns="http://www.w3.org/2000/svg">
<path d="M35.0336 0.420898H2.33557C1.04567 0.420898 0 1.46657 0 2.75647V35.4545C0 36.7444 1.04567 37.79 2.33557 37.79H35.0336C36.3235 37.79 37.3691 36.7444 37.3691 35.4545V2.75647C37.3691 1.46657 36.3235 0.420898 35.0336 0.420898Z" fill="#007DBB"/>
<path d="M3.20337 5.07601C3.02117 5.16102 2.83419 5.23541 2.64338 5.2988C2.3965 5.37708 2.23994 5.4373 2.17371 5.46138V4.44978C2.42539 4.35275 2.66902 4.23597 2.9023 4.10054C3.12527 3.98974 3.32866 3.8433 3.50445 3.66699H4.57025V10.7964H3.20337V5.07601Z" fill="white"/>
<path d="M7.31604 9.10436H5.16638V8.03254L7.03905 3.66699H8.54442V8.07469H9.25495V9.10436H8.54442V10.7964H7.34013L7.31604 9.10436ZM7.31604 8.07469V5.06396L6.23218 8.07469H7.31604Z" fill="white"/>
<path d="M11.9467 6.38869V3.66699H12.4585V6.04546H13.1208V6.38869H11.9467Z" fill="white"/>
<path d="M13.2593 6.38869V3.66699H13.753V6.38869H13.2593Z" fill="white"/>
<path d="M14.0721 6.38869V3.66699H15.1921V4.01021H14.59V4.79902H15.1018V5.14826H14.59V6.38869H14.0721Z" fill="white"/>
<path d="M15.3486 6.38869V3.66699H16.4927V4.01624H15.8484V4.79902H16.3542V5.14225H15.8484V6.04546H16.4987V6.38869H15.3486Z" fill="white"/>
<path d="M11.9467 10.8375V8.11577H12.615C12.7242 8.11271 12.8334 8.12282 12.9402 8.14587C13.0314 8.16655 13.1174 8.20546 13.1931 8.26027C13.2662 8.31362 13.3226 8.38674 13.3557 8.47103C13.4003 8.57974 13.4209 8.69684 13.4159 8.81426C13.4171 8.91073 13.4008 9.00663 13.3677 9.09727C13.3416 9.17051 13.2958 9.23512 13.2352 9.28393C13.1696 9.32797 13.096 9.35866 13.0185 9.37425C13.1157 9.38714 13.2074 9.42674 13.2834 9.48866C13.357 9.54531 13.4116 9.62302 13.44 9.71145C13.4784 9.81752 13.4968 9.92983 13.4942 10.0426C13.4955 10.1588 13.4793 10.2745 13.446 10.3859C13.4192 10.4807 13.3696 10.5676 13.3015 10.6388C13.2331 10.7059 13.1509 10.7573 13.0606 10.7893C12.9535 10.8227 12.8417 10.8389 12.7294 10.8375H11.9467ZM12.4585 9.20565H12.6271C12.7057 9.21101 12.7844 9.19651 12.8559 9.16349C12.9089 9.13479 12.9496 9.08768 12.9703 9.03103C12.9912 8.95658 13.0013 8.87953 13.0004 8.80221C13.0072 8.72479 12.9904 8.64713 12.9522 8.57942C12.9371 8.55226 12.9163 8.52859 12.8915 8.50992C12.8666 8.49125 12.838 8.478 12.8077 8.47103C12.7251 8.44992 12.6401 8.43979 12.5548 8.44092H12.4585V9.20565ZM12.4585 10.4702H12.6512C12.7064 10.4774 12.7625 10.4713 12.8148 10.4525C12.8672 10.4336 12.9143 10.4025 12.9522 10.3618C13.015 10.261 13.0445 10.143 13.0365 10.0246C13.0407 9.93234 13.0264 9.84021 12.9944 9.7536C12.9731 9.68906 12.9278 9.63517 12.8679 9.60306C12.796 9.56406 12.7148 9.54533 12.6331 9.54887H12.4585V10.4702Z" fill="white"/>
<path d="M13.7168 10.8379V8.11621H14.8669V8.46546H14.2226V9.24825H14.7284V9.59146H14.2226V10.4947H14.8669V10.8379H13.7168Z" fill="white"/>
<path d="M15.0537 10.8379V8.11621H15.5535V10.4947H16.2098V10.8379H15.0537Z" fill="white"/>
<path d="M17.0769 10.8749C16.9152 10.8827 16.7546 10.8452 16.6132 10.7665C16.5011 10.6937 16.4163 10.5856 16.3723 10.4594C16.3161 10.3073 16.2896 10.1458 16.2941 9.98367V8.96003C16.2896 8.79989 16.3162 8.64039 16.3723 8.49036C16.4135 8.36413 16.4991 8.25715 16.6132 8.18928C16.7552 8.11269 16.9158 8.07724 17.0769 8.08692C17.238 8.07591 17.399 8.11144 17.5405 8.18928C17.6562 8.25688 17.7438 8.3637 17.7874 8.49036C17.8408 8.64113 17.8673 8.8001 17.8657 8.96003V9.98367C17.8666 10.1455 17.8402 10.3064 17.7874 10.4594C17.7419 10.5865 17.6549 10.6947 17.5405 10.7665C17.3997 10.8467 17.2386 10.8844 17.0769 10.8749ZM17.0769 10.5075C17.1419 10.5141 17.2068 10.4946 17.2575 10.4534C17.2992 10.4145 17.3286 10.3643 17.3418 10.3088C17.348 10.2407 17.348 10.1722 17.3418 10.1041V8.84562C17.3483 8.77753 17.3483 8.70898 17.3418 8.64089C17.3288 8.58194 17.2947 8.52978 17.2459 8.49427C17.1971 8.45877 17.1369 8.44238 17.0769 8.44821C17.0121 8.44406 16.948 8.46329 16.8962 8.5024C16.8552 8.53837 16.8276 8.5872 16.8179 8.64089C16.8114 8.70898 16.8114 8.77753 16.8179 8.84562V10.1041C16.8117 10.1722 16.8117 10.2407 16.8179 10.3088C16.8268 10.3645 16.8544 10.4155 16.8962 10.4534C16.948 10.4925 17.0121 10.5117 17.0769 10.5075Z" fill="white"/>
<path d="M18.4136 10.8379L18.0282 8.11621H18.4437L18.6725 9.88049L18.9555 8.12223H19.2927L19.5817 9.88049L19.8045 8.11621H20.214L19.8346 10.8379H19.4312L19.1301 9.03147L18.8291 10.8379H18.4136Z" fill="white"/>
<path d="M21.4182 10.8379L21.0328 8.11621H21.4483L21.6711 9.88049L21.9541 8.12223H22.2973L22.5864 9.88049L22.8092 8.11621H23.2186L22.8393 10.8379H22.4358L22.1287 9.03147L21.8337 10.8379H21.4182Z" fill="white"/>
<path d="M23.2068 10.8379L23.7487 8.11621H24.2786L24.8266 10.8379H24.3629L24.2545 10.2358H23.7848L23.6704 10.8379H23.2068ZM23.8089 9.89254H24.1823L23.9956 8.74847L23.8089 9.89254Z" fill="white"/>
<path d="M25.1396 10.8379V8.47749H24.7061V8.11621H26.0669V8.47749H25.6394V10.8379H25.1396Z" fill="white"/>
<path d="M26.2173 10.8379V8.11621H27.3553V8.46546H26.711V9.24825H27.2229V9.59146H26.711V10.4947H27.3674V10.8379H26.2173Z" fill="white"/>
<path d="M27.5542 10.8376V8.11591H28.2045C28.3633 8.11117 28.5218 8.13149 28.6742 8.17611C28.7938 8.21715 28.8958 8.2979 28.9632 8.40493C29.0351 8.53548 29.0685 8.68371 29.0596 8.83246C29.0697 8.93055 29.0697 9.02942 29.0596 9.1275C29.0442 9.20904 29.0091 9.28556 28.9572 9.3503C28.9073 9.41768 28.838 9.46812 28.7585 9.49481L29.1378 10.8376H28.6381L28.3069 9.59116H28.0841V10.8376H27.5542ZM28.054 9.27804H28.2045C28.2831 9.28265 28.3616 9.2682 28.4333 9.2359C28.4909 9.20958 28.5362 9.16216 28.5598 9.10342C28.5858 9.02587 28.5981 8.94434 28.5959 8.86256C28.6052 8.7543 28.5776 8.64607 28.5176 8.55547C28.4816 8.51765 28.4373 8.48873 28.3882 8.47097C28.3391 8.4532 28.2865 8.44709 28.2346 8.4531H28.054V9.27804Z" fill="white"/>
<path d="M28.7163 27.7225C28.2466 27.0842 25.1937 23.1943 20.8884 23.1943C17.1732 23.1943 13.199 26.5664 13.199 26.5664C13.199 26.5664 11.7057 23.5075 8.65281 23.2124H8.57453C8.54307 23.2139 8.51328 23.227 8.491 23.2493C8.46873 23.2716 8.45557 23.3014 8.4541 23.3328C8.46438 23.3713 8.48063 23.4078 8.50227 23.4412C9.41482 24.7174 9.90544 26.2469 9.90544 27.8158C9.90544 29.3847 9.41482 30.9142 8.50227 32.1904V32.2325C8.49639 32.2542 8.49639 32.2771 8.50227 32.2988C8.50359 32.3293 8.5159 32.3583 8.53693 32.3804C8.55796 32.4025 8.58629 32.4163 8.61668 32.4192H8.68292C11.7478 32.1302 13.2472 29.0653 13.2472 29.0653C13.2472 29.0653 17.2213 32.4373 20.9366 32.4373C25.2118 32.4373 28.2647 28.5474 28.7645 27.9091L28.8006 27.867C28.8085 27.8522 28.8126 27.8356 28.8126 27.8188C28.8126 27.802 28.8085 27.7855 28.8006 27.7706L28.7645 27.7285M23.3452 28.3306C23.0972 28.3318 22.8544 28.2594 22.6477 28.1225C22.4409 27.9856 22.2795 27.7904 22.1837 27.5617C22.088 27.3329 22.0624 27.0809 22.11 26.8375C22.1577 26.5942 22.2765 26.3705 22.4514 26.1947C22.6263 26.0189 22.8494 25.8991 23.0926 25.8502C23.3357 25.8014 23.5878 25.8259 23.817 25.9205C24.0462 26.0151 24.2422 26.1756 24.3801 26.3817C24.518 26.5878 24.5916 26.8302 24.5916 27.0782C24.5916 27.4093 24.4605 27.727 24.2269 27.9617C23.9933 28.1964 23.6763 28.329 23.3452 28.3306Z" fill="white"/>
<path d="M12.9642 19.708V19.6719C12.988 19.6666 13.0127 19.6666 13.0365 19.6719C13.0682 19.6723 13.0985 19.6853 13.1208 19.708C15.4571 21.9299 17.9018 20.1295 18.4136 19.708L18.4618 19.6598H18.5581L18.6063 19.708C19.1181 20.1295 21.5628 21.9299 23.8931 19.708C23.9037 19.6962 23.9167 19.6868 23.9313 19.6806C23.9458 19.6743 23.9616 19.6714 23.9774 19.6719C23.9991 19.666 24.022 19.666 24.0437 19.6719C24.0572 19.6824 24.0693 19.6945 24.0798 19.708C24.5314 20.1536 26.4884 21.8336 28.5538 20.0392C28.5755 20.0139 28.5882 19.9821 28.5899 19.9488V19.0998C28.5899 19.0832 28.5866 19.0668 28.5803 19.0514C28.5739 19.0361 28.5646 19.0222 28.5528 19.0104C28.5411 18.9987 28.5272 18.9894 28.5118 18.983C28.4965 18.9767 28.48 18.9734 28.4634 18.9734L28.4032 19.0035C27.7015 19.3827 26.8973 19.5287 26.107 19.4205C25.3168 19.3122 24.5815 18.9553 24.0076 18.4013L23.9534 18.3532C23.9379 18.3471 23.9207 18.3471 23.9052 18.3532H23.8992C23.8716 18.3599 23.8479 18.3772 23.8329 18.4013C23.303 18.8048 20.8222 20.4607 18.6786 18.4314L18.6424 18.4013C18.6319 18.3895 18.6189 18.3802 18.6043 18.3739C18.5897 18.3677 18.574 18.3647 18.5581 18.3652C18.5422 18.3643 18.5263 18.367 18.5117 18.3733C18.4971 18.3796 18.4841 18.3892 18.4738 18.4013L18.4377 18.4314C16.2579 20.4607 13.8132 18.8048 13.2773 18.4013C13.2718 18.3891 13.2635 18.3783 13.2531 18.37C13.2426 18.3616 13.2303 18.3558 13.2171 18.3532H13.181C13.1633 18.3476 13.1444 18.3476 13.1268 18.3532L13.0726 18.4013C12.4996 18.9548 11.7654 19.3114 10.9762 19.4197C10.187 19.528 9.38378 19.3822 8.68296 19.0035L8.62274 18.9734C8.60613 18.9734 8.58969 18.9767 8.57435 18.983C8.55901 18.9894 8.54507 18.9987 8.53333 19.0104C8.52159 19.0222 8.51227 19.0361 8.50592 19.0514C8.49956 19.0668 8.49629 19.0832 8.49629 19.0998V19.9488C8.4957 19.9656 8.49861 19.9823 8.50483 19.9978C8.51105 20.0134 8.52045 20.0275 8.53242 20.0392C10.5978 21.8456 12.5548 20.1536 13.0064 19.708" fill="white"/>
<path d="M8.60466 15.8779C8.58834 15.877 8.57203 15.8796 8.55672 15.8852C8.54141 15.8909 8.52741 15.8997 8.51559 15.9109C8.50376 15.9222 8.49434 15.9358 8.48792 15.9508C8.48149 15.9658 8.47819 15.982 8.47821 15.9983V16.8533C8.47726 16.8692 8.48003 16.8851 8.4863 16.8998C8.49258 16.9144 8.50217 16.9274 8.51434 16.9376C10.5797 18.7441 12.5367 17.052 12.9883 16.6065V16.5703C13.012 16.5642 13.0368 16.5642 13.0605 16.5703C13.0895 16.5701 13.1175 16.5809 13.1388 16.6004C15.4751 18.8284 17.9198 17.0219 18.4317 16.6004L18.4798 16.5583C18.4953 16.5522 18.5125 16.5522 18.528 16.5583C18.5436 16.5528 18.5606 16.5528 18.5762 16.5583L18.6244 16.6004C19.1362 17.0219 21.5809 18.8284 23.9112 16.6004C23.9349 16.5809 23.9648 16.5703 23.9955 16.5703C24.0171 16.5641 24.0401 16.5641 24.0617 16.5703L24.0979 16.6065C24.5495 17.052 26.5064 18.732 28.5718 16.9376C28.582 16.9105 28.582 16.8805 28.5718 16.8533V15.9983C28.5727 15.9822 28.5701 15.9662 28.5644 15.9512C28.5587 15.9362 28.5498 15.9226 28.5385 15.9112C28.5271 15.8998 28.5135 15.891 28.4985 15.8853C28.4835 15.8795 28.4674 15.877 28.4514 15.8779L28.3912 15.914C27.6892 16.2923 26.8852 16.4378 26.0952 16.3295C25.3051 16.2213 24.5699 15.865 23.9955 15.3118L23.9413 15.2637H23.8931H23.8991C23.8738 15.2746 23.8512 15.2911 23.8329 15.3118C23.303 15.7213 20.8222 17.3772 18.6785 15.342L18.6424 15.3118C18.6195 15.2901 18.5896 15.2773 18.5581 15.2757C18.5264 15.2762 18.4961 15.2892 18.4738 15.3118L18.4377 15.342C16.2579 17.3772 13.8132 15.7213 13.2773 15.3118C13.2627 15.2899 13.2417 15.2731 13.2171 15.2637H13.181H13.1268L13.0786 15.3118C12.5042 15.865 11.769 16.2213 10.9789 16.3295C10.1889 16.4378 9.38492 16.2923 8.68294 15.914L8.62272 15.8779" fill="white"/>
</svg>
