<svg width="20" height="21" viewBox="0 0 20 21" fill="none" xmlns="http://www.w3.org/2000/svg">
<path d="M8.09084 16.8016C9.8445 16.8016 11.4616 16.2236 12.7848 15.2602L17.7622 20.3339C17.9932 20.5694 18.2977 20.6871 18.6233 20.6871C19.3058 20.6871 19.7889 20.1519 19.7889 19.4669C19.7889 19.1458 19.6839 18.8354 19.4528 18.6106L14.5069 13.5583C15.5465 12.1668 16.1661 10.4434 16.1661 8.57023C16.1661 4.04245 12.5327 0.338867 8.09084 0.338867C3.65945 0.338867 0.015625 4.03174 0.015625 8.57023C0.015625 13.098 3.64895 16.8016 8.09084 16.8016ZM8.09084 15.0247C4.62553 15.0247 1.75878 12.1025 1.75878 8.57023C1.75878 5.03792 4.62553 2.11573 8.09084 2.11573C11.5561 2.11573 14.4229 5.03792 14.4229 8.57023C14.4229 12.1025 11.5561 15.0247 8.09084 15.0247Z" fill="#7B7B80"/>
</svg>
