<svg width="17" height="17" viewBox="0 0 17 17" fill="none" xmlns="http://www.w3.org/2000/svg">
<path d="M7.21436 13.0254C8.60059 13.0254 9.87891 12.5771 10.9248 11.8301L14.8594 15.7646C15.042 15.9473 15.2827 16.0386 15.54 16.0386C16.0796 16.0386 16.4614 15.6235 16.4614 15.0923C16.4614 14.8433 16.3784 14.6025 16.1958 14.4282L12.2861 10.5103C13.1079 9.43115 13.5977 8.09473 13.5977 6.64209C13.5977 3.13086 10.7256 0.258789 7.21436 0.258789C3.71143 0.258789 0.831055 3.12256 0.831055 6.64209C0.831055 10.1533 3.70312 13.0254 7.21436 13.0254ZM7.21436 11.6475C4.4751 11.6475 2.20898 9.38135 2.20898 6.64209C2.20898 3.90283 4.4751 1.63672 7.21436 1.63672C9.95361 1.63672 12.2197 3.90283 12.2197 6.64209C12.2197 9.38135 9.95361 11.6475 7.21436 11.6475Z" fill="#27272E" fill-opacity="0.6"/>
</svg>
