<svg width="16" height="14" viewBox="0 0 16 14" fill="none" xmlns="http://www.w3.org/2000/svg">
<path d="M11.1528 0.18555C12.0669 0.185366 12.9613 0.407797 13.7262 0.825555C14.491 1.24331 15.0931 1.83823 15.4584 2.53733C15.8238 3.23642 15.9367 4.00929 15.7832 4.76112C15.6296 5.51295 15.2164 6.21104 14.5941 6.76977L14.4454 6.89644L7.61512 12.5946L7.57364 12.6273L7.52981 12.6566C6.9734 13.0568 6.25627 13.2668 5.52214 13.2444C4.788 13.2221 4.0911 12.9691 3.5711 12.5362C3.0511 12.1033 2.74642 11.5225 2.71812 10.9101C2.68981 10.2977 2.93998 9.69897 3.41848 9.23395L3.53509 9.12687L3.54683 9.11969L9.25245 4.35064C9.3991 4.22803 9.59813 4.15905 9.80574 4.15887C10.0134 4.15868 10.2126 4.22731 10.3595 4.34966C10.5065 4.472 10.5892 4.63804 10.5894 4.81124C10.5896 4.98445 10.5073 5.15063 10.3607 5.27324L4.65509 10.0423L4.64569 10.0475C4.41541 10.2527 4.28564 10.5224 4.28199 10.8034C4.27835 11.0845 4.40108 11.3565 4.62599 11.5657C4.8509 11.775 5.16165 11.9064 5.49694 11.9339C5.83223 11.9614 6.16771 11.8831 6.43721 11.7145L6.53269 11.6492L6.53348 11.6498L13.3442 5.96927L13.4687 5.86153C14.0166 5.35907 14.3083 4.69827 14.282 4.01934C14.2556 3.3404 13.9132 2.69675 13.3274 2.22495C12.7416 1.75314 11.9585 1.49031 11.1442 1.49221C10.33 1.4941 9.54863 1.76059 8.96599 2.23512L8.84468 2.33959L8.83059 2.34742L1.53148 8.43933C1.45876 8.49995 1.37244 8.54803 1.27745 8.58082C1.18246 8.61361 1.08066 8.63047 0.977857 8.63044C0.875056 8.63041 0.773268 8.61349 0.678306 8.58064C0.583343 8.5478 0.497066 8.49966 0.4244 8.439C0.351734 8.37834 0.294102 8.30632 0.254795 8.22708C0.215488 8.14783 0.195276 8.06291 0.195313 7.97714C0.195386 7.80394 0.277932 7.63785 0.424791 7.51542L7.7106 1.43462L7.7466 1.40654C8.18498 1.0203 8.71326 0.712788 9.29909 0.502838C9.88491 0.292888 10.5159 0.184921 11.1535 0.18555H11.1528Z" fill="black"/>
</svg>
