<svg width="16" height="16" viewBox="0 0 16 16" fill="none" xmlns="http://www.w3.org/2000/svg">
<path d="M7.66294 7.71815H2.42094M2.27236 8.43484L1.40631 11.1331C0.931985 12.6109 0.694821 13.3498 0.865021 13.8048C1.01282 14.2 1.33026 14.4995 1.72198 14.6136C2.17304 14.7449 2.85432 14.4251 4.21689 13.7856L12.9522 9.68571C14.2822 9.06145 14.9472 8.7494 15.1526 8.31581C15.3312 7.93913 15.3312 7.49709 15.1526 7.12041C14.9472 6.68691 14.2822 6.37477 12.9522 5.75055L4.20182 1.64361C2.84336 1.00603 2.16414 0.687232 1.71352 0.81801C1.32218 0.931581 1.00477 1.23037 0.856453 1.62479C0.685667 2.07895 0.920297 2.81625 1.38957 4.29085L2.27404 7.07024C2.35464 7.32349 2.39494 7.45016 2.41084 7.57962C2.42496 7.6946 2.42481 7.81093 2.41042 7.92582C2.39419 8.05528 2.35358 8.18177 2.27236 8.43484Z" stroke="white" stroke-width="1.35201" stroke-linecap="round" stroke-linejoin="round"/>
</svg>
