<svg width="21" height="21" viewBox="0 0 21 21" fill="none" xmlns="http://www.w3.org/2000/svg">
<path d="M13 0.5C11.8162 0.501061 10.6495 0.782072 9.59505 1.32009C8.54061 1.8581 7.62835 2.63787 6.93277 3.59572C6.23719 4.55357 5.778 5.66235 5.5927 6.83153C5.4074 8.00071 5.50125 9.19713 5.86656 10.3231L0.469375 15.7194C0.399749 15.7891 0.344539 15.8718 0.306898 15.9629C0.269257 16.0539 0.249923 16.1515 0.25 16.25V20C0.25 20.1989 0.329018 20.3897 0.46967 20.5303C0.610322 20.671 0.801088 20.75 1 20.75H4.75C4.94891 20.75 5.13968 20.671 5.28033 20.5303C5.42098 20.3897 5.5 20.1989 5.5 20V18.5H7C7.19891 18.5 7.38968 18.421 7.53033 18.2803C7.67098 18.1397 7.75 17.9489 7.75 17.75V16.25H9.25C9.34852 16.2501 9.44609 16.2307 9.53714 16.1931C9.62818 16.1555 9.71092 16.1003 9.78063 16.0306L10.6769 15.1334C11.7077 15.4681 12.7988 15.5754 13.875 15.4479C14.9513 15.3205 15.9871 14.9613 16.9112 14.3951C17.8353 13.8289 18.6257 13.0691 19.228 12.1681C19.8303 11.2671 20.2302 10.2463 20.4001 9.17593C20.5701 8.10556 20.506 7.01108 20.2124 5.96785C19.9187 4.92462 19.4025 3.95743 18.6991 3.13286C17.9958 2.3083 17.1222 1.64595 16.1383 1.19143C15.1544 0.736917 14.0838 0.501024 13 0.5ZM13 14C12.2408 14.0013 11.4883 13.8578 10.7828 13.5772C10.6448 13.5173 10.492 13.5003 10.3442 13.5284C10.1964 13.5565 10.0605 13.6283 9.95406 13.7347L8.93969 14.75H7C6.80109 14.75 6.61032 14.829 6.46967 14.9697C6.32902 15.1103 6.25 15.3011 6.25 15.5V17H4.75C4.55109 17 4.36032 17.079 4.21967 17.2197C4.07902 17.3603 4 17.5511 4 17.75V19.25H1.75V16.5603L7.26531 11.0459C7.37165 10.9395 7.44354 10.8036 7.47162 10.6558C7.49971 10.508 7.48271 10.3552 7.42281 10.2172C6.94852 9.02454 6.86918 7.71124 7.19643 6.47017C7.52368 5.2291 8.24029 4.12568 9.24099 3.32197C10.2417 2.51827 11.4737 2.05663 12.7562 2.00488C14.0386 1.95313 15.3039 2.31398 16.3661 3.03444C17.4283 3.7549 18.2315 4.79699 18.6577 6.00765C19.0839 7.21832 19.1106 8.53374 18.734 9.76073C18.3573 10.9877 17.5971 12.0616 16.5651 12.8246C15.533 13.5876 14.2835 13.9996 13 14ZM16 6.125C16 6.3475 15.934 6.56501 15.8104 6.75002C15.6868 6.93502 15.5111 7.07922 15.3055 7.16436C15.1 7.24951 14.8738 7.27179 14.6555 7.22838C14.4373 7.18498 14.2368 7.07783 14.0795 6.9205C13.9222 6.76316 13.815 6.56271 13.7716 6.34448C13.7282 6.12625 13.7505 5.90005 13.8356 5.69448C13.9208 5.48891 14.065 5.31321 14.25 5.1896C14.435 5.06598 14.6525 5 14.875 5C15.1734 5 15.4595 5.11853 15.6705 5.3295C15.8815 5.54048 16 5.82663 16 6.125Z" fill="#3C3F43"/>
</svg>
