<svg width="24" height="24" viewBox="0 0 24 24" fill="none" xmlns="http://www.w3.org/2000/svg">
<path fill-rule="evenodd" clip-rule="evenodd" d="M11.271 22.7539C10.7222 22.7539 10.2539 22.3465 10.1645 21.791C10.0822 21.3417 9.76678 20.9745 9.34248 20.8343C8.99675 20.7125 8.65869 20.5689 8.33029 20.4043C7.93951 20.1992 7.47072 20.23 7.10848 20.4841C6.67011 20.8074 6.06791 20.7573 5.68602 20.3659L4.20068 18.8424C3.80093 18.4324 3.74899 17.786 4.0779 17.3144C4.33155 16.9343 4.36809 16.4443 4.17373 16.029C4.04566 15.7406 3.9327 15.4453 3.83533 15.1444C3.69587 14.6704 3.31095 14.3153 2.83661 14.223C2.26462 14.1293 1.84234 13.6255 1.8379 13.0313V11.1255C1.83486 10.4407 2.31711 9.85498 2.97587 9.74333C3.47562 9.64582 3.89292 9.29475 4.08389 8.81116C4.14079 8.67498 4.20068 8.53984 4.26357 8.40573C4.51754 7.90422 4.48247 7.30018 4.17222 6.83316C3.78425 6.28012 3.84382 5.52026 4.31297 5.03791L5.40452 3.91837C5.94288 3.36601 6.79195 3.29452 7.41093 3.74944L7.44537 3.77401C7.90757 4.09307 8.49572 4.15086 9.00857 3.92759C9.55723 3.72504 9.96167 3.24149 10.0732 2.65448L10.0882 2.60226C10.2114 1.82515 10.8657 1.25423 11.6334 1.25391H12.9511C13.7394 1.25354 14.4122 1.83835 14.5412 2.63605L14.5651 2.74355C14.6709 3.30588 15.0544 3.77128 15.5773 3.97212C16.0813 4.19399 16.6609 4.13604 17.1136 3.81855L17.1884 3.76326C17.8234 3.29386 18.6967 3.36605 19.2503 3.93373L20.2549 4.96573C20.7585 5.48504 20.8218 6.30169 20.4047 6.89612C20.0779 7.39295 20.0363 8.0314 20.2953 8.56851L20.3598 8.72208C20.5696 9.24653 21.0237 9.62662 21.5666 9.73258C22.2762 9.8513 22.7981 10.4788 22.8004 11.2161V12.9253C22.8002 13.5756 22.3417 14.1303 21.7163 14.2368C21.202 14.338 20.7831 14.72 20.6247 15.232C20.5549 15.4367 20.477 15.6416 20.3912 15.8463C20.1914 16.2962 20.2357 16.8205 20.508 17.2284C20.8672 17.741 20.8115 18.4452 20.3763 18.8916L18.9823 20.3229C18.5836 20.7317 17.9549 20.7844 17.497 20.4473C17.1146 20.1793 16.6193 20.1498 16.2093 20.3705C15.917 20.519 15.6171 20.6507 15.3109 20.7652C14.8826 20.9167 14.5668 21.2927 14.4843 21.7495C14.397 22.3244 13.9164 22.7496 13.3493 22.7539H11.271Z" stroke="#00676D" stroke-width="2" stroke-linecap="round" stroke-linejoin="round"/>
<path fill-rule="evenodd" clip-rule="evenodd" d="M15.8127 12.0037C15.8127 13.9825 14.2487 15.5866 12.3194 15.5866C10.3901 15.5866 8.82617 13.9825 8.82617 12.0037C8.82617 10.025 10.3901 8.4209 12.3194 8.4209C14.2487 8.4209 15.8127 10.025 15.8127 12.0037Z" stroke="#00676D" stroke-width="2" stroke-linecap="round" stroke-linejoin="round"/>
</svg>
