<svg width="19" height="19" viewBox="0 0 19 19" fill="none" xmlns="http://www.w3.org/2000/svg">
<path d="M3.46899 7.53104L0.468988 4.53104C0.399256 4.46139 0.343937 4.37867 0.306193 4.28762C0.26845 4.19657 0.249023 4.09898 0.249023 4.00042C0.249023 3.90186 0.26845 3.80426 0.306193 3.71321C0.343937 3.62216 0.399256 3.53945 0.468988 3.46979L3.46899 0.469792C3.60972 0.329062 3.80059 0.25 3.99961 0.25C4.19864 0.25 4.38951 0.329062 4.53024 0.469792C4.67097 0.610523 4.75003 0.801394 4.75003 1.00042C4.75003 1.19944 4.67097 1.39031 4.53024 1.53104L2.05993 4.00042L4.53024 6.46979C4.67097 6.61052 4.75003 6.80139 4.75003 7.00042C4.75003 7.19944 4.67097 7.39031 4.53024 7.53104C4.38951 7.67177 4.19864 7.75083 3.99961 7.75083C3.80059 7.75083 3.60972 7.67177 3.46899 7.53104ZM7.21899 7.53104C7.28864 7.60077 7.37136 7.65609 7.46241 7.69384C7.55346 7.73158 7.65105 7.75101 7.74961 7.75101C7.84818 7.75101 7.94577 7.73158 8.03682 7.69384C8.12787 7.65609 8.21058 7.60077 8.28024 7.53104L11.2802 4.53104C11.35 4.46139 11.4053 4.37867 11.443 4.28762C11.4808 4.19657 11.5002 4.09898 11.5002 4.00042C11.5002 3.90186 11.4808 3.80426 11.443 3.71321C11.4053 3.62216 11.35 3.53945 11.2802 3.46979L8.28024 0.469792C8.13951 0.329062 7.94864 0.25 7.74961 0.25C7.55059 0.25 7.35972 0.329062 7.21899 0.469792C7.07826 0.610523 6.9992 0.801394 6.9992 1.00042C6.9992 1.19944 7.07826 1.39031 7.21899 1.53104L9.6893 4.00042L7.21899 6.46979C7.14926 6.53945 7.09394 6.62216 7.05619 6.71321C7.01845 6.80426 6.99902 6.90186 6.99902 7.00042C6.99902 7.09898 7.01845 7.19657 7.05619 7.28762C7.09394 7.37867 7.14926 7.46139 7.21899 7.53104ZM16.7496 1.75042H14.4996C14.3007 1.75042 14.1099 1.82943 13.9693 1.97009C13.8286 2.11074 13.7496 2.3015 13.7496 2.50042C13.7496 2.69933 13.8286 2.89009 13.9693 3.03075C14.1099 3.1714 14.3007 3.25042 14.4996 3.25042H16.7496V16.7504H3.24961V10.7504C3.24961 10.5515 3.1706 10.3607 3.02994 10.2201C2.88929 10.0794 2.69853 10.0004 2.49961 10.0004C2.3007 10.0004 2.10994 10.0794 1.96928 10.2201C1.82863 10.3607 1.74961 10.5515 1.74961 10.7504V16.7504C1.74961 17.1482 1.90765 17.5298 2.18895 17.8111C2.47026 18.0924 2.85179 18.2504 3.24961 18.2504H16.7496C17.1474 18.2504 17.529 18.0924 17.8103 17.8111C18.0916 17.5298 18.2496 17.1482 18.2496 16.7504V3.25042C18.2496 2.85259 18.0916 2.47106 17.8103 2.18976C17.529 1.90845 17.1474 1.75042 16.7496 1.75042Z" fill="#3C3F43"/>
</svg>
