<svg width="14" height="22" viewBox="0 0 14 22" fill="none" xmlns="http://www.w3.org/2000/svg">
<path d="M11.5 0.5H2.5C1.90326 0.5 1.33097 0.737053 0.90901 1.15901C0.487053 1.58097 0.25 2.15326 0.25 2.75V19.25C0.25 19.8467 0.487053 20.419 0.90901 20.841C1.33097 21.2629 1.90326 21.5 2.5 21.5H11.5C12.0967 21.5 12.669 21.2629 13.091 20.841C13.5129 20.419 13.75 19.8467 13.75 19.25V2.75C13.75 2.15326 13.5129 1.58097 13.091 1.15901C12.669 0.737053 12.0967 0.5 11.5 0.5ZM12.25 19.25C12.25 19.4489 12.171 19.6397 12.0303 19.7803C11.8897 19.921 11.6989 20 11.5 20H2.5C2.30109 20 2.11032 19.921 1.96967 19.7803C1.82902 19.6397 1.75 19.4489 1.75 19.25V2.75C1.75 2.55109 1.82902 2.36032 1.96967 2.21967C2.11032 2.07902 2.30109 2 2.5 2H11.5C11.6989 2 11.8897 2.07902 12.0303 2.21967C12.171 2.36032 12.25 2.55109 12.25 2.75V19.25ZM10.75 4.25C10.75 4.44891 10.671 4.63968 10.5303 4.78033C10.3897 4.92098 10.1989 5 10 5H4C3.80109 5 3.61032 4.92098 3.46967 4.78033C3.32902 4.63968 3.25 4.44891 3.25 4.25C3.25 4.05109 3.32902 3.86032 3.46967 3.71967C3.61032 3.57902 3.80109 3.5 4 3.5H10C10.1989 3.5 10.3897 3.57902 10.5303 3.71967C10.671 3.86032 10.75 4.05109 10.75 4.25Z" fill="#3C3F43"/>
</svg>
