<svg width="21" height="21" viewBox="0 0 21 21" fill="none" xmlns="http://www.w3.org/2000/svg">
<path d="M10.2193 10.2763L6.23835 13.6867M6.59177 14.3276L7.6895 16.9402C8.2907 18.3711 8.59129 19.0865 9.01655 19.3213C9.38591 19.5253 9.82187 19.5463 10.1936 19.3781C10.6215 19.1843 10.9309 18.4982 11.5496 17.1261L15.5162 8.3295C16.1201 6.99015 16.4221 6.32054 16.2961 5.85757C16.1867 5.45531 15.8991 5.11961 15.5184 4.94973C15.0803 4.7542 14.3722 4.94979 12.9561 5.34099L3.63883 7.91484C2.19236 8.31443 1.46913 8.51421 1.212 8.90669C0.988689 9.24754 0.942018 9.68095 1.08598 10.077C1.25176 10.533 1.90962 10.9403 3.22534 11.7549L5.70526 13.2902C5.93123 13.4301 6.04425 13.5001 6.14054 13.588C6.22607 13.6662 6.30164 13.7546 6.36546 13.8512C6.43735 13.9601 6.48881 14.0826 6.59177 14.3276Z" stroke="#3C3F43" stroke-width="2" stroke-linecap="round" stroke-linejoin="round"/>
</svg>
