<svg width="33" height="32" viewBox="0 0 33 32" fill="none" xmlns="http://www.w3.org/2000/svg">
<path d="M30.4956 13.4703L20.4956 3.47032C20.3907 3.36556 20.2571 3.29424 20.1117 3.26535C19.9663 3.23647 19.8156 3.25132 19.6786 3.30803C19.5417 3.36474 19.4246 3.46077 19.3422 3.58398C19.2597 3.7072 19.2157 3.85208 19.2156 4.00032V9.27532C12.4056 9.72407 4.16681 16.1503 3.22431 24.3578C3.1937 24.6192 3.24634 24.8835 3.37474 25.1132C3.50314 25.3429 3.70075 25.5262 3.93941 25.637C4.17808 25.7478 4.44562 25.7805 4.70394 25.7303C4.96225 25.6802 5.19816 25.5498 5.37806 25.3578C6.78556 23.8566 11.8406 19.0753 19.2156 18.7666V24.0003C19.2157 24.1486 19.2597 24.2934 19.3422 24.4166C19.4246 24.5399 19.5417 24.6359 19.6786 24.6926C19.8156 24.7493 19.9663 24.7642 20.1117 24.7353C20.2571 24.7064 20.3907 24.6351 20.4956 24.5303L30.4956 14.5303C30.636 14.3897 30.7149 14.1991 30.7149 14.0003C30.7149 13.8016 30.636 13.6109 30.4956 13.4703ZM20.7156 22.1903V18.0003C20.7156 17.8014 20.6365 17.6106 20.4959 17.47C20.3552 17.3293 20.1645 17.2503 19.9656 17.2503C16.4993 17.2503 13.1206 18.1566 9.92556 19.9441C8.06334 20.9902 6.34799 22.2785 4.82431 23.7753C5.41181 20.4553 7.34431 17.2753 10.3243 14.7416C13.2743 12.2428 16.8768 10.7503 19.9656 10.7503C20.1645 10.7503 20.3552 10.6713 20.4959 10.5306C20.6365 10.39 20.7156 10.1992 20.7156 10.0003V5.81157L28.9043 14.0003L20.7156 22.1903Z" fill="#3C3F43"/>
</svg>
