<svg width="20" height="20" viewBox="0 0 20 20" fill="none" xmlns="http://www.w3.org/2000/svg">
<path d="M18.1184 5.73029C18.0597 5.54723 17.948 5.38572 17.7974 5.26624C17.6468 5.14676 17.4641 5.0747 17.2725 5.05918L14.5276 4.82688L13.4568 2.33052C13.3812 2.15551 13.2561 2.00645 13.0968 1.90173C12.9375 1.79701 12.751 1.74121 12.5604 1.74121C12.3697 1.74121 12.1833 1.79701 12.024 1.90173C11.8647 2.00645 11.7396 2.15551 11.664 2.33052L10.5932 4.82762L7.84753 5.05918C7.65688 5.0745 7.47504 5.14593 7.32493 5.26447C7.17483 5.38301 7.0632 5.54335 7.00411 5.72525C6.94503 5.90716 6.94114 6.1025 6.99294 6.28661C7.04473 6.47073 7.1499 6.63539 7.29516 6.75981L9.3719 8.52975L8.7502 11.1648C8.70649 11.3495 8.71816 11.5429 8.78373 11.721C8.84931 11.8991 8.9659 12.054 9.11894 12.1663C9.27379 12.28 9.45872 12.3455 9.65062 12.3547C9.84252 12.3639 10.0329 12.3163 10.1979 12.2179L12.5578 10.8167L14.9177 12.2179C15.0827 12.3163 15.2731 12.3639 15.465 12.3547C15.6569 12.3455 15.8418 12.28 15.9967 12.1663C16.1498 12.0541 16.2664 11.8992 16.332 11.7211C16.3976 11.543 16.4092 11.3495 16.3654 11.1648L15.7437 8.52975L17.8197 6.75981C17.9658 6.63704 18.0722 6.47367 18.1254 6.2904C18.1785 6.10712 18.1761 5.91218 18.1184 5.73029ZM14.8838 7.72148C14.7479 7.83661 14.6466 7.98716 14.5911 8.15641C14.5357 8.32566 14.5282 8.50697 14.5696 8.6802L15.1087 10.9664L13.06 9.7488C12.9088 9.65865 12.736 9.61106 12.56 9.61106C12.384 9.61106 12.2112 9.65865 12.06 9.7488L10.0113 10.959L10.5504 8.67282C10.5924 8.49968 10.5853 8.31826 10.5299 8.14891C10.4746 7.97957 10.3731 7.829 10.237 7.7141L8.44784 6.19342L10.8144 5.99283C10.99 5.97809 11.1584 5.9158 11.3013 5.81264C11.4442 5.70948 11.5563 5.56934 11.6256 5.40727L12.56 3.23319L13.4922 5.40727C13.5616 5.56925 13.6738 5.7093 13.8167 5.81244C13.9596 5.91558 14.1278 5.97794 14.3034 5.99283L16.67 6.19342L14.8838 7.72148ZM6.78261 9.82771L2.65274 13.9576C2.54204 14.0683 2.39189 14.1305 2.23533 14.1305C2.07877 14.1305 1.92862 14.0683 1.81792 13.9576C1.70721 13.8469 1.64502 13.6967 1.64502 13.5402C1.64502 13.3836 1.70721 13.2335 1.81792 13.1228L5.94779 8.99289C6.05849 8.88218 6.20864 8.81999 6.3652 8.81999C6.52176 8.81999 6.67191 8.88218 6.78261 8.99289C6.89332 9.10359 6.95551 9.25374 6.95551 9.4103C6.95551 9.56686 6.89332 9.71701 6.78261 9.82771ZM7.96258 13.9576L3.8327 18.0875C3.77789 18.1423 3.71281 18.1858 3.64119 18.2154C3.56957 18.2451 3.49281 18.2604 3.41529 18.2604C3.33777 18.2604 3.26101 18.2451 3.18939 18.2154C3.11777 18.1858 3.0527 18.1423 2.99788 18.0875C2.94307 18.0326 2.89958 17.9676 2.86992 17.8959C2.84025 17.8243 2.82498 17.7476 2.82498 17.67C2.82498 17.5925 2.84025 17.5158 2.86992 17.4441C2.89958 17.3725 2.94307 17.3074 2.99788 17.2526L7.12775 13.1228C7.23846 13.0121 7.38861 12.9499 7.54517 12.9499C7.70173 12.9499 7.85187 13.0121 7.96258 13.1228C8.07328 13.2335 8.13547 13.3836 8.13547 13.5402C8.13547 13.6967 8.07328 13.8469 7.96258 13.9576ZM13.2724 13.1228C13.3273 13.1776 13.3708 13.2426 13.4005 13.3142C13.4302 13.3859 13.4454 13.4626 13.4454 13.5402C13.4454 13.6177 13.4302 13.6945 13.4005 13.7661C13.3708 13.8377 13.3273 13.9028 13.2724 13.9576L9.14254 18.0875C9.08773 18.1423 9.02265 18.1858 8.95103 18.2154C8.87941 18.2451 8.80265 18.2604 8.72513 18.2604C8.64761 18.2604 8.57085 18.2451 8.49923 18.2154C8.42761 18.1858 8.36253 18.1423 8.30772 18.0875C8.2529 18.0326 8.20942 17.9676 8.17975 17.8959C8.15009 17.8243 8.13482 17.7476 8.13482 17.67C8.13482 17.5925 8.15009 17.5158 8.17975 17.4441C8.20942 17.3725 8.2529 17.3074 8.30772 17.2526L12.4376 13.1228C12.4924 13.0679 12.5575 13.0244 12.6291 12.9947C12.7007 12.965 12.7775 12.9497 12.855 12.9497C12.9325 12.9497 13.0093 12.965 13.0809 12.9947C13.1526 13.0244 13.2176 13.0679 13.2724 13.1228Z" fill="#343330"/>
</svg>
