<svg width="24" height="24" viewBox="0 0 24 24" fill="none" xmlns="http://www.w3.org/2000/svg">
<path d="M0.739746 2.29495C0.739746 1.38559 1.50105 0.647461 2.43952 0.647461H22.039C22.9778 0.647461 23.7388 1.38559 23.7388 2.29495V21.9993C23.7388 22.9089 22.9778 23.6465 22.039 23.6465H2.43952C1.50114 23.6465 0.739746 22.909 0.739746 21.9995V2.29468V2.29495Z" fill="#0A66C2"/>
<path d="M7.72892 19.8944V9.54015H4.28733V19.8944H7.72928H7.72892ZM6.00884 8.1267C7.20875 8.1267 7.95577 7.33162 7.95577 6.33799C7.93331 5.32172 7.20875 4.54883 6.03166 4.54883C4.85377 4.54883 4.08447 5.32172 4.08447 6.3379C4.08447 7.33153 4.83122 8.12661 5.98629 8.12661H6.00857L6.00884 8.1267ZM9.63389 19.8944H13.0752V14.1127C13.0752 13.8037 13.0977 13.4938 13.1886 13.2731C13.4373 12.6545 14.0035 12.0143 14.9545 12.0143C16.1995 12.0143 16.6978 12.9637 16.6978 14.3558V19.8944H20.139V13.9576C20.139 10.7773 18.4414 9.29741 16.1772 9.29741C14.3208 9.29741 13.5055 10.335 13.0526 11.0416H13.0755V9.54051H9.63407C9.67899 10.5119 9.6338 19.8947 9.6338 19.8947L9.63389 19.8944Z" fill="white"/>
</svg>
