<svg width="19" height="22" viewBox="0 0 19 22" fill="none" xmlns="http://www.w3.org/2000/svg">
<path d="M17.7304 16.6869C17.4169 17.4113 17.0458 18.078 16.6158 18.691C16.0297 19.5266 15.5498 20.1051 15.1799 20.4263C14.6066 20.9535 13.9924 21.2236 13.3346 21.2389C12.8624 21.2389 12.2929 21.1045 11.63 20.832C10.9649 20.5607 10.3537 20.4263 9.79486 20.4263C9.20874 20.4263 8.58014 20.5607 7.90777 20.832C7.23438 21.1045 6.69191 21.2466 6.27715 21.2607C5.64637 21.2875 5.01764 21.0098 4.39006 20.4263C3.98951 20.0769 3.4885 19.478 2.88831 18.6296C2.24435 17.7235 1.71492 16.6729 1.30017 15.475C0.855973 14.1812 0.633301 12.9284 0.633301 11.7155C0.633301 10.3261 0.933524 9.12772 1.53487 8.12352C2.00747 7.31691 2.6362 6.68063 3.4231 6.21353C4.21001 5.74643 5.06026 5.50841 5.9759 5.49318C6.47691 5.49318 7.13392 5.64815 7.95039 5.95273C8.76455 6.25832 9.28732 6.4133 9.51652 6.4133C9.68787 6.4133 10.2686 6.23209 11.2531 5.87082C12.1841 5.53579 12.9699 5.39707 13.6136 5.45171C15.3578 5.59248 16.6683 6.28008 17.5398 7.51885C15.9798 8.46406 15.2081 9.78793 15.2235 11.4863C15.2375 12.8091 15.7174 13.9099 16.6606 14.784C17.088 15.1897 17.5654 15.5032 18.0964 15.7259C17.9813 16.0599 17.8597 16.3798 17.7304 16.6869V16.6869ZM13.73 0.945035C13.73 1.98188 13.3512 2.94998 12.5962 3.84604C11.685 4.91129 10.5829 5.52683 9.38778 5.4297C9.37255 5.30531 9.36372 5.1744 9.36372 5.03683C9.36372 4.04146 9.79703 2.97621 10.5665 2.10523C10.9507 1.66424 11.4393 1.29756 12.0318 1.00505C12.623 0.716911 13.1823 0.557561 13.7083 0.530273C13.7236 0.668883 13.73 0.807502 13.73 0.945021V0.945035Z" fill="#3C3F43"/>
</svg>
