<svg width="21" height="21" viewBox="0 0 21 21" fill="none" xmlns="http://www.w3.org/2000/svg">
<path fill-rule="evenodd" clip-rule="evenodd" d="M20.3655 10.8791C20.3655 10.1441 20.2995 9.4373 20.177 8.75879H10.4141V12.7686H15.9929C15.7526 14.0643 15.0223 15.1622 13.9244 15.8973V18.4982H17.2745C19.2347 16.6936 20.3655 14.0361 20.3655 10.8791Z" fill="#4285F4"/>
<path fill-rule="evenodd" clip-rule="evenodd" d="M10.4142 21.0088C13.213 21.0088 15.5595 20.0806 17.2746 18.4974L13.9245 15.8965C12.9963 16.5184 11.8089 16.886 10.4142 16.886C7.71426 16.886 5.429 15.0625 4.61385 12.6123H1.15063V15.2981C2.85633 18.6859 6.36195 21.0088 10.4142 21.0088Z" fill="#34A853"/>
<path fill-rule="evenodd" clip-rule="evenodd" d="M4.61389 12.6132C4.40657 11.9912 4.28877 11.3268 4.28877 10.6436C4.28877 9.96038 4.40657 9.29601 4.61389 8.67404V5.98828H1.15067C0.448604 7.3877 0.0480957 8.97089 0.0480957 10.6436C0.0480957 12.3163 0.448604 13.8995 1.15067 15.2989L4.61389 12.6132Z" fill="#FBBC05"/>
<path fill-rule="evenodd" clip-rule="evenodd" d="M10.4142 4.40022C11.9361 4.40022 13.3025 4.92324 14.3768 5.95042L17.35 2.97724C15.5548 1.30453 13.2083 0.277344 10.4142 0.277344C6.36195 0.277344 2.85633 2.60029 1.15063 5.98812L4.61385 8.67388C5.429 6.22371 7.71426 4.40022 10.4142 4.40022Z" fill="#EA4335"/>
</svg>
