<svg width="27" height="20" viewBox="0 0 27 20" fill="none" xmlns="http://www.w3.org/2000/svg">
<path d="M25.7002 13.7554H21.276C21.3083 13.4649 21.3247 13.1728 21.3252 12.8804C21.3252 10.7919 20.4955 8.78883 19.0187 7.31198C17.5418 5.83513 15.5388 5.00544 13.4502 5.00544C11.3616 5.00544 9.35858 5.83513 7.88173 7.31198C6.40488 8.78883 5.5752 10.7919 5.5752 12.8804C5.57569 13.1728 5.59212 13.4649 5.62441 13.7554H1.2002C0.968131 13.7554 0.745571 13.8476 0.581477 14.0117C0.417383 14.1758 0.325195 14.3984 0.325195 14.6304C0.325195 14.8625 0.417383 15.0851 0.581477 15.2492C0.745571 15.4133 0.968131 15.5054 1.2002 15.5054H25.7002C25.9323 15.5054 26.1548 15.4133 26.3189 15.2492C26.483 15.0851 26.5752 14.8625 26.5752 14.6304C26.5752 14.3984 26.483 14.1758 26.3189 14.0117C26.1548 13.8476 25.9323 13.7554 25.7002 13.7554ZM7.3252 12.8804C7.32359 12.0382 7.49572 11.2046 7.83084 10.4318C8.16596 9.65908 8.65686 8.96375 9.27286 8.3893C9.88886 7.81484 10.6167 7.37362 11.411 7.09319C12.2052 6.81276 13.0487 6.69916 13.8889 6.75949C14.729 6.81982 15.5477 7.05277 16.2937 7.4438C17.0397 7.83483 17.6971 8.37552 18.2247 9.0321C18.7523 9.68867 19.1388 10.447 19.3601 11.2597C19.5813 12.0724 19.6326 12.922 19.5107 13.7554H7.38973C7.34737 13.4657 7.32581 13.1733 7.3252 12.8804ZM23.0752 19.0054C23.0752 19.2375 22.983 19.4601 22.8189 19.6242C22.6548 19.7883 22.4323 19.8804 22.2002 19.8804H4.7002C4.46813 19.8804 4.24557 19.7883 4.08148 19.6242C3.91738 19.4601 3.8252 19.2375 3.8252 19.0054C3.8252 18.7734 3.91738 18.5508 4.08148 18.3867C4.24557 18.2226 4.46813 18.1304 4.7002 18.1304H22.2002C22.4323 18.1304 22.6548 18.2226 22.8189 18.3867C22.983 18.5508 23.0752 18.7734 23.0752 19.0054ZM7.41707 1.89701C7.31322 1.68931 7.29613 1.44886 7.36957 1.22857C7.443 1.00827 7.60093 0.826168 7.80863 0.722319C8.01633 0.61847 8.25677 0.601382 8.47707 0.674814C8.69737 0.748247 8.87947 0.906184 8.98332 1.11388L9.85832 2.86388C9.90974 2.96672 9.9404 3.07869 9.94855 3.19338C9.9567 3.30807 9.94219 3.42324 9.90582 3.53232C9.86946 3.6414 9.81198 3.74225 9.73664 3.82911C9.66131 3.91598 9.5696 3.98715 9.46676 4.03857C9.36392 4.08999 9.25195 4.12065 9.13726 4.1288C9.02257 4.13695 8.9074 4.12243 8.79832 4.08607C8.68924 4.04971 8.58839 3.99222 8.50153 3.91689C8.41466 3.84155 8.34349 3.74985 8.29207 3.64701L7.41707 1.89701ZM1.29207 7.23888C1.34353 7.13608 1.41474 7.04443 1.50164 6.96917C1.58854 6.8939 1.68941 6.8365 1.7985 6.80024C1.90759 6.76398 2.02276 6.74957 2.13742 6.75783C2.25209 6.7661 2.364 6.79688 2.46676 6.84841L4.21676 7.72341C4.42431 7.82726 4.58211 8.00931 4.65544 8.2295C4.72877 8.4497 4.71162 8.69 4.60777 8.89755C4.50392 9.10511 4.32188 9.2629 4.10169 9.33623C3.88149 9.40956 3.64119 9.39242 3.43363 9.28857L1.68363 8.41357C1.58074 8.36221 1.48898 8.29106 1.4136 8.20421C1.33823 8.11735 1.28071 8.01649 1.24435 7.90739C1.20798 7.79829 1.19348 7.6831 1.20166 7.56839C1.20985 7.45368 1.24057 7.34171 1.29207 7.23888ZM22.2921 8.89701C22.1884 8.68945 22.1714 8.44921 22.2449 8.22914C22.3183 8.00906 22.4761 7.82715 22.6836 7.72341L24.4336 6.84841C24.5364 6.79699 24.6483 6.76632 24.7629 6.75814C24.8775 6.74996 24.9927 6.76444 25.1017 6.80075C25.2107 6.83706 25.3115 6.89449 25.3984 6.96975C25.4852 7.04502 25.5564 7.13666 25.6078 7.23943C25.6592 7.3422 25.6899 7.45409 25.698 7.56871C25.7062 7.68334 25.6917 7.79845 25.6554 7.90748C25.6191 8.01651 25.5617 8.11732 25.4864 8.20415C25.4112 8.29099 25.3195 8.36215 25.2168 8.41357L23.4668 9.28857C23.3639 9.34007 23.252 9.37078 23.1373 9.37897C23.0225 9.38716 22.9073 9.37266 22.7982 9.33629C22.6891 9.29993 22.5883 9.24241 22.5014 9.16703C22.4146 9.09166 22.3434 8.9999 22.2921 8.89701ZM17.0421 2.86388L17.9171 1.11388C18.0209 0.906184 18.203 0.748247 18.4233 0.674814C18.6436 0.601382 18.8841 0.61847 19.0918 0.722319C19.2995 0.826168 19.4574 1.00827 19.5308 1.22857C19.6043 1.44886 19.5872 1.68931 19.4833 1.89701L18.6083 3.64701C18.5045 3.8547 18.3224 4.01264 18.1021 4.08607C17.8818 4.15951 17.6413 4.14242 17.4336 4.03857C17.2259 3.93472 17.068 3.75262 16.9946 3.53232C16.9211 3.31202 16.9382 3.07158 17.0421 2.86388Z" fill=""/>
</svg>
