<svg width="23" height="17" viewBox="0 0 23 17" fill="none" xmlns="http://www.w3.org/2000/svg">
<path d="M22.3288 9.94955C22.2697 9.99387 22.2025 10.0261 22.131 10.0445C22.0594 10.0628 21.985 10.0668 21.9119 10.0564C21.8388 10.0459 21.7685 10.0212 21.705 9.98357C21.6415 9.94593 21.586 9.89614 21.5417 9.83705C21.0725 9.20602 20.4618 8.69404 19.7587 8.34232C19.0556 7.99059 18.2798 7.80896 17.4938 7.81205C17.3447 7.81205 17.2017 7.75279 17.0962 7.6473C16.9908 7.54181 16.9316 7.39873 16.9316 7.24955C16.9316 7.10036 16.9908 6.95729 17.0962 6.8518C17.2017 6.74631 17.3447 6.68705 17.4938 6.68705C17.9494 6.68695 18.3959 6.55901 18.7825 6.31777C19.1691 6.07652 19.4803 5.73164 19.6809 5.32229C19.8814 4.91294 19.9632 4.45553 19.9169 4.00201C19.8706 3.5485 19.6982 3.11705 19.4191 2.75668C19.14 2.39632 18.7656 2.12147 18.3382 1.96335C17.9109 1.80524 17.4478 1.7702 17.0015 1.86222C16.5553 1.95424 16.1437 2.16962 15.8137 2.4839C15.4836 2.79819 15.2483 3.19878 15.1344 3.64017C15.0971 3.78463 15.004 3.90836 14.8755 3.98414C14.7471 4.05992 14.5938 4.08153 14.4494 4.04424C14.305 4.00694 14.1814 3.91379 14.1056 3.78526C14.0299 3.65674 14.0083 3.50338 14.0456 3.35892C14.1869 2.80902 14.4575 2.30087 14.835 1.87684C15.2124 1.4528 15.6856 1.12517 16.2152 0.921248C16.7449 0.717323 17.3156 0.643015 17.8797 0.704515C18.4439 0.766015 18.9852 0.961542 19.4585 1.2748C19.9318 1.58806 20.3234 2.00997 20.6007 2.50537C20.878 3.00077 21.0329 3.55531 21.0526 4.12277C21.0722 4.69022 20.956 5.25415 20.7136 5.76756C20.4712 6.28097 20.1097 6.72897 19.6592 7.07424C20.7678 7.48816 21.7337 8.21303 22.4412 9.16205C22.4855 9.22114 22.5177 9.28839 22.536 9.35995C22.5544 9.4315 22.5584 9.50597 22.548 9.5791C22.5375 9.65222 22.5128 9.72258 22.4752 9.78614C22.4376 9.8497 22.3878 9.90523 22.3288 9.94955ZM17.2305 15.9683C17.2675 16.0323 17.2915 16.1029 17.3012 16.1761C17.3109 16.2494 17.3061 16.3238 17.2871 16.3952C17.268 16.4666 17.2351 16.5335 17.1902 16.5922C17.1452 16.6508 17.0892 16.7001 17.0253 16.737C16.94 16.787 16.843 16.8133 16.7442 16.813C16.6454 16.813 16.5484 16.7871 16.4629 16.7377C16.3773 16.6883 16.3063 16.6173 16.2569 16.5317C15.7682 15.7033 15.0721 15.0168 14.2371 14.5398C13.4022 14.0628 12.4574 13.812 11.496 13.812C10.5345 13.812 9.58973 14.0628 8.7548 14.5398C7.91988 15.0168 7.22371 15.7033 6.73502 16.5317C6.69988 16.599 6.6515 16.6584 6.59281 16.7064C6.53412 16.7544 6.46632 16.7901 6.3935 16.8112C6.32068 16.8324 6.24434 16.8385 6.16907 16.8294C6.0938 16.8203 6.02115 16.796 5.95551 16.758C5.88986 16.72 5.83257 16.6692 5.78708 16.6085C5.74159 16.5478 5.70884 16.4785 5.6908 16.4048C5.67276 16.3311 5.6698 16.2546 5.68211 16.1797C5.69441 16.1049 5.72173 16.0333 5.76241 15.9692C6.52816 14.6528 7.72715 13.6435 9.15438 13.1136C8.37475 12.6071 7.77965 11.8621 7.45786 10.9895C7.13606 10.117 7.10482 9.16376 7.36879 8.272C7.63276 7.38025 8.17779 6.59777 8.92259 6.04129C9.66739 5.4848 10.572 5.18414 11.5016 5.18414C12.4312 5.18414 13.3358 5.4848 14.0806 6.04129C14.8254 6.59777 15.3704 7.38025 15.6344 8.272C15.8984 9.16376 15.8671 10.117 15.5453 10.9895C15.2235 11.8621 14.6284 12.6071 13.8488 13.1136C15.2721 13.6453 16.4671 14.6541 17.2305 15.9683ZM11.4969 12.687C12.127 12.687 12.743 12.5001 13.2669 12.1499C13.7908 11.7996 14.1991 11.3018 14.4402 10.7194C14.6814 10.1369 14.7445 9.49601 14.6215 8.8777C14.4986 8.25938 14.1952 7.69143 13.7496 7.24565C13.3041 6.79987 12.7364 6.49629 12.1184 6.3733C11.5004 6.25031 10.8599 6.31343 10.2777 6.55468C9.69561 6.79594 9.19805 7.20449 8.84799 7.72867C8.49792 8.25285 8.31108 8.86912 8.31108 9.49955C8.31108 10.3449 8.64672 11.1557 9.24418 11.7535C9.84164 12.3512 10.652 12.687 11.4969 12.687ZM6.06225 7.24955C6.06225 7.10036 6.00302 6.95729 5.89758 6.8518C5.79215 6.74631 5.64915 6.68705 5.50004 6.68705C5.04446 6.68691 4.59805 6.55895 4.21149 6.31772C3.82494 6.07649 3.51374 5.73164 3.31323 5.32234C3.11272 4.91304 3.03093 4.45569 3.07716 4.00222C3.12338 3.54875 3.29577 3.11734 3.57474 2.75697C3.85371 2.3966 4.22809 2.12172 4.65536 1.96353C5.08263 1.80535 5.54567 1.7702 5.9919 1.86209C6.43813 1.95397 6.84967 2.1692 7.17979 2.48334C7.5099 2.79748 7.74536 3.19794 7.85944 3.63924C7.87789 3.71077 7.91025 3.77796 7.95466 3.83698C7.99907 3.89599 8.05467 3.94568 8.11827 3.9832C8.18188 4.02072 8.25224 4.04534 8.32536 4.05565C8.39847 4.06596 8.4729 4.06177 8.54439 4.0433C8.61588 4.02483 8.68304 3.99246 8.74203 3.94802C8.80101 3.90359 8.85067 3.84796 8.88818 3.78433C8.92568 3.72069 8.95028 3.65029 8.96059 3.57713C8.97089 3.50398 8.9667 3.42952 8.94824 3.35799C8.80692 2.80808 8.53628 2.29993 8.15887 1.8759C7.78146 1.45187 7.30821 1.12423 6.77858 0.920311C6.24894 0.716386 5.67826 0.642077 5.1141 0.703577C4.54994 0.765077 4.00865 0.960604 3.53533 1.27386C3.06202 1.58712 2.67039 2.00903 2.39311 2.50443C2.11582 2.99984 1.9609 3.55437 1.94126 4.12183C1.92162 4.68928 2.03783 5.25322 2.2802 5.76662C2.52257 6.28003 2.88409 6.72803 3.33461 7.0733C2.22586 7.48748 1.25997 8.21268 0.552627 9.16205C0.508329 9.22114 0.476098 9.28839 0.457775 9.35995C0.439452 9.4315 0.435395 9.50597 0.445836 9.5791C0.456277 9.65222 0.481012 9.72258 0.518628 9.78614C0.556244 9.8497 0.606004 9.90523 0.665068 9.94955C0.724132 9.99387 0.791343 10.0261 0.862863 10.0445C0.934383 10.0628 1.00881 10.0668 1.0819 10.0564C1.15499 10.0459 1.2253 10.0212 1.28883 9.98357C1.35236 9.94593 1.40786 9.89614 1.45216 9.83705C1.92132 9.20602 2.53203 8.69404 3.23511 8.34232C3.93819 7.99059 4.71399 7.80896 5.50004 7.81205C5.64915 7.81205 5.79215 7.75279 5.89758 7.6473C6.00302 7.54181 6.06225 7.39873 6.06225 7.24955Z" fill="#3C3F43"/>
</svg>
