<svg width="49" height="49" viewBox="0 0 49 49" fill="none" xmlns="http://www.w3.org/2000/svg">
<path opacity="0.2" d="M32.2239 26.3984C32.2239 30.4814 28.914 33.7913 24.8311 33.7913C20.7481 33.7913 17.4382 30.4814 17.4382 26.3984C17.4382 22.3155 20.7481 19.0056 24.8311 19.0056C28.914 19.0056 32.2239 22.3155 32.2239 26.3984Z" fill="#06B0BA" stroke="#06B0BA" stroke-width="0.214286"/>
<path opacity="0.2" d="M17.9739 15.8984C17.9739 19.153 15.3356 21.7913 12.0811 21.7913C8.82652 21.7913 6.1882 19.153 6.1882 15.8984C6.1882 12.6439 8.82652 10.0056 12.0811 10.0056C15.3356 10.0056 17.9739 12.6439 17.9739 15.8984Z" fill="#06B0BA" stroke="#06B0BA" stroke-width="0.214286"/>
<path opacity="0.2" d="M43.4739 15.8984C43.4739 19.153 40.8356 21.7913 37.5811 21.7913C34.3265 21.7913 31.6882 19.153 31.6882 15.8984C31.6882 12.6439 34.3265 10.0056 37.5811 10.0056C40.8356 10.0056 43.4739 12.6439 43.4739 15.8984Z" fill="#06B0BA" stroke="#06B0BA" stroke-width="0.214286"/>
<path d="M24.8311 33.8984C28.9732 33.8984 32.3311 30.5406 32.3311 26.3984C32.3311 22.2563 28.9732 18.8984 24.8311 18.8984C20.6889 18.8984 17.3311 22.2563 17.3311 26.3984C17.3311 30.5406 20.6889 33.8984 24.8311 33.8984Z" stroke="#06B0BA" stroke-width="3.42857" stroke-linecap="round" stroke-linejoin="round"/>
<path d="M37.5811 21.8985C39.3281 21.8955 41.0516 22.3009 42.6142 23.0822C44.1768 23.8635 45.5352 24.9991 46.5811 26.3985" stroke="#06B0BA" stroke-width="3.42857" stroke-linecap="round" stroke-linejoin="round"/>
<path d="M3.08105 26.3985C4.12693 24.9991 5.48533 23.8635 7.04791 23.0822C8.6105 22.3009 10.334 21.8955 12.0811 21.8985" stroke="#06B0BA" stroke-width="3.42857" stroke-linecap="round" stroke-linejoin="round"/>
<path d="M14.0312 40.6485C15.019 38.6256 16.5552 36.9207 18.4646 35.7282C20.374 34.5356 22.58 33.9033 24.8312 33.9033C27.0825 33.9033 29.2885 34.5356 31.1979 35.7282C33.1073 36.9207 34.6435 38.6256 35.6313 40.6485" stroke="#06B0BA" stroke-width="3.42857" stroke-linecap="round" stroke-linejoin="round"/>
<path d="M12.0803 21.8984C10.9415 21.8996 9.8259 21.5766 8.86384 20.9673C7.90177 20.358 7.13297 19.4874 6.64728 18.4574C6.16159 17.4274 5.97906 16.2804 6.12102 15.1505C6.26299 14.0206 6.72357 12.9544 7.44897 12.0765C8.17437 11.1987 9.13462 10.5453 10.2175 10.1929C11.3004 9.84054 12.4612 9.8036 13.5644 10.0864C14.6675 10.3693 15.6673 10.9602 16.4471 11.7901C17.2268 12.6201 17.7543 13.6548 17.9678 14.7734" stroke="#06B0BA" stroke-width="3.42857" stroke-linecap="round" stroke-linejoin="round"/>
<path d="M31.6934 14.7734C31.9069 13.6548 32.4343 12.6201 33.2141 11.7901C33.9938 10.9602 34.9937 10.3693 36.0968 10.0864C37.1999 9.8036 38.3608 9.84054 39.4437 10.1929C40.5266 10.5453 41.4868 11.1987 42.2122 12.0765C42.9376 12.9544 43.3982 14.0206 43.5401 15.1505C43.6821 16.2804 43.4996 17.4274 43.0139 18.4574C42.5282 19.4874 41.7594 20.358 40.7973 20.9673C39.8353 21.5766 38.7197 21.8996 37.5809 21.8984" stroke="#06B0BA" stroke-width="3.42857" stroke-linecap="round" stroke-linejoin="round"/>
</svg>
