<svg width="5" height="16" viewBox="0 0 5 16" fill="none" xmlns="http://www.w3.org/2000/svg">
<path d="M2.49993 3.73109C1.56695 3.73109 0.810659 2.97478 0.810659 2.04181C0.810659 1.10885 1.56695 0.352539 2.49993 0.352539C3.43292 0.352539 4.18921 1.10885 4.18921 2.04181C4.18921 2.97478 3.43292 3.73109 2.49993 3.73109Z" fill="#06B0BA"/>
<path d="M2.49993 15.5553C1.56695 15.5553 0.810659 14.799 0.810659 13.866C0.810659 12.933 1.56695 12.1768 2.49993 12.1768C3.43292 12.1768 4.18921 12.933 4.18921 13.866C4.18921 14.799 3.43292 15.5553 2.49993 15.5553Z" fill="#06B0BA"/>
<path d="M2.49993 9.6432C1.56695 9.6432 0.810659 8.88691 0.810659 7.95392C0.810659 7.02094 1.56695 6.26465 2.49993 6.26465C3.43292 6.26465 4.18921 7.02094 4.18921 7.95392C4.18921 8.88691 3.43292 9.6432 2.49993 9.6432Z" fill="#06B0BA"/>
</svg>
