<svg width="11" height="11" viewBox="0 0 11 11" fill="none" xmlns="http://www.w3.org/2000/svg">
<path d="M5.8546 0.640625C4.87373 0.640625 3.9149 0.931485 3.09934 1.47642C2.28378 2.02136 1.64813 2.7959 1.27277 3.7021C0.897412 4.6083 0.799201 5.60546 0.990558 6.56747C1.18191 7.52949 1.65425 8.41316 2.34782 9.10673C3.0414 9.80031 3.92506 10.2726 4.88708 10.464C5.8491 10.6554 6.84625 10.5571 7.75245 10.1818C8.65865 9.80642 9.43319 9.17077 9.97813 8.35521C10.5231 7.53966 10.8139 6.58082 10.8139 5.59996C10.8125 4.28509 10.2896 3.02447 9.35984 2.09471C8.43009 1.16496 7.16947 0.642014 5.8546 0.640625ZM4.59712 7.50739H7.11207C6.856 8.38195 6.42683 9.1702 5.8546 9.79107C5.28237 9.1702 4.85319 8.38195 4.59712 7.50739ZM4.42402 6.74442C4.2975 5.98669 4.2975 5.21322 4.42402 4.4555H7.28517C7.4117 5.21322 7.4117 5.98669 7.28517 6.74442H4.42402ZM1.65824 5.59996C1.65791 5.21296 1.71135 4.82779 1.81703 4.4555H3.65103C3.53722 5.21423 3.53722 5.98569 3.65103 6.74442H1.81703C1.71135 6.37213 1.65791 5.98696 1.65824 5.59996ZM7.11207 3.69252H4.59712C4.85319 2.81796 5.28237 2.02971 5.8546 1.40884C6.42683 2.02971 6.856 2.81796 7.11207 3.69252ZM8.05816 4.4555H9.89216C10.1039 5.20378 10.1039 5.99613 9.89216 6.74442H8.05816C8.17197 5.98569 8.17197 5.21423 8.05816 4.4555ZM9.59174 3.69252H7.90223C7.70754 2.92645 7.3806 2.20026 6.93611 1.54666C7.50398 1.69926 8.03362 1.96902 8.49099 2.33859C8.94835 2.70816 9.3233 3.16936 9.59174 3.69252ZM4.77308 1.54666C4.3286 2.20026 4.00165 2.92645 3.80697 3.69252H2.11746C2.38589 3.16936 2.76085 2.70816 3.21821 2.33859C3.67557 1.96902 4.20521 1.69926 4.77308 1.54666ZM2.11746 7.50739H3.80697C4.00165 8.27346 4.3286 8.99965 4.77308 9.65326C4.20521 9.50065 3.67557 9.23089 3.21821 8.86132C2.76085 8.49175 2.38589 8.03056 2.11746 7.50739ZM6.93611 9.65326C7.3806 8.99965 7.70754 8.27346 7.90223 7.50739H9.59174C9.3233 8.03056 8.94835 8.49175 8.49099 8.86132C8.03362 9.23089 7.50398 9.50065 6.93611 9.65326Z" fill="#3C3F43"/>
</svg>
